<ttFont>
    <TTGlyph name="A" xMin="15" yMin="-2" xMax="639" yMax="699">
      <contour>
        <pt x="520" y="-2" on="1"/>
        <pt x="433" y="-2" on="0"/>
        <pt x="426" y="26" on="1"/>
        <pt x="393" y="155" on="1"/>
        <pt x="234" y="155" on="1"/>
        <pt x="205" y="31" on="1"/>
        <pt x="199" y="0" on="0"/>
        <pt x="109" y="0" on="1"/>
        <pt x="61" y="0" on="0"/>
        <pt x="15" y="11" on="0"/>
        <pt x="15" y="14" on="1"/>
        <pt x="192" y="691" on="1"/>
        <pt x="192" y="699" on="0"/>
        <pt x="466" y="699" on="0"/>
        <pt x="466" y="691" on="1"/>
        <pt x="639" y="13" on="1"/>
        <pt x="639" y="6" on="0"/>
        <pt x="547" y="-2" on="0"/>
      </contour>
      <contour>
        <pt x="259" y="282" on="1"/>
        <pt x="364" y="282" on="1"/>
        <pt x="319" y="489" on="1"/>
        <pt x="313" y="489" on="1"/>
      </contour>
    </TTGlyph>
    <TTGlyph name="AE" xMin="34" yMin="-11" xMax="856" yMax="700">
      <contour>
        <pt x="775" y="422" on="1"/>
        <pt x="794" y="422" on="0"/>
        <pt x="794" y="352" on="1"/>
        <pt x="794" y="331" on="0"/>
        <pt x="785" y="274" on="0"/>
        <pt x="773" y="274" on="1"/>
        <pt x="646" y="274" on="1"/>
        <pt x="646" y="174" on="1"/>
        <pt x="830" y="174" on="1"/>
        <pt x="847" y="174" on="0"/>
        <pt x="853" y="130" on="1"/>
        <pt x="856" y="111" on="0"/>
        <pt x="856" y="68" on="0"/>
        <pt x="844" y="0" on="0"/>
        <pt x="830" y="0" on="1"/>
        <pt x="492" y="0" on="1"/>
        <pt x="461" y="0" on="0"/>
        <pt x="461" y="32" on="1"/>
        <pt x="461" y="156" on="1"/>
        <pt x="302" y="156" on="1"/>
        <pt x="238" y="22" on="1"/>
        <pt x="223" y="-10" on="0"/>
        <pt x="137" y="-10" on="1"/>
        <pt x="122" y="-10" on="0"/>
        <pt x="38" y="-5" on="0"/>
        <pt x="34" y="4" on="1"/>
        <pt x="360" y="700" on="1"/>
        <pt x="831" y="700" on="1"/>
        <pt x="852" y="700" on="0"/>
        <pt x="852" y="521" on="0"/>
        <pt x="831" y="521" on="1"/>
        <pt x="646" y="521" on="1"/>
        <pt x="646" y="422" on="1"/>
      </contour>
      <contour>
        <pt x="463" y="285" on="1"/>
        <pt x="463" y="524" on="1"/>
        <pt x="457" y="524" on="1"/>
        <pt x="358" y="285" on="1"/>
      </contour>
    </TTGlyph>
    <TTGlyph name="Aacute" xMin="14" yMin="-12" xMax="638" yMax="911">
      <contour>
        <pt x="519" y="-12" on="1"/>
        <pt x="432" y="-12" on="0"/>
        <pt x="425" y="16" on="1"/>
        <pt x="393" y="155" on="1"/>
        <pt x="234" y="155" on="1"/>
        <pt x="204" y="21" on="1"/>
        <pt x="198" y="-10" on="0"/>
        <pt x="108" y="-10" on="1"/>
        <pt x="60" y="-10" on="0"/>
        <pt x="14" y="1" on="0"/>
        <pt x="14" y="4" on="1"/>
        <pt x="192" y="691" on="1"/>
        <pt x="192" y="699" on="0"/>
        <pt x="466" y="699" on="0"/>
        <pt x="466" y="691" on="1"/>
        <pt x="638" y="3" on="1"/>
        <pt x="638" y="-4" on="0"/>
        <pt x="546" y="-12" on="0"/>
      </contour>
      <contour>
        <pt x="259" y="282" on="1"/>
        <pt x="364" y="282" on="1"/>
        <pt x="319" y="489" on="1"/>
        <pt x="313" y="489" on="1"/>
      </contour>
      <contour>
        <pt x="258" y="729" on="1"/>
        <pt x="249" y="729" on="0"/>
        <pt x="235" y="749" on="1"/>
        <pt x="217" y="777" on="0"/>
        <pt x="217" y="815" on="0"/>
        <pt x="223" y="821" on="1"/>
        <pt x="386" y="911" on="0"/>
        <pt x="389" y="911" on="1"/>
        <pt x="399" y="911" on="0"/>
        <pt x="414" y="887" on="1"/>
        <pt x="437" y="852" on="0"/>
        <pt x="437" y="821" on="1"/>
        <pt x="437" y="810" on="0"/>
        <pt x="432" y="805" on="1"/>
        <pt x="260" y="729" on="0"/>
      </contour>
    </TTGlyph>
    <TTGlyph name="Acircumflex" xMin="14" yMin="-12" xMax="638" yMax="909">
      <contour>
        <pt x="519" y="-12" on="1"/>
        <pt x="432" y="-12" on="0"/>
        <pt x="425" y="16" on="1"/>
        <pt x="393" y="155" on="1"/>
        <pt x="234" y="155" on="1"/>
        <pt x="204" y="21" on="1"/>
        <pt x="198" y="-10" on="0"/>
        <pt x="108" y="-10" on="1"/>
        <pt x="60" y="-10" on="0"/>
        <pt x="14" y="1" on="0"/>
        <pt x="14" y="4" on="1"/>
        <pt x="192" y="691" on="1"/>
        <pt x="192" y="699" on="0"/>
        <pt x="466" y="699" on="0"/>
        <pt x="466" y="691" on="1"/>
        <pt x="638" y="3" on="1"/>
        <pt x="638" y="-4" on="0"/>
        <pt x="546" y="-12" on="0"/>
      </contour>
      <contour>
        <pt x="259" y="282" on="1"/>
        <pt x="364" y="282" on="1"/>
        <pt x="319" y="489" on="1"/>
        <pt x="313" y="489" on="1"/>
      </contour>
      <contour>
        <pt x="200" y="724" on="1"/>
        <pt x="191" y="724" on="0"/>
        <pt x="176" y="746" on="1"/>
        <pt x="156" y="776" on="0"/>
        <pt x="156" y="816" on="0"/>
        <pt x="162" y="821" on="1"/>
        <pt x="316" y="905" on="1"/>
        <pt x="323" y="909" on="0"/>
        <pt x="331" y="909" on="0"/>
        <pt x="338" y="905" on="1"/>
        <pt x="492" y="821" on="1"/>
        <pt x="498" y="816" on="0"/>
        <pt x="498" y="807" on="1"/>
        <pt x="498" y="776" on="0"/>
        <pt x="464" y="724" on="0"/>
        <pt x="455" y="724" on="1"/>
        <pt x="453" y="724" on="0"/>
        <pt x="327" y="798" on="1"/>
        <pt x="202" y="724" on="0"/>
      </contour>
    </TTGlyph>
    <TTGlyph name="Adieresis" xMin="14" yMin="-12" xMax="638" yMax="901">
      <contour>
        <pt x="519" y="-12" on="1"/>
        <pt x="432" y="-12" on="0"/>
        <pt x="425" y="16" on="1"/>
        <pt x="393" y="155" on="1"/>
        <pt x="234" y="155" on="1"/>
        <pt x="204" y="21" on="1"/>
        <pt x="198" y="-10" on="0"/>
        <pt x="108" y="-10" on="1"/>
        <pt x="60" y="-10" on="0"/>
        <pt x="14" y="1" on="0"/>
        <pt x="14" y="4" on="1"/>
        <pt x="192" y="691" on="1"/>
        <pt x="192" y="699" on="0"/>
        <pt x="466" y="699" on="0"/>
        <pt x="466" y="691" on="1"/>
        <pt x="638" y="3" on="1"/>
        <pt x="638" y="-4" on="0"/>
        <pt x="546" y="-12" on="0"/>
      </contour>
      <contour>
        <pt x="259" y="282" on="1"/>
        <pt x="364" y="282" on="1"/>
        <pt x="319" y="489" on="1"/>
        <pt x="313" y="489" on="1"/>
      </contour>
      <contour>
        <pt x="282" y="752" on="1"/>
        <pt x="282" y="746" on="0"/>
        <pt x="143" y="746" on="0"/>
        <pt x="143" y="751" on="1"/>
        <pt x="143" y="891" on="1"/>
        <pt x="143" y="900" on="0"/>
        <pt x="282" y="900" on="0"/>
        <pt x="282" y="895" on="1"/>
      </contour>
      <contour>
        <pt x="512" y="752" on="1"/>
        <pt x="512" y="746" on="0"/>
        <pt x="373" y="746" on="0"/>
        <pt x="373" y="751" on="1"/>
        <pt x="373" y="891" on="1"/>
        <pt x="373" y="900" on="0"/>
        <pt x="512" y="900" on="0"/>
        <pt x="512" y="895" on="1"/>
      </contour>
    </TTGlyph>
    <TTGlyph name="Agrave" xMin="14" yMin="-12" xMax="638" yMax="911">
      <contour>
        <pt x="519" y="-12" on="1"/>
        <pt x="432" y="-12" on="0"/>
        <pt x="425" y="16" on="1"/>
        <pt x="393" y="155" on="1"/>
        <pt x="234" y="155" on="1"/>
        <pt x="204" y="21" on="1"/>
        <pt x="198" y="-10" on="0"/>
        <pt x="108" y="-10" on="1"/>
        <pt x="60" y="-10" on="0"/>
        <pt x="14" y="1" on="0"/>
        <pt x="14" y="4" on="1"/>
        <pt x="192" y="691" on="1"/>
        <pt x="192" y="699" on="0"/>
        <pt x="466" y="699" on="0"/>
        <pt x="466" y="691" on="1"/>
        <pt x="638" y="3" on="1"/>
        <pt x="638" y="-4" on="0"/>
        <pt x="546" y="-12" on="0"/>
      </contour>
      <contour>
        <pt x="259" y="282" on="1"/>
        <pt x="364" y="282" on="1"/>
        <pt x="319" y="489" on="1"/>
        <pt x="313" y="489" on="1"/>
      </contour>
      <contour>
        <pt x="222" y="805" on="1"/>
        <pt x="217" y="810" on="0"/>
        <pt x="217" y="819" on="1"/>
        <pt x="217" y="852" on="0"/>
        <pt x="255" y="911" on="0"/>
        <pt x="265" y="911" on="1"/>
        <pt x="268" y="911" on="0"/>
        <pt x="431" y="821" on="1"/>
        <pt x="437" y="815" on="0"/>
        <pt x="437" y="807" on="1"/>
        <pt x="437" y="777" on="0"/>
        <pt x="405" y="729" on="0"/>
        <pt x="396" y="729" on="1"/>
        <pt x="394" y="729" on="0"/>
      </contour>
    </TTGlyph>
    <TTGlyph name="Aring" xMin="14" yMin="-12" xMax="638" yMax="905">
      <contour>
        <pt x="519" y="-12" on="1"/>
        <pt x="432" y="-12" on="0"/>
        <pt x="425" y="16" on="1"/>
        <pt x="393" y="155" on="1"/>
        <pt x="234" y="155" on="1"/>
        <pt x="204" y="21" on="1"/>
        <pt x="198" y="-10" on="0"/>
        <pt x="108" y="-10" on="1"/>
        <pt x="60" y="-10" on="0"/>
        <pt x="14" y="1" on="0"/>
        <pt x="14" y="4" on="1"/>
        <pt x="192" y="691" on="1"/>
        <pt x="192" y="699" on="0"/>
        <pt x="466" y="699" on="0"/>
        <pt x="466" y="691" on="1"/>
        <pt x="638" y="3" on="1"/>
        <pt x="638" y="-4" on="0"/>
        <pt x="546" y="-12" on="0"/>
      </contour>
      <contour>
        <pt x="259" y="282" on="1"/>
        <pt x="364" y="282" on="1"/>
        <pt x="319" y="489" on="1"/>
        <pt x="313" y="489" on="1"/>
      </contour>
      <contour>
        <pt x="235" y="777" on="0"/>
        <pt x="235" y="853" on="0"/>
        <pt x="287" y="905" on="0"/>
        <pt x="363" y="905" on="0"/>
        <pt x="415" y="853" on="0"/>
        <pt x="415" y="777" on="0"/>
        <pt x="363" y="725" on="0"/>
        <pt x="287" y="725" on="0"/>
      </contour>
      <contour>
        <pt x="266" y="841" on="0"/>
        <pt x="266" y="791" on="0"/>
        <pt x="301" y="756" on="0"/>
        <pt x="351" y="756" on="0"/>
        <pt x="386" y="791" on="0"/>
        <pt x="386" y="841" on="0"/>
        <pt x="351" y="876" on="0"/>
        <pt x="301" y="876" on="0"/>
      </contour>
    </TTGlyph>
    <TTGlyph name="Atilde" xMin="14" yMin="-12" xMax="638" yMax="904">
      <contour>
        <pt x="519" y="-12" on="1"/>
        <pt x="432" y="-12" on="0"/>
        <pt x="425" y="16" on="1"/>
        <pt x="393" y="155" on="1"/>
        <pt x="234" y="155" on="1"/>
        <pt x="204" y="21" on="1"/>
        <pt x="198" y="-10" on="0"/>
        <pt x="108" y="-10" on="1"/>
        <pt x="60" y="-10" on="0"/>
        <pt x="14" y="1" on="0"/>
        <pt x="14" y="4" on="1"/>
        <pt x="192" y="691" on="1"/>
        <pt x="192" y="699" on="0"/>
        <pt x="466" y="699" on="0"/>
        <pt x="466" y="691" on="1"/>
        <pt x="638" y="3" on="1"/>
        <pt x="638" y="-4" on="0"/>
        <pt x="546" y="-12" on="0"/>
      </contour>
      <contour>
        <pt x="259" y="282" on="1"/>
        <pt x="364" y="282" on="1"/>
        <pt x="319" y="489" on="1"/>
        <pt x="313" y="489" on="1"/>
      </contour>
      <contour>
        <pt x="185" y="753" on="1"/>
        <pt x="166" y="758" on="0"/>
        <pt x="133" y="816" on="0"/>
        <pt x="133" y="834" on="0"/>
        <pt x="136" y="837" on="1"/>
        <pt x="199" y="900" on="0"/>
        <pt x="266" y="900" on="1"/>
        <pt x="297" y="900" on="0"/>
        <pt x="375" y="863" on="0"/>
        <pt x="396" y="863" on="1"/>
        <pt x="433" y="864" on="0"/>
        <pt x="465" y="902" on="1"/>
        <pt x="467" y="903" on="0"/>
        <pt x="470" y="903" on="1"/>
        <pt x="482" y="903" on="0"/>
        <pt x="524" y="847" on="0"/>
        <pt x="524" y="837" on="1"/>
        <pt x="524" y="808" on="0"/>
        <pt x="476" y="776" on="1"/>
        <pt x="445" y="754" on="0"/>
        <pt x="416" y="754" on="1"/>
        <pt x="412" y="754" on="0"/>
        <pt x="409" y="754" on="1"/>
        <pt x="371" y="754" on="0"/>
        <pt x="279" y="794" on="0"/>
        <pt x="258" y="794" on="0"/>
        <pt x="244" y="790" on="0"/>
        <pt x="233" y="787" on="0"/>
        <pt x="218" y="777" on="0"/>
        <pt x="210" y="772" on="0"/>
        <pt x="190" y="756" on="0"/>
      </contour>
    </TTGlyph>
    <TTGlyph name="B" xMin="61" yMin="0" xMax="566" yMax="700">
      <contour>
        <pt x="541" y="519" on="1"/>
        <pt x="541" y="415" on="0"/>
        <pt x="451" y="361" on="1"/>
        <pt x="500" y="343" on="0"/>
        <pt x="566" y="255" on="0"/>
        <pt x="566" y="94" on="0"/>
        <pt x="447" y="0" on="0"/>
        <pt x="336" y="0" on="1"/>
        <pt x="100" y="0" on="1"/>
        <pt x="83" y="0" on="0"/>
        <pt x="61" y="23" on="0"/>
        <pt x="61" y="42" on="1"/>
        <pt x="61" y="682" on="1"/>
        <pt x="61" y="693" on="0"/>
        <pt x="68" y="700" on="0"/>
        <pt x="79" y="700" on="1"/>
        <pt x="307" y="700" on="1"/>
        <pt x="541" y="700" on="0"/>
      </contour>
      <contour>
        <pt x="253" y="538" on="1"/>
        <pt x="253" y="407" on="1"/>
        <pt x="258" y="407" on="1"/>
        <pt x="354" y="407" on="0"/>
        <pt x="354" y="471" on="1"/>
        <pt x="354" y="506" on="0"/>
        <pt x="317" y="538" on="0"/>
        <pt x="274" y="538" on="1"/>
      </contour>
      <contour>
        <pt x="253" y="289" on="1"/>
        <pt x="253" y="159" on="1"/>
        <pt x="271" y="159" on="1"/>
        <pt x="314" y="159" on="0"/>
        <pt x="354" y="191" on="0"/>
        <pt x="354" y="261" on="0"/>
        <pt x="317" y="289" on="0"/>
        <pt x="274" y="289" on="1"/>
      </contour>
    </TTGlyph>
    <TTGlyph name="C" xMin="30" yMin="-10" xMax="534" yMax="709">
      <contour>
        <pt x="409" y="709" on="0"/>
        <pt x="520" y="668" on="0"/>
        <pt x="520" y="598" on="0"/>
        <pt x="467" y="495" on="0"/>
        <pt x="449" y="495" on="1"/>
        <pt x="444" y="495" on="0"/>
        <pt x="431" y="506" on="0"/>
        <pt x="384" y="519" on="0"/>
        <pt x="367" y="519" on="1"/>
        <pt x="309" y="519" on="0"/>
        <pt x="238" y="437" on="0"/>
        <pt x="238" y="268" on="0"/>
        <pt x="311" y="186" on="0"/>
        <pt x="367" y="186" on="1"/>
        <pt x="390" y="186" on="0"/>
        <pt x="447" y="199" on="0"/>
        <pt x="459" y="211" on="1"/>
        <pt x="461" y="213" on="0"/>
        <pt x="473" y="213" on="0"/>
        <pt x="506" y="168" on="0"/>
        <pt x="534" y="95" on="0"/>
        <pt x="534" y="75" on="1"/>
        <pt x="534" y="36" on="0"/>
        <pt x="414" y="-10" on="0"/>
        <pt x="332" y="-10" on="1"/>
        <pt x="200" y="-10" on="0"/>
        <pt x="30" y="176" on="0"/>
        <pt x="30" y="515" on="0"/>
        <pt x="205" y="709" on="0"/>
        <pt x="336" y="709" on="1"/>
      </contour>
    </TTGlyph>
    <TTGlyph name="Ccedilla" xMin="15" yMin="-180" xMax="519" yMax="709">
      <contour>
        <pt x="374" y="-114" on="1"/>
        <pt x="374" y="-180" on="0"/>
        <pt x="276" y="-180" on="1"/>
        <pt x="231" y="-180" on="0"/>
        <pt x="198" y="-164" on="1"/>
        <pt x="181" y="-159" on="0"/>
        <pt x="181" y="-133" on="1"/>
        <pt x="181" y="-126" on="0"/>
        <pt x="182" y="-117" on="1"/>
        <pt x="188" y="-76" on="0"/>
        <pt x="209" y="-76" on="1"/>
        <pt x="242" y="-76" on="1"/>
        <pt x="263" y="-76" on="0"/>
        <pt x="275" y="-65" on="0"/>
        <pt x="275" y="-44" on="1"/>
        <pt x="275" y="-7" on="1"/>
        <pt x="159" y="8" on="0"/>
        <pt x="15" y="190" on="0"/>
        <pt x="15" y="515" on="0"/>
        <pt x="190" y="709" on="0"/>
        <pt x="321" y="709" on="1"/>
        <pt x="394" y="709" on="0"/>
        <pt x="505" y="668" on="0"/>
        <pt x="505" y="598" on="0"/>
        <pt x="452" y="495" on="0"/>
        <pt x="434" y="495" on="1"/>
        <pt x="429" y="495" on="0"/>
        <pt x="416" y="506" on="0"/>
        <pt x="369" y="519" on="0"/>
        <pt x="352" y="519" on="1"/>
        <pt x="294" y="519" on="0"/>
        <pt x="223" y="437" on="0"/>
        <pt x="223" y="268" on="0"/>
        <pt x="296" y="186" on="0"/>
        <pt x="352" y="186" on="1"/>
        <pt x="375" y="186" on="0"/>
        <pt x="432" y="199" on="0"/>
        <pt x="444" y="211" on="1"/>
        <pt x="446" y="213" on="0"/>
        <pt x="458" y="213" on="0"/>
        <pt x="491" y="168" on="0"/>
        <pt x="519" y="95" on="0"/>
        <pt x="519" y="75" on="1"/>
        <pt x="519" y="40" on="0"/>
        <pt x="419" y="-5" on="0"/>
        <pt x="345" y="-9" on="1"/>
        <pt x="374" y="-78" on="0"/>
      </contour>
    </TTGlyph>
    <TTGlyph name="D" xMin="50" yMin="0" xMax="586" yMax="700">
      <contour>
        <pt x="50" y="46" on="1"/>
        <pt x="50" y="646" on="1"/>
        <pt x="50" y="671" on="0"/>
        <pt x="75" y="700" on="0"/>
        <pt x="95" y="700" on="1"/>
        <pt x="262" y="700" on="1"/>
        <pt x="421" y="700" on="0"/>
        <pt x="586" y="540" on="0"/>
        <pt x="586" y="368" on="1"/>
        <pt x="586" y="0" on="0"/>
        <pt x="272" y="0" on="1"/>
        <pt x="101" y="0" on="1"/>
        <pt x="50" y="0" on="0"/>
      </contour>
      <contour>
        <pt x="242" y="510" on="1"/>
        <pt x="242" y="211" on="1"/>
        <pt x="242" y="190" on="0"/>
        <pt x="248" y="179" on="0"/>
        <pt x="263" y="179" on="1"/>
        <pt x="318" y="179" on="0"/>
        <pt x="375" y="261" on="0"/>
        <pt x="375" y="452" on="0"/>
        <pt x="316" y="510" on="0"/>
        <pt x="252" y="510" on="1"/>
      </contour>
    </TTGlyph>
    <TTGlyph name="E" xMin="50" yMin="0" xMax="456" yMax="700">
      <contour>
        <pt x="375" y="422" on="1"/>
        <pt x="394" y="422" on="0"/>
        <pt x="394" y="352" on="1"/>
        <pt x="394" y="331" on="0"/>
        <pt x="385" y="274" on="0"/>
        <pt x="373" y="274" on="1"/>
        <pt x="246" y="274" on="1"/>
        <pt x="246" y="174" on="1"/>
        <pt x="430" y="174" on="1"/>
        <pt x="447" y="174" on="0"/>
        <pt x="453" y="130" on="1"/>
        <pt x="456" y="111" on="0"/>
        <pt x="456" y="68" on="0"/>
        <pt x="444" y="0" on="0"/>
        <pt x="430" y="0" on="1"/>
        <pt x="88" y="0" on="1"/>
        <pt x="50" y="0" on="0"/>
        <pt x="50" y="31" on="1"/>
        <pt x="50" y="674" on="1"/>
        <pt x="50" y="700" on="0"/>
        <pt x="73" y="700" on="1"/>
        <pt x="431" y="700" on="1"/>
        <pt x="452" y="700" on="0"/>
        <pt x="452" y="523" on="0"/>
        <pt x="431" y="523" on="1"/>
        <pt x="246" y="523" on="1"/>
        <pt x="246" y="422" on="1"/>
      </contour>
    </TTGlyph>
    <TTGlyph name="Eacute" xMin="45" yMin="0" xMax="451" yMax="911">
      <contour>
        <pt x="175" y="729" on="1"/>
        <pt x="166" y="729" on="0"/>
        <pt x="152" y="749" on="1"/>
        <pt x="134" y="777" on="0"/>
        <pt x="134" y="815" on="0"/>
        <pt x="140" y="821" on="1"/>
        <pt x="303" y="911" on="0"/>
        <pt x="306" y="911" on="1"/>
        <pt x="316" y="911" on="0"/>
        <pt x="331" y="887" on="1"/>
        <pt x="354" y="852" on="0"/>
        <pt x="354" y="821" on="1"/>
        <pt x="354" y="810" on="0"/>
        <pt x="349" y="805" on="1"/>
        <pt x="177" y="729" on="0"/>
      </contour>
      <contour>
        <pt x="370" y="422" on="1"/>
        <pt x="389" y="422" on="0"/>
        <pt x="389" y="352" on="1"/>
        <pt x="389" y="331" on="0"/>
        <pt x="380" y="274" on="0"/>
        <pt x="368" y="274" on="1"/>
        <pt x="241" y="274" on="1"/>
        <pt x="241" y="174" on="1"/>
        <pt x="425" y="174" on="1"/>
        <pt x="442" y="174" on="0"/>
        <pt x="448" y="130" on="1"/>
        <pt x="451" y="111" on="0"/>
        <pt x="451" y="68" on="0"/>
        <pt x="439" y="0" on="0"/>
        <pt x="425" y="0" on="1"/>
        <pt x="83" y="0" on="1"/>
        <pt x="45" y="0" on="0"/>
        <pt x="45" y="31" on="1"/>
        <pt x="45" y="674" on="1"/>
        <pt x="45" y="700" on="0"/>
        <pt x="68" y="700" on="1"/>
        <pt x="426" y="700" on="1"/>
        <pt x="447" y="700" on="0"/>
        <pt x="447" y="523" on="0"/>
        <pt x="426" y="523" on="1"/>
        <pt x="241" y="523" on="1"/>
        <pt x="241" y="422" on="1"/>
      </contour>
    </TTGlyph>
    <TTGlyph name="Ecircumflex" xMin="45" yMin="0" xMax="451" yMax="909">
      <contour>
        <pt x="117" y="724" on="1"/>
        <pt x="108" y="724" on="0"/>
        <pt x="93" y="746" on="1"/>
        <pt x="73" y="776" on="0"/>
        <pt x="73" y="816" on="0"/>
        <pt x="79" y="821" on="1"/>
        <pt x="233" y="905" on="1"/>
        <pt x="240" y="909" on="0"/>
        <pt x="248" y="909" on="0"/>
        <pt x="255" y="905" on="1"/>
        <pt x="409" y="821" on="1"/>
        <pt x="415" y="816" on="0"/>
        <pt x="415" y="807" on="1"/>
        <pt x="415" y="776" on="0"/>
        <pt x="381" y="724" on="0"/>
        <pt x="372" y="724" on="1"/>
        <pt x="370" y="724" on="0"/>
        <pt x="244" y="798" on="1"/>
        <pt x="119" y="724" on="0"/>
      </contour>
      <contour>
        <pt x="370" y="422" on="1"/>
        <pt x="389" y="422" on="0"/>
        <pt x="389" y="352" on="1"/>
        <pt x="389" y="331" on="0"/>
        <pt x="380" y="274" on="0"/>
        <pt x="368" y="274" on="1"/>
        <pt x="241" y="274" on="1"/>
        <pt x="241" y="174" on="1"/>
        <pt x="425" y="174" on="1"/>
        <pt x="442" y="174" on="0"/>
        <pt x="448" y="130" on="1"/>
        <pt x="451" y="111" on="0"/>
        <pt x="451" y="68" on="0"/>
        <pt x="439" y="0" on="0"/>
        <pt x="425" y="0" on="1"/>
        <pt x="83" y="0" on="1"/>
        <pt x="45" y="0" on="0"/>
        <pt x="45" y="31" on="1"/>
        <pt x="45" y="674" on="1"/>
        <pt x="45" y="700" on="0"/>
        <pt x="68" y="700" on="1"/>
        <pt x="426" y="700" on="1"/>
        <pt x="447" y="700" on="0"/>
        <pt x="447" y="523" on="0"/>
        <pt x="426" y="523" on="1"/>
        <pt x="241" y="523" on="1"/>
        <pt x="241" y="422" on="1"/>
      </contour>
    </TTGlyph>
    <TTGlyph name="Edieresis" xMin="45" yMin="0" xMax="451" yMax="901">
      <contour>
        <pt x="198" y="752" on="1"/>
        <pt x="198" y="746" on="0"/>
        <pt x="59" y="746" on="0"/>
        <pt x="59" y="751" on="1"/>
        <pt x="59" y="891" on="1"/>
        <pt x="59" y="900" on="0"/>
        <pt x="198" y="900" on="0"/>
        <pt x="198" y="895" on="1"/>
      </contour>
      <contour>
        <pt x="428" y="752" on="1"/>
        <pt x="428" y="746" on="0"/>
        <pt x="289" y="746" on="0"/>
        <pt x="289" y="751" on="1"/>
        <pt x="289" y="891" on="1"/>
        <pt x="289" y="900" on="0"/>
        <pt x="428" y="900" on="0"/>
        <pt x="428" y="895" on="1"/>
      </contour>
      <contour>
        <pt x="370" y="422" on="1"/>
        <pt x="389" y="422" on="0"/>
        <pt x="389" y="352" on="1"/>
        <pt x="389" y="331" on="0"/>
        <pt x="380" y="274" on="0"/>
        <pt x="368" y="274" on="1"/>
        <pt x="241" y="274" on="1"/>
        <pt x="241" y="174" on="1"/>
        <pt x="425" y="174" on="1"/>
        <pt x="442" y="174" on="0"/>
        <pt x="448" y="130" on="1"/>
        <pt x="451" y="111" on="0"/>
        <pt x="451" y="68" on="0"/>
        <pt x="439" y="0" on="0"/>
        <pt x="425" y="0" on="1"/>
        <pt x="83" y="0" on="1"/>
        <pt x="45" y="0" on="0"/>
        <pt x="45" y="31" on="1"/>
        <pt x="45" y="674" on="1"/>
        <pt x="45" y="700" on="0"/>
        <pt x="68" y="700" on="1"/>
        <pt x="426" y="700" on="1"/>
        <pt x="447" y="700" on="0"/>
        <pt x="447" y="523" on="0"/>
        <pt x="426" y="523" on="1"/>
        <pt x="241" y="523" on="1"/>
        <pt x="241" y="422" on="1"/>
      </contour>
    </TTGlyph>
    <TTGlyph name="Egrave" xMin="45" yMin="0" xMax="451" yMax="911">
      <contour>
        <pt x="311" y="729" on="0"/>
        <pt x="139" y="805" on="1"/>
        <pt x="134" y="810" on="0"/>
        <pt x="134" y="819" on="1"/>
        <pt x="134" y="852" on="0"/>
        <pt x="172" y="911" on="0"/>
        <pt x="182" y="911" on="1"/>
        <pt x="185" y="911" on="0"/>
        <pt x="348" y="821" on="1"/>
        <pt x="354" y="815" on="0"/>
        <pt x="354" y="807" on="1"/>
        <pt x="354" y="777" on="0"/>
        <pt x="322" y="729" on="0"/>
        <pt x="313" y="729" on="1"/>
      </contour>
      <contour>
        <pt x="370" y="422" on="1"/>
        <pt x="389" y="422" on="0"/>
        <pt x="389" y="352" on="1"/>
        <pt x="389" y="331" on="0"/>
        <pt x="380" y="274" on="0"/>
        <pt x="368" y="274" on="1"/>
        <pt x="241" y="274" on="1"/>
        <pt x="241" y="174" on="1"/>
        <pt x="425" y="174" on="1"/>
        <pt x="442" y="174" on="0"/>
        <pt x="448" y="130" on="1"/>
        <pt x="451" y="111" on="0"/>
        <pt x="451" y="68" on="0"/>
        <pt x="439" y="0" on="0"/>
        <pt x="425" y="0" on="1"/>
        <pt x="83" y="0" on="1"/>
        <pt x="45" y="0" on="0"/>
        <pt x="45" y="31" on="1"/>
        <pt x="45" y="674" on="1"/>
        <pt x="45" y="700" on="0"/>
        <pt x="68" y="700" on="1"/>
        <pt x="426" y="700" on="1"/>
        <pt x="447" y="700" on="0"/>
        <pt x="447" y="523" on="0"/>
        <pt x="426" y="523" on="1"/>
        <pt x="241" y="523" on="1"/>
        <pt x="241" y="422" on="1"/>
      </contour>
    </TTGlyph>
    <TTGlyph name="Eth" xMin="-13" yMin="0" xMax="596" yMax="700">
      <contour>
        <pt x="60" y="26" on="1"/>
        <pt x="60" y="300" on="1"/>
        <pt x="17" y="300" on="1"/>
        <pt x="-1" y="300" on="0"/>
        <pt x="-9" y="329" on="1"/>
        <pt x="-13" y="344" on="0"/>
        <pt x="-13" y="372" on="0"/>
        <pt x="-9" y="387" on="1"/>
        <pt x="-1" y="416" on="0"/>
        <pt x="17" y="416" on="1"/>
        <pt x="60" y="416" on="1"/>
        <pt x="60" y="678" on="1"/>
        <pt x="60" y="700" on="0"/>
        <pt x="77" y="700" on="1"/>
        <pt x="272" y="700" on="1"/>
        <pt x="431" y="700" on="0"/>
        <pt x="596" y="540" on="0"/>
        <pt x="596" y="368" on="1"/>
        <pt x="596" y="0" on="0"/>
        <pt x="282" y="0" on="1"/>
        <pt x="84" y="0" on="1"/>
        <pt x="60" y="0" on="0"/>
      </contour>
      <contour>
        <pt x="290" y="300" on="1"/>
        <pt x="242" y="300" on="1"/>
        <pt x="242" y="221" on="1"/>
        <pt x="242" y="200" on="0"/>
        <pt x="249" y="189" on="0"/>
        <pt x="263" y="189" on="1"/>
        <pt x="334" y="189" on="0"/>
        <pt x="395" y="269" on="0"/>
        <pt x="395" y="461" on="0"/>
        <pt x="329" y="520" on="0"/>
        <pt x="262" y="520" on="1"/>
        <pt x="242" y="520" on="1"/>
        <pt x="242" y="416" on="1"/>
        <pt x="290" y="416" on="1"/>
        <pt x="308" y="416" on="0"/>
        <pt x="316" y="387" on="1"/>
        <pt x="320" y="372" on="0"/>
        <pt x="320" y="344" on="0"/>
        <pt x="316" y="329" on="1"/>
        <pt x="308" y="300" on="0"/>
      </contour>
    </TTGlyph>
    <TTGlyph name="Euro" xMin="54" yMin="-8" xMax="544" yMax="708">
      <contour>
        <pt x="532" y="634" on="1"/>
        <pt x="532" y="614" on="0"/>
        <pt x="508" y="539" on="0"/>
        <pt x="477" y="489" on="0"/>
        <pt x="467" y="489" on="1"/>
        <pt x="464" y="489" on="0"/>
        <pt x="461" y="491" on="1"/>
        <pt x="432" y="512" on="0"/>
        <pt x="365" y="512" on="1"/>
        <pt x="276" y="512" on="0"/>
        <pt x="240" y="442" on="1"/>
        <pt x="418" y="442" on="1"/>
        <pt x="432" y="442" on="0"/>
        <pt x="438" y="426" on="1"/>
        <pt x="440" y="418" on="0"/>
        <pt x="440" y="402" on="0"/>
        <pt x="438" y="394" on="1"/>
        <pt x="432" y="378" on="0"/>
        <pt x="418" y="378" on="1"/>
        <pt x="227" y="378" on="1"/>
        <pt x="227" y="342" on="0"/>
        <pt x="229" y="332" on="1"/>
        <pt x="418" y="332" on="1"/>
        <pt x="432" y="332" on="0"/>
        <pt x="442" y="308" on="0"/>
        <pt x="442" y="292" on="0"/>
        <pt x="439" y="284" on="1"/>
        <pt x="433" y="268" on="0"/>
        <pt x="418" y="268" on="1"/>
        <pt x="247" y="268" on="1"/>
        <pt x="297" y="190" on="0"/>
        <pt x="380" y="190" on="1"/>
        <pt x="404" y="190" on="0"/>
        <pt x="462" y="205" on="0"/>
        <pt x="479" y="218" on="0"/>
        <pt x="481" y="218" on="1"/>
        <pt x="489" y="218" on="0"/>
        <pt x="518" y="168" on="0"/>
        <pt x="544" y="94" on="0"/>
        <pt x="544" y="77" on="1"/>
        <pt x="544" y="38" on="0"/>
        <pt x="432" y="-8" on="0"/>
        <pt x="355" y="-8" on="1"/>
        <pt x="227" y="-8" on="0"/>
        <pt x="54" y="186" on="0"/>
        <pt x="54" y="517" on="0"/>
        <pt x="225" y="708" on="0"/>
        <pt x="357" y="708" on="1"/>
        <pt x="426" y="708" on="0"/>
        <pt x="532" y="667" on="0"/>
      </contour>
    </TTGlyph>
    <TTGlyph name="F" xMin="45" yMin="-11" xMax="442" yMax="700">
      <contour>
        <pt x="424" y="700" on="1"/>
        <pt x="441" y="700" on="0"/>
        <pt x="441" y="523" on="0"/>
        <pt x="424" y="523" on="1"/>
        <pt x="241" y="523" on="1"/>
        <pt x="241" y="409" on="1"/>
        <pt x="363" y="409" on="1"/>
        <pt x="380" y="409" on="0"/>
        <pt x="380" y="254" on="0"/>
        <pt x="364" y="254" on="1"/>
        <pt x="241" y="254" on="1"/>
        <pt x="241" y="13" on="1"/>
        <pt x="241" y="-1" on="0"/>
        <pt x="166" y="-10" on="0"/>
        <pt x="141" y="-10" on="1"/>
        <pt x="94" y="-8" on="1"/>
        <pt x="45" y="-2" on="0"/>
        <pt x="45" y="12" on="1"/>
        <pt x="45" y="674" on="1"/>
        <pt x="45" y="690" on="0"/>
        <pt x="58" y="700" on="0"/>
        <pt x="71" y="700" on="1"/>
      </contour>
    </TTGlyph>
    <TTGlyph name="G" xMin="30" yMin="-10" xMax="576" yMax="709">
      <contour>
        <pt x="420" y="209" on="1"/>
        <pt x="422" y="345" on="1"/>
        <pt x="422" y="359" on="0"/>
        <pt x="480" y="368" on="0"/>
        <pt x="499" y="368" on="1"/>
        <pt x="538" y="365" on="1"/>
        <pt x="576" y="359" on="0"/>
        <pt x="576" y="344" on="1"/>
        <pt x="572" y="31" on="1"/>
        <pt x="552" y="17" on="0"/>
        <pt x="431" y="-10" on="0"/>
        <pt x="353" y="-10" on="1"/>
        <pt x="208" y="-10" on="0"/>
        <pt x="30" y="178" on="0"/>
        <pt x="30" y="360" on="1"/>
        <pt x="30" y="515" on="0"/>
        <pt x="204" y="709" on="0"/>
        <pt x="358" y="709" on="1"/>
        <pt x="428" y="709" on="0"/>
        <pt x="541" y="682" on="0"/>
        <pt x="562" y="659" on="1"/>
        <pt x="563" y="651" on="0"/>
        <pt x="563" y="607" on="0"/>
        <pt x="533" y="526" on="0"/>
        <pt x="495" y="486" on="0"/>
        <pt x="478" y="486" on="0"/>
        <pt x="459" y="501" on="0"/>
        <pt x="403" y="518" on="0"/>
        <pt x="377" y="518" on="1"/>
        <pt x="315" y="518" on="0"/>
        <pt x="238" y="438" on="0"/>
        <pt x="238" y="270" on="0"/>
        <pt x="317" y="183" on="0"/>
        <pt x="420" y="183" on="0"/>
      </contour>
    </TTGlyph>
    <TTGlyph name="H" xMin="50" yMin="-1" xMax="594" yMax="701">
      <contour>
        <pt x="594" y="17" on="1"/>
        <pt x="594" y="0" on="0"/>
        <pt x="392" y="0" on="0"/>
        <pt x="392" y="17" on="1"/>
        <pt x="392" y="247" on="1"/>
        <pt x="252" y="247" on="1"/>
        <pt x="252" y="17" on="1"/>
        <pt x="252" y="0" on="0"/>
        <pt x="50" y="0" on="0"/>
        <pt x="50" y="17" on="1"/>
        <pt x="50" y="680" on="1"/>
        <pt x="50" y="701" on="0"/>
        <pt x="252" y="701" on="0"/>
        <pt x="252" y="680" on="1"/>
        <pt x="252" y="445" on="1"/>
        <pt x="392" y="445" on="1"/>
        <pt x="392" y="678" on="1"/>
        <pt x="392" y="692" on="0"/>
        <pt x="442" y="698" on="1"/>
        <pt x="468" y="700" on="0"/>
        <pt x="493" y="700" on="1"/>
        <pt x="544" y="698" on="1"/>
        <pt x="594" y="692" on="0"/>
        <pt x="594" y="678" on="1"/>
      </contour>
    </TTGlyph>
    <TTGlyph name="I" xMin="17" yMin="0" xMax="412" yMax="700">
      <contour>
        <pt x="116" y="172" on="1"/>
        <pt x="116" y="528" on="1"/>
        <pt x="45" y="528" on="1"/>
        <pt x="28" y="528" on="0"/>
        <pt x="21" y="571" on="1"/>
        <pt x="18" y="592" on="0"/>
        <pt x="18" y="636" on="0"/>
        <pt x="21" y="657" on="1"/>
        <pt x="28" y="700" on="0"/>
        <pt x="45" y="700" on="1"/>
        <pt x="381" y="700" on="1"/>
        <pt x="398" y="700" on="0"/>
        <pt x="404" y="657" on="1"/>
        <pt x="408" y="636" on="0"/>
        <pt x="408" y="592" on="0"/>
        <pt x="404" y="571" on="1"/>
        <pt x="398" y="528" on="0"/>
        <pt x="381" y="528" on="1"/>
        <pt x="314" y="528" on="1"/>
        <pt x="314" y="172" on="1"/>
        <pt x="384" y="172" on="1"/>
        <pt x="401" y="172" on="0"/>
        <pt x="408" y="129" on="1"/>
        <pt x="412" y="108" on="0"/>
        <pt x="412" y="64" on="0"/>
        <pt x="408" y="43" on="1"/>
        <pt x="401" y="0" on="0"/>
        <pt x="384" y="0" on="1"/>
        <pt x="47" y="0" on="1"/>
        <pt x="30" y="0" on="0"/>
        <pt x="24" y="43" on="1"/>
        <pt x="20" y="64" on="0"/>
        <pt x="20" y="108" on="0"/>
        <pt x="24" y="129" on="1"/>
        <pt x="30" y="172" on="0"/>
        <pt x="47" y="172" on="1"/>
      </contour>
    </TTGlyph>
    <TTGlyph name="Iacute" xMin="18" yMin="0" xMax="413" yMax="911">
      <contour>
        <pt x="117" y="172" on="1"/>
        <pt x="117" y="528" on="1"/>
        <pt x="46" y="528" on="1"/>
        <pt x="29" y="528" on="0"/>
        <pt x="22" y="571" on="1"/>
        <pt x="18" y="592" on="0"/>
        <pt x="18" y="636" on="0"/>
        <pt x="22" y="657" on="1"/>
        <pt x="29" y="700" on="0"/>
        <pt x="46" y="700" on="1"/>
        <pt x="382" y="700" on="1"/>
        <pt x="399" y="700" on="0"/>
        <pt x="406" y="657" on="1"/>
        <pt x="409" y="636" on="0"/>
        <pt x="409" y="592" on="0"/>
        <pt x="406" y="571" on="1"/>
        <pt x="399" y="528" on="0"/>
        <pt x="382" y="528" on="1"/>
        <pt x="315" y="528" on="1"/>
        <pt x="315" y="172" on="1"/>
        <pt x="385" y="172" on="1"/>
        <pt x="402" y="172" on="0"/>
        <pt x="409" y="129" on="1"/>
        <pt x="412" y="108" on="0"/>
        <pt x="412" y="64" on="0"/>
        <pt x="409" y="43" on="1"/>
        <pt x="402" y="0" on="0"/>
        <pt x="385" y="0" on="1"/>
        <pt x="48" y="0" on="1"/>
        <pt x="31" y="0" on="0"/>
        <pt x="24" y="43" on="1"/>
        <pt x="21" y="64" on="0"/>
        <pt x="21" y="108" on="0"/>
        <pt x="24" y="129" on="1"/>
        <pt x="31" y="172" on="0"/>
        <pt x="48" y="172" on="1"/>
      </contour>
      <contour>
        <pt x="147" y="729" on="1"/>
        <pt x="138" y="729" on="0"/>
        <pt x="124" y="749" on="1"/>
        <pt x="106" y="777" on="0"/>
        <pt x="106" y="815" on="0"/>
        <pt x="112" y="821" on="1"/>
        <pt x="275" y="911" on="0"/>
        <pt x="278" y="911" on="1"/>
        <pt x="288" y="911" on="0"/>
        <pt x="303" y="887" on="1"/>
        <pt x="326" y="852" on="0"/>
        <pt x="326" y="821" on="1"/>
        <pt x="326" y="810" on="0"/>
        <pt x="321" y="805" on="1"/>
        <pt x="149" y="729" on="0"/>
      </contour>
    </TTGlyph>
    <TTGlyph name="Icircumflex" xMin="18" yMin="0" xMax="413" yMax="909">
      <contour>
        <pt x="117" y="172" on="1"/>
        <pt x="117" y="528" on="1"/>
        <pt x="46" y="528" on="1"/>
        <pt x="29" y="528" on="0"/>
        <pt x="22" y="571" on="1"/>
        <pt x="18" y="592" on="0"/>
        <pt x="18" y="636" on="0"/>
        <pt x="22" y="657" on="1"/>
        <pt x="29" y="700" on="0"/>
        <pt x="46" y="700" on="1"/>
        <pt x="382" y="700" on="1"/>
        <pt x="399" y="700" on="0"/>
        <pt x="406" y="657" on="1"/>
        <pt x="409" y="636" on="0"/>
        <pt x="409" y="592" on="0"/>
        <pt x="406" y="571" on="1"/>
        <pt x="399" y="528" on="0"/>
        <pt x="382" y="528" on="1"/>
        <pt x="315" y="528" on="1"/>
        <pt x="315" y="172" on="1"/>
        <pt x="385" y="172" on="1"/>
        <pt x="402" y="172" on="0"/>
        <pt x="409" y="129" on="1"/>
        <pt x="412" y="108" on="0"/>
        <pt x="412" y="64" on="0"/>
        <pt x="409" y="43" on="1"/>
        <pt x="402" y="0" on="0"/>
        <pt x="385" y="0" on="1"/>
        <pt x="48" y="0" on="1"/>
        <pt x="31" y="0" on="0"/>
        <pt x="24" y="43" on="1"/>
        <pt x="21" y="64" on="0"/>
        <pt x="21" y="108" on="0"/>
        <pt x="24" y="129" on="1"/>
        <pt x="31" y="172" on="0"/>
        <pt x="48" y="172" on="1"/>
      </contour>
      <contour>
        <pt x="89" y="724" on="1"/>
        <pt x="80" y="724" on="0"/>
        <pt x="65" y="746" on="1"/>
        <pt x="45" y="776" on="0"/>
        <pt x="45" y="816" on="0"/>
        <pt x="51" y="821" on="1"/>
        <pt x="205" y="905" on="1"/>
        <pt x="212" y="909" on="0"/>
        <pt x="220" y="909" on="0"/>
        <pt x="227" y="905" on="1"/>
        <pt x="381" y="821" on="1"/>
        <pt x="387" y="816" on="0"/>
        <pt x="387" y="807" on="1"/>
        <pt x="387" y="776" on="0"/>
        <pt x="353" y="724" on="0"/>
        <pt x="344" y="724" on="1"/>
        <pt x="342" y="724" on="0"/>
        <pt x="216" y="798" on="1"/>
        <pt x="91" y="724" on="0"/>
      </contour>
    </TTGlyph>
    <TTGlyph name="Idieresis" xMin="18" yMin="0" xMax="413" yMax="901">
      <contour>
        <pt x="171" y="752" on="1"/>
        <pt x="171" y="746" on="0"/>
        <pt x="32" y="746" on="0"/>
        <pt x="32" y="751" on="1"/>
        <pt x="32" y="891" on="1"/>
        <pt x="32" y="900" on="0"/>
        <pt x="171" y="900" on="0"/>
        <pt x="171" y="895" on="1"/>
      </contour>
      <contour>
        <pt x="401" y="752" on="1"/>
        <pt x="401" y="746" on="0"/>
        <pt x="262" y="746" on="0"/>
        <pt x="262" y="751" on="1"/>
        <pt x="262" y="891" on="1"/>
        <pt x="262" y="900" on="0"/>
        <pt x="401" y="900" on="0"/>
        <pt x="401" y="895" on="1"/>
      </contour>
      <contour>
        <pt x="117" y="172" on="1"/>
        <pt x="117" y="528" on="1"/>
        <pt x="46" y="528" on="1"/>
        <pt x="29" y="528" on="0"/>
        <pt x="22" y="571" on="1"/>
        <pt x="18" y="592" on="0"/>
        <pt x="18" y="636" on="0"/>
        <pt x="22" y="657" on="1"/>
        <pt x="29" y="700" on="0"/>
        <pt x="46" y="700" on="1"/>
        <pt x="382" y="700" on="1"/>
        <pt x="399" y="700" on="0"/>
        <pt x="406" y="657" on="1"/>
        <pt x="409" y="636" on="0"/>
        <pt x="409" y="592" on="0"/>
        <pt x="406" y="571" on="1"/>
        <pt x="399" y="528" on="0"/>
        <pt x="382" y="528" on="1"/>
        <pt x="315" y="528" on="1"/>
        <pt x="315" y="172" on="1"/>
        <pt x="385" y="172" on="1"/>
        <pt x="402" y="172" on="0"/>
        <pt x="409" y="129" on="1"/>
        <pt x="412" y="108" on="0"/>
        <pt x="412" y="64" on="0"/>
        <pt x="409" y="43" on="1"/>
        <pt x="402" y="0" on="0"/>
        <pt x="385" y="0" on="1"/>
        <pt x="48" y="0" on="1"/>
        <pt x="31" y="0" on="0"/>
        <pt x="24" y="43" on="1"/>
        <pt x="21" y="64" on="0"/>
        <pt x="21" y="108" on="0"/>
        <pt x="24" y="129" on="1"/>
        <pt x="31" y="172" on="0"/>
        <pt x="48" y="172" on="1"/>
      </contour>
    </TTGlyph>
    <TTGlyph name="Igrave" xMin="18" yMin="0" xMax="413" yMax="911">
      <contour>
        <pt x="117" y="172" on="1"/>
        <pt x="117" y="528" on="1"/>
        <pt x="46" y="528" on="1"/>
        <pt x="29" y="528" on="0"/>
        <pt x="22" y="571" on="1"/>
        <pt x="18" y="592" on="0"/>
        <pt x="18" y="636" on="0"/>
        <pt x="22" y="657" on="1"/>
        <pt x="29" y="700" on="0"/>
        <pt x="46" y="700" on="1"/>
        <pt x="382" y="700" on="1"/>
        <pt x="399" y="700" on="0"/>
        <pt x="406" y="657" on="1"/>
        <pt x="409" y="636" on="0"/>
        <pt x="409" y="592" on="0"/>
        <pt x="406" y="571" on="1"/>
        <pt x="399" y="528" on="0"/>
        <pt x="382" y="528" on="1"/>
        <pt x="315" y="528" on="1"/>
        <pt x="315" y="172" on="1"/>
        <pt x="385" y="172" on="1"/>
        <pt x="402" y="172" on="0"/>
        <pt x="409" y="129" on="1"/>
        <pt x="412" y="108" on="0"/>
        <pt x="412" y="64" on="0"/>
        <pt x="409" y="43" on="1"/>
        <pt x="402" y="0" on="0"/>
        <pt x="385" y="0" on="1"/>
        <pt x="48" y="0" on="1"/>
        <pt x="31" y="0" on="0"/>
        <pt x="24" y="43" on="1"/>
        <pt x="21" y="64" on="0"/>
        <pt x="21" y="108" on="0"/>
        <pt x="24" y="129" on="1"/>
        <pt x="31" y="172" on="0"/>
        <pt x="48" y="172" on="1"/>
      </contour>
      <contour>
        <pt x="111" y="805" on="1"/>
        <pt x="106" y="810" on="0"/>
        <pt x="106" y="819" on="1"/>
        <pt x="106" y="852" on="0"/>
        <pt x="144" y="911" on="0"/>
        <pt x="154" y="911" on="1"/>
        <pt x="157" y="911" on="0"/>
        <pt x="320" y="821" on="1"/>
        <pt x="326" y="815" on="0"/>
        <pt x="326" y="807" on="1"/>
        <pt x="326" y="777" on="0"/>
        <pt x="294" y="729" on="0"/>
        <pt x="285" y="729" on="1"/>
        <pt x="283" y="729" on="0"/>
      </contour>
    </TTGlyph>
    <TTGlyph name="J" xMin="9" yMin="-11" xMax="425" yMax="700">
      <contour>
        <pt x="9" y="90" on="1"/>
        <pt x="9" y="119" on="0"/>
        <pt x="43" y="196" on="0"/>
        <pt x="63" y="210" on="1"/>
        <pt x="101" y="182" on="0"/>
        <pt x="140" y="182" on="1"/>
        <pt x="171" y="187" on="1"/>
        <pt x="225" y="203" on="0"/>
        <pt x="227" y="273" on="1"/>
        <pt x="227" y="528" on="1"/>
        <pt x="147" y="528" on="1"/>
        <pt x="130" y="528" on="0"/>
        <pt x="123" y="571" on="1"/>
        <pt x="120" y="592" on="0"/>
        <pt x="120" y="636" on="0"/>
        <pt x="123" y="657" on="1"/>
        <pt x="130" y="700" on="0"/>
        <pt x="147" y="700" on="1"/>
        <pt x="385" y="700" on="1"/>
        <pt x="405" y="700" on="0"/>
        <pt x="425" y="677" on="0"/>
        <pt x="425" y="661" on="1"/>
        <pt x="425" y="189" on="1"/>
        <pt x="425" y="91" on="0"/>
        <pt x="294" y="-11" on="0"/>
        <pt x="111" y="-11" on="0"/>
        <pt x="9" y="43" on="0"/>
      </contour>
    </TTGlyph>
    <TTGlyph name="K" xMin="50" yMin="-7" xMax="619" yMax="704">
      <contour>
        <pt x="250" y="14" on="1"/>
        <pt x="250" y="-1" on="0"/>
        <pt x="156" y="-1" on="1"/>
        <pt x="100" y="2" on="1"/>
        <pt x="50" y="6" on="0"/>
        <pt x="50" y="16" on="1"/>
        <pt x="50" y="687" on="1"/>
        <pt x="50" y="704" on="0"/>
        <pt x="250" y="704" on="0"/>
        <pt x="250" y="687" on="1"/>
        <pt x="250" y="431" on="1"/>
        <pt x="372" y="687" on="1"/>
        <pt x="379" y="701" on="0"/>
        <pt x="452" y="701" on="1"/>
        <pt x="585" y="701" on="0"/>
        <pt x="592" y="678" on="1"/>
        <pt x="592" y="676" on="0"/>
        <pt x="591" y="674" on="1"/>
        <pt x="417" y="360" on="1"/>
        <pt x="619" y="81" on="1"/>
        <pt x="619" y="79" on="0"/>
        <pt x="600" y="64" on="1"/>
        <pt x="554" y="24" on="0"/>
        <pt x="492" y="1" on="1"/>
        <pt x="473" y="-6" on="0"/>
        <pt x="454" y="-6" on="1"/>
        <pt x="430" y="-4" on="1"/>
        <pt x="398" y="4" on="0"/>
        <pt x="380" y="37" on="1"/>
        <pt x="266" y="255" on="1"/>
        <pt x="250" y="255" on="1"/>
      </contour>
    </TTGlyph>
    <TTGlyph name="L" xMin="40" yMin="0" xMax="426" yMax="702">
      <contour>
        <pt x="40" y="59" on="1"/>
        <pt x="40" y="681" on="1"/>
        <pt x="40" y="702" on="0"/>
        <pt x="243" y="702" on="0"/>
        <pt x="243" y="681" on="1"/>
        <pt x="243" y="191" on="1"/>
        <pt x="397" y="191" on="1"/>
        <pt x="415" y="191" on="0"/>
        <pt x="422" y="144" on="1"/>
        <pt x="425" y="121" on="0"/>
        <pt x="425" y="73" on="0"/>
        <pt x="422" y="48" on="1"/>
        <pt x="414" y="0" on="0"/>
        <pt x="396" y="0" on="1"/>
        <pt x="88" y="0" on="1"/>
        <pt x="66" y="0" on="0"/>
        <pt x="40" y="36" on="0"/>
      </contour>
    </TTGlyph>
    <TTGlyph name="Lslash" xMin="5" yMin="0" xMax="452" yMax="710">
      <contour>
        <pt x="68" y="26" on="1"/>
        <pt x="68" y="292" on="1"/>
        <pt x="35" y="292" on="1"/>
        <pt x="17" y="292" on="0"/>
        <pt x="9" y="321" on="1"/>
        <pt x="5" y="336" on="0"/>
        <pt x="5" y="364" on="0"/>
        <pt x="9" y="379" on="1"/>
        <pt x="17" y="408" on="0"/>
        <pt x="35" y="408" on="1"/>
        <pt x="68" y="408" on="1"/>
        <pt x="68" y="685" on="1"/>
        <pt x="68" y="701" on="0"/>
        <pt x="118" y="707" on="1"/>
        <pt x="143" y="710" on="0"/>
        <pt x="167" y="710" on="1"/>
        <pt x="220" y="706" on="1"/>
        <pt x="270" y="700" on="0"/>
        <pt x="270" y="685" on="1"/>
        <pt x="270" y="408" on="1"/>
        <pt x="366" y="408" on="1"/>
        <pt x="384" y="408" on="0"/>
        <pt x="392" y="379" on="1"/>
        <pt x="396" y="364" on="0"/>
        <pt x="396" y="336" on="0"/>
        <pt x="392" y="321" on="1"/>
        <pt x="384" y="292" on="0"/>
        <pt x="366" y="292" on="1"/>
        <pt x="270" y="292" on="1"/>
        <pt x="270" y="167" on="1"/>
        <pt x="422" y="167" on="1"/>
        <pt x="440" y="167" on="0"/>
        <pt x="448" y="126" on="1"/>
        <pt x="452" y="103" on="0"/>
        <pt x="452" y="62" on="0"/>
        <pt x="448" y="42" on="1"/>
        <pt x="442" y="0" on="0"/>
        <pt x="424" y="0" on="1"/>
        <pt x="92" y="0" on="1"/>
        <pt x="76" y="0" on="0"/>
        <pt x="68" y="12" on="0"/>
      </contour>
    </TTGlyph>
    <TTGlyph name="M" xMin="50" yMin="-1" xMax="858" yMax="701">
      <contour>
        <pt x="750" y="-1" on="1"/>
        <pt x="661" y="-1" on="0"/>
        <pt x="661" y="19" on="1"/>
        <pt x="640" y="420" on="1"/>
        <pt x="518" y="14" on="1"/>
        <pt x="514" y="2" on="0"/>
        <pt x="386" y="2" on="0"/>
        <pt x="384" y="13" on="1"/>
        <pt x="258" y="424" on="1"/>
        <pt x="244" y="25" on="1"/>
        <pt x="243" y="10" on="0"/>
        <pt x="169" y="-1" on="0"/>
        <pt x="120" y="-1" on="0"/>
        <pt x="97" y="2" on="1"/>
        <pt x="49" y="9" on="0"/>
        <pt x="50" y="27" on="1"/>
        <pt x="73" y="677" on="1"/>
        <pt x="73" y="701" on="0"/>
        <pt x="195" y="701" on="1"/>
        <pt x="231" y="701" on="0"/>
        <pt x="335" y="690" on="0"/>
        <pt x="341" y="674" on="1"/>
        <pt x="453" y="359" on="1"/>
        <pt x="551" y="675" on="1"/>
        <pt x="560" y="701" on="0"/>
        <pt x="689" y="701" on="1"/>
        <pt x="726" y="701" on="0"/>
        <pt x="829" y="690" on="0"/>
        <pt x="829" y="676" on="1"/>
        <pt x="858" y="20" on="1"/>
        <pt x="858" y="9" on="0"/>
        <pt x="780" y="-1" on="0"/>
      </contour>
    </TTGlyph>
    <TTGlyph name="N" xMin="50" yMin="-1" xMax="598" yMax="701">
      <contour>
        <pt x="598" y="22" on="1"/>
        <pt x="598" y="1" on="0"/>
        <pt x="410" y="1" on="0"/>
        <pt x="402" y="16" on="1"/>
        <pt x="235" y="328" on="1"/>
        <pt x="235" y="17" on="1"/>
        <pt x="235" y="-1" on="0"/>
        <pt x="50" y="-1" on="0"/>
        <pt x="50" y="17" on="1"/>
        <pt x="50" y="686" on="1"/>
        <pt x="50" y="701" on="0"/>
        <pt x="129" y="701" on="1"/>
        <pt x="160" y="701" on="0"/>
        <pt x="243" y="690" on="0"/>
        <pt x="252" y="675" on="1"/>
        <pt x="412" y="367" on="1"/>
        <pt x="412" y="681" on="1"/>
        <pt x="412" y="700" on="0"/>
        <pt x="598" y="700" on="0"/>
        <pt x="598" y="681" on="1"/>
      </contour>
    </TTGlyph>
    <TTGlyph name="Ntilde" xMin="43" yMin="-10" xMax="591" yMax="904">
      <contour>
        <pt x="186" y="753" on="1"/>
        <pt x="167" y="758" on="0"/>
        <pt x="134" y="816" on="0"/>
        <pt x="134" y="834" on="0"/>
        <pt x="137" y="837" on="1"/>
        <pt x="200" y="900" on="0"/>
        <pt x="267" y="900" on="1"/>
        <pt x="298" y="900" on="0"/>
        <pt x="376" y="863" on="0"/>
        <pt x="397" y="863" on="1"/>
        <pt x="434" y="864" on="0"/>
        <pt x="466" y="902" on="1"/>
        <pt x="468" y="903" on="0"/>
        <pt x="471" y="903" on="1"/>
        <pt x="483" y="903" on="0"/>
        <pt x="525" y="847" on="0"/>
        <pt x="525" y="837" on="1"/>
        <pt x="525" y="808" on="0"/>
        <pt x="478" y="776" on="1"/>
        <pt x="446" y="754" on="0"/>
        <pt x="417" y="754" on="1"/>
        <pt x="413" y="754" on="0"/>
        <pt x="410" y="754" on="1"/>
        <pt x="372" y="754" on="0"/>
        <pt x="280" y="794" on="0"/>
        <pt x="259" y="794" on="0"/>
        <pt x="245" y="790" on="0"/>
        <pt x="234" y="787" on="0"/>
        <pt x="219" y="777" on="0"/>
        <pt x="211" y="772" on="0"/>
        <pt x="191" y="756" on="0"/>
      </contour>
      <contour>
        <pt x="591" y="12" on="1"/>
        <pt x="591" y="-9" on="0"/>
        <pt x="408" y="-9" on="0"/>
        <pt x="400" y="6" on="1"/>
        <pt x="228" y="328" on="1"/>
        <pt x="228" y="11" on="1"/>
        <pt x="228" y="-7" on="0"/>
        <pt x="43" y="-7" on="0"/>
        <pt x="43" y="11" on="1"/>
        <pt x="43" y="696" on="1"/>
        <pt x="43" y="711" on="0"/>
        <pt x="120" y="711" on="1"/>
        <pt x="150" y="711" on="0"/>
        <pt x="231" y="700" on="0"/>
        <pt x="240" y="685" on="1"/>
        <pt x="405" y="367" on="1"/>
        <pt x="405" y="687" on="1"/>
        <pt x="405" y="706" on="0"/>
        <pt x="591" y="706" on="0"/>
        <pt x="591" y="687" on="1"/>
      </contour>
    </TTGlyph>
    <TTGlyph name="O" xMin="30" yMin="-10" xMax="666" yMax="709">
      <contour>
        <pt x="207" y="-10" on="0"/>
        <pt x="30" y="174" on="0"/>
        <pt x="30" y="527" on="0"/>
        <pt x="209" y="709" on="0"/>
        <pt x="492" y="709" on="0"/>
        <pt x="666" y="530" on="0"/>
        <pt x="666" y="167" on="0"/>
        <pt x="488" y="-10" on="0"/>
      </contour>
      <contour>
        <pt x="300" y="517" on="0"/>
        <pt x="235" y="429" on="0"/>
        <pt x="235" y="270" on="0"/>
        <pt x="297" y="185" on="0"/>
        <pt x="398" y="185" on="0"/>
        <pt x="461" y="271" on="0"/>
        <pt x="461" y="431" on="0"/>
        <pt x="396" y="517" on="0"/>
      </contour>
    </TTGlyph>
    <TTGlyph name="OE" xMin="30" yMin="-14" xMax="816" yMax="711">
      <contour>
        <pt x="735" y="424" on="1"/>
        <pt x="754" y="424" on="0"/>
        <pt x="754" y="354" on="1"/>
        <pt x="754" y="333" on="0"/>
        <pt x="745" y="276" on="0"/>
        <pt x="733" y="276" on="1"/>
        <pt x="604" y="276" on="1"/>
        <pt x="604" y="176" on="1"/>
        <pt x="790" y="176" on="1"/>
        <pt x="807" y="176" on="0"/>
        <pt x="813" y="132" on="1"/>
        <pt x="816" y="112" on="0"/>
        <pt x="816" y="68" on="0"/>
        <pt x="804" y="0" on="0"/>
        <pt x="790" y="0" on="1"/>
        <pt x="441" y="0" on="1"/>
        <pt x="399" y="-14" on="0"/>
        <pt x="345" y="-14" on="1"/>
        <pt x="208" y="-14" on="0"/>
        <pt x="30" y="172" on="0"/>
        <pt x="30" y="527" on="0"/>
        <pt x="211" y="711" on="0"/>
        <pt x="349" y="711" on="1"/>
        <pt x="397" y="711" on="0"/>
        <pt x="440" y="700" on="1"/>
        <pt x="791" y="700" on="1"/>
        <pt x="812" y="700" on="0"/>
        <pt x="812" y="522" on="0"/>
        <pt x="791" y="522" on="1"/>
        <pt x="604" y="522" on="1"/>
        <pt x="604" y="424" on="1"/>
      </contour>
      <contour>
        <pt x="302" y="517" on="0"/>
        <pt x="236" y="429" on="0"/>
        <pt x="236" y="269" on="0"/>
        <pt x="299" y="183" on="0"/>
        <pt x="401" y="183" on="0"/>
        <pt x="464" y="269" on="0"/>
        <pt x="464" y="430" on="0"/>
        <pt x="399" y="517" on="0"/>
      </contour>
    </TTGlyph>
    <TTGlyph name="Oacute" xMin="30" yMin="-10" xMax="666" yMax="911">
      <contour>
        <pt x="279" y="729" on="1"/>
        <pt x="270" y="729" on="0"/>
        <pt x="256" y="749" on="1"/>
        <pt x="238" y="777" on="0"/>
        <pt x="238" y="815" on="0"/>
        <pt x="244" y="821" on="1"/>
        <pt x="407" y="911" on="0"/>
        <pt x="410" y="911" on="1"/>
        <pt x="420" y="911" on="0"/>
        <pt x="435" y="887" on="1"/>
        <pt x="458" y="852" on="0"/>
        <pt x="458" y="821" on="1"/>
        <pt x="458" y="810" on="0"/>
        <pt x="453" y="805" on="1"/>
        <pt x="281" y="729" on="0"/>
      </contour>
      <contour>
        <pt x="207" y="-10" on="0"/>
        <pt x="30" y="174" on="0"/>
        <pt x="30" y="527" on="0"/>
        <pt x="209" y="709" on="0"/>
        <pt x="492" y="709" on="0"/>
        <pt x="666" y="530" on="0"/>
        <pt x="666" y="167" on="0"/>
        <pt x="488" y="-10" on="0"/>
      </contour>
      <contour>
        <pt x="300" y="517" on="0"/>
        <pt x="235" y="429" on="0"/>
        <pt x="235" y="270" on="0"/>
        <pt x="297" y="185" on="0"/>
        <pt x="398" y="185" on="0"/>
        <pt x="461" y="271" on="0"/>
        <pt x="461" y="431" on="0"/>
        <pt x="396" y="517" on="0"/>
      </contour>
    </TTGlyph>
    <TTGlyph name="Ocircumflex" xMin="30" yMin="-10" xMax="666" yMax="909">
      <contour>
        <pt x="221" y="724" on="1"/>
        <pt x="212" y="724" on="0"/>
        <pt x="197" y="746" on="1"/>
        <pt x="177" y="776" on="0"/>
        <pt x="177" y="816" on="0"/>
        <pt x="183" y="821" on="1"/>
        <pt x="337" y="905" on="1"/>
        <pt x="344" y="909" on="0"/>
        <pt x="352" y="909" on="0"/>
        <pt x="359" y="905" on="1"/>
        <pt x="513" y="821" on="1"/>
        <pt x="519" y="816" on="0"/>
        <pt x="519" y="807" on="1"/>
        <pt x="519" y="776" on="0"/>
        <pt x="485" y="724" on="0"/>
        <pt x="476" y="724" on="1"/>
        <pt x="474" y="724" on="0"/>
        <pt x="348" y="798" on="1"/>
        <pt x="223" y="724" on="0"/>
      </contour>
      <contour>
        <pt x="207" y="-10" on="0"/>
        <pt x="30" y="174" on="0"/>
        <pt x="30" y="527" on="0"/>
        <pt x="209" y="709" on="0"/>
        <pt x="492" y="709" on="0"/>
        <pt x="666" y="530" on="0"/>
        <pt x="666" y="167" on="0"/>
        <pt x="488" y="-10" on="0"/>
      </contour>
      <contour>
        <pt x="300" y="517" on="0"/>
        <pt x="235" y="429" on="0"/>
        <pt x="235" y="270" on="0"/>
        <pt x="297" y="185" on="0"/>
        <pt x="398" y="185" on="0"/>
        <pt x="461" y="271" on="0"/>
        <pt x="461" y="431" on="0"/>
        <pt x="396" y="517" on="0"/>
      </contour>
    </TTGlyph>
    <TTGlyph name="Odieresis" xMin="30" yMin="-10" xMax="666" yMax="901">
      <contour>
        <pt x="302" y="752" on="1"/>
        <pt x="302" y="746" on="0"/>
        <pt x="163" y="746" on="0"/>
        <pt x="163" y="751" on="1"/>
        <pt x="163" y="891" on="1"/>
        <pt x="163" y="900" on="0"/>
        <pt x="302" y="900" on="0"/>
        <pt x="302" y="895" on="1"/>
      </contour>
      <contour>
        <pt x="532" y="752" on="1"/>
        <pt x="532" y="746" on="0"/>
        <pt x="393" y="746" on="0"/>
        <pt x="393" y="751" on="1"/>
        <pt x="393" y="891" on="1"/>
        <pt x="393" y="900" on="0"/>
        <pt x="532" y="900" on="0"/>
        <pt x="532" y="895" on="1"/>
      </contour>
      <contour>
        <pt x="207" y="-10" on="0"/>
        <pt x="30" y="174" on="0"/>
        <pt x="30" y="527" on="0"/>
        <pt x="209" y="709" on="0"/>
        <pt x="492" y="709" on="0"/>
        <pt x="666" y="530" on="0"/>
        <pt x="666" y="167" on="0"/>
        <pt x="488" y="-10" on="0"/>
      </contour>
      <contour>
        <pt x="300" y="517" on="0"/>
        <pt x="235" y="429" on="0"/>
        <pt x="235" y="270" on="0"/>
        <pt x="297" y="185" on="0"/>
        <pt x="398" y="185" on="0"/>
        <pt x="461" y="271" on="0"/>
        <pt x="461" y="431" on="0"/>
        <pt x="396" y="517" on="0"/>
      </contour>
    </TTGlyph>
    <TTGlyph name="Ograve" xMin="30" yMin="-10" xMax="666" yMax="911">
      <contour>
        <pt x="415" y="729" on="0"/>
        <pt x="243" y="805" on="1"/>
        <pt x="238" y="810" on="0"/>
        <pt x="238" y="819" on="1"/>
        <pt x="238" y="852" on="0"/>
        <pt x="276" y="911" on="0"/>
        <pt x="286" y="911" on="1"/>
        <pt x="289" y="911" on="0"/>
        <pt x="452" y="821" on="1"/>
        <pt x="458" y="815" on="0"/>
        <pt x="458" y="807" on="1"/>
        <pt x="458" y="777" on="0"/>
        <pt x="426" y="729" on="0"/>
        <pt x="417" y="729" on="1"/>
      </contour>
      <contour>
        <pt x="207" y="-10" on="0"/>
        <pt x="30" y="174" on="0"/>
        <pt x="30" y="527" on="0"/>
        <pt x="209" y="709" on="0"/>
        <pt x="492" y="709" on="0"/>
        <pt x="666" y="530" on="0"/>
        <pt x="666" y="167" on="0"/>
        <pt x="488" y="-10" on="0"/>
      </contour>
      <contour>
        <pt x="300" y="517" on="0"/>
        <pt x="235" y="429" on="0"/>
        <pt x="235" y="270" on="0"/>
        <pt x="297" y="185" on="0"/>
        <pt x="398" y="185" on="0"/>
        <pt x="461" y="271" on="0"/>
        <pt x="461" y="431" on="0"/>
        <pt x="396" y="517" on="0"/>
      </contour>
    </TTGlyph>
    <TTGlyph name="Oslash" xMin="30" yMin="-81" xMax="666" yMax="790">
      <contour>
        <pt x="129" y="71" on="1"/>
        <pt x="30" y="168" on="0"/>
        <pt x="30" y="527" on="0"/>
        <pt x="209" y="709" on="0"/>
        <pt x="346" y="709" on="1"/>
        <pt x="399" y="709" on="0"/>
        <pt x="452" y="695" on="1"/>
        <pt x="495" y="778" on="1"/>
        <pt x="505" y="789" on="0"/>
        <pt x="516" y="789" on="1"/>
        <pt x="554" y="789" on="0"/>
        <pt x="584" y="763" on="1"/>
        <pt x="601" y="749" on="0"/>
        <pt x="601" y="731" on="0"/>
        <pt x="599" y="726" on="1"/>
        <pt x="555" y="641" on="1"/>
        <pt x="666" y="546" on="0"/>
        <pt x="666" y="167" on="0"/>
        <pt x="488" y="-10" on="0"/>
        <pt x="343" y="-10" on="1"/>
        <pt x="285" y="-10" on="0"/>
        <pt x="228" y="9" on="1"/>
        <pt x="188" y="-69" on="1"/>
        <pt x="181" y="-81" on="0"/>
        <pt x="167" y="-81" on="1"/>
        <pt x="148" y="-81" on="0"/>
        <pt x="102" y="-60" on="0"/>
        <pt x="78" y="-29" on="0"/>
        <pt x="84" y="-16" on="1"/>
      </contour>
      <contour>
        <pt x="413" y="138" on="0"/>
        <pt x="493" y="248" on="0"/>
        <pt x="493" y="425" on="0"/>
        <pt x="470" y="476" on="1"/>
        <pt x="299" y="147" on="1"/>
        <pt x="322" y="138" on="0"/>
        <pt x="348" y="138" on="1"/>
      </contour>
      <contour>
        <pt x="203" y="349" on="1"/>
        <pt x="203" y="286" on="0"/>
        <pt x="218" y="243" on="1"/>
        <pt x="382" y="559" on="1"/>
        <pt x="362" y="564" on="0"/>
        <pt x="348" y="564" on="1"/>
        <pt x="287" y="564" on="0"/>
        <pt x="203" y="452" on="0"/>
      </contour>
    </TTGlyph>
    <TTGlyph name="Otilde" xMin="30" yMin="-10" xMax="666" yMax="904">
      <contour>
        <pt x="205" y="753" on="1"/>
        <pt x="186" y="758" on="0"/>
        <pt x="153" y="816" on="0"/>
        <pt x="153" y="834" on="0"/>
        <pt x="156" y="837" on="1"/>
        <pt x="219" y="900" on="0"/>
        <pt x="286" y="900" on="1"/>
        <pt x="317" y="900" on="0"/>
        <pt x="395" y="863" on="0"/>
        <pt x="416" y="863" on="1"/>
        <pt x="453" y="864" on="0"/>
        <pt x="485" y="902" on="1"/>
        <pt x="487" y="903" on="0"/>
        <pt x="490" y="903" on="1"/>
        <pt x="502" y="903" on="0"/>
        <pt x="544" y="847" on="0"/>
        <pt x="544" y="837" on="1"/>
        <pt x="544" y="808" on="0"/>
        <pt x="496" y="776" on="1"/>
        <pt x="465" y="754" on="0"/>
        <pt x="436" y="754" on="1"/>
        <pt x="432" y="754" on="0"/>
        <pt x="429" y="754" on="1"/>
        <pt x="391" y="754" on="0"/>
        <pt x="299" y="794" on="0"/>
        <pt x="278" y="794" on="0"/>
        <pt x="264" y="790" on="0"/>
        <pt x="253" y="787" on="0"/>
        <pt x="238" y="777" on="0"/>
        <pt x="230" y="772" on="0"/>
        <pt x="210" y="756" on="0"/>
      </contour>
      <contour>
        <pt x="207" y="-10" on="0"/>
        <pt x="30" y="174" on="0"/>
        <pt x="30" y="527" on="0"/>
        <pt x="209" y="709" on="0"/>
        <pt x="492" y="709" on="0"/>
        <pt x="666" y="530" on="0"/>
        <pt x="666" y="167" on="0"/>
        <pt x="488" y="-10" on="0"/>
      </contour>
      <contour>
        <pt x="300" y="517" on="0"/>
        <pt x="235" y="429" on="0"/>
        <pt x="235" y="270" on="0"/>
        <pt x="297" y="185" on="0"/>
        <pt x="398" y="185" on="0"/>
        <pt x="461" y="271" on="0"/>
        <pt x="461" y="431" on="0"/>
        <pt x="396" y="517" on="0"/>
      </contour>
    </TTGlyph>
    <TTGlyph name="P" xMin="46" yMin="-2" xMax="532" yMax="700">
      <contour>
        <pt x="137" y="-2" on="1"/>
        <pt x="46" y="-2" on="0"/>
        <pt x="46" y="18" on="1"/>
        <pt x="46" y="666" on="1"/>
        <pt x="46" y="700" on="0"/>
        <pt x="77" y="700" on="1"/>
        <pt x="253" y="700" on="1"/>
        <pt x="401" y="700" on="0"/>
        <pt x="532" y="578" on="0"/>
        <pt x="532" y="462" on="1"/>
        <pt x="532" y="366" on="0"/>
        <pt x="470" y="286" on="1"/>
        <pt x="439" y="246" on="0"/>
        <pt x="319" y="198" on="0"/>
        <pt x="239" y="198" on="1"/>
        <pt x="239" y="19" on="1"/>
        <pt x="239" y="7" on="0"/>
        <pt x="164" y="-2" on="0"/>
      </contour>
      <contour>
        <pt x="239" y="526" on="1"/>
        <pt x="239" y="368" on="1"/>
        <pt x="252" y="368" on="1"/>
        <pt x="287" y="368" on="0"/>
        <pt x="335" y="412" on="0"/>
        <pt x="335" y="492" on="0"/>
        <pt x="302" y="526" on="0"/>
        <pt x="260" y="526" on="1"/>
      </contour>
    </TTGlyph>
    <TTGlyph name="Q" xMin="30" yMin="-180" xMax="666" yMax="709">
      <contour>
        <pt x="30" y="349" on="1"/>
        <pt x="30" y="527" on="0"/>
        <pt x="209" y="709" on="0"/>
        <pt x="492" y="709" on="0"/>
        <pt x="666" y="530" on="0"/>
        <pt x="666" y="349" on="1"/>
        <pt x="666" y="210" on="0"/>
        <pt x="558" y="40" on="0"/>
        <pt x="464" y="8" on="1"/>
        <pt x="570" y="-65" on="1"/>
        <pt x="576" y="-69" on="0"/>
        <pt x="576" y="-90" on="0"/>
        <pt x="531" y="-148" on="0"/>
        <pt x="468" y="-179" on="0"/>
        <pt x="436" y="-179" on="0"/>
        <pt x="426" y="-168" on="1"/>
        <pt x="280" y="-6" on="1"/>
        <pt x="168" y="15" on="0"/>
        <pt x="30" y="198" on="0"/>
      </contour>
      <contour>
        <pt x="300" y="517" on="0"/>
        <pt x="235" y="429" on="0"/>
        <pt x="235" y="270" on="0"/>
        <pt x="297" y="185" on="0"/>
        <pt x="398" y="185" on="0"/>
        <pt x="461" y="271" on="0"/>
        <pt x="461" y="431" on="0"/>
        <pt x="396" y="517" on="0"/>
      </contour>
    </TTGlyph>
    <TTGlyph name="R" xMin="50" yMin="-6" xMax="575" yMax="700">
      <contour>
        <pt x="241" y="14" on="1"/>
        <pt x="241" y="-2" on="0"/>
        <pt x="146" y="-2" on="1"/>
        <pt x="50" y="-2" on="0"/>
        <pt x="50" y="13" on="1"/>
        <pt x="50" y="665" on="1"/>
        <pt x="50" y="700" on="0"/>
        <pt x="87" y="700" on="1"/>
        <pt x="278" y="700" on="1"/>
        <pt x="541" y="700" on="0"/>
        <pt x="541" y="495" on="1"/>
        <pt x="541" y="433" on="0"/>
        <pt x="493" y="332" on="0"/>
        <pt x="449" y="302" on="1"/>
        <pt x="575" y="92" on="1"/>
        <pt x="567" y="68" on="0"/>
        <pt x="523" y="37" on="1"/>
        <pt x="463" y="-6" on="0"/>
        <pt x="385" y="-6" on="0"/>
        <pt x="366" y="22" on="1"/>
        <pt x="272" y="241" on="1"/>
        <pt x="241" y="241" on="1"/>
      </contour>
      <contour>
        <pt x="241" y="523" on="1"/>
        <pt x="241" y="373" on="1"/>
        <pt x="246" y="373" on="1"/>
        <pt x="341" y="373" on="0"/>
        <pt x="341" y="452" on="1"/>
        <pt x="341" y="488" on="0"/>
        <pt x="304" y="523" on="0"/>
        <pt x="262" y="523" on="1"/>
      </contour>
    </TTGlyph>
    <TTGlyph name="S" xMin="29" yMin="-10" xMax="499" yMax="709">
      <contour>
        <pt x="76" y="244" on="1"/>
        <pt x="95" y="229" on="0"/>
        <pt x="188" y="177" on="0"/>
        <pt x="273" y="177" on="0"/>
        <pt x="273" y="210" on="1"/>
        <pt x="273" y="225" on="0"/>
        <pt x="249" y="248" on="0"/>
        <pt x="185" y="278" on="0"/>
        <pt x="153" y="295" on="0"/>
        <pt x="100" y="334" on="0"/>
        <pt x="86" y="355" on="1"/>
        <pt x="46" y="412" on="0"/>
        <pt x="46" y="588" on="0"/>
        <pt x="177" y="709" on="0"/>
        <pt x="283" y="709" on="1"/>
        <pt x="355" y="709" on="0"/>
        <pt x="477" y="678" on="0"/>
        <pt x="479" y="653" on="1"/>
        <pt x="479" y="650" on="0"/>
        <pt x="479" y="647" on="1"/>
        <pt x="479" y="612" on="0"/>
        <pt x="435" y="505" on="0"/>
        <pt x="426" y="499" on="1"/>
        <pt x="362" y="532" on="0"/>
        <pt x="261" y="532" on="0"/>
        <pt x="261" y="496" on="1"/>
        <pt x="261" y="474" on="0"/>
        <pt x="298" y="457" on="1"/>
        <pt x="306" y="453" on="0"/>
        <pt x="336" y="439" on="0"/>
        <pt x="375" y="420" on="0"/>
        <pt x="420" y="391" on="0"/>
        <pt x="446" y="367" on="1"/>
        <pt x="499" y="317" on="0"/>
        <pt x="499" y="235" on="1"/>
        <pt x="499" y="128" on="0"/>
        <pt x="381" y="-8" on="0"/>
        <pt x="258" y="-10" on="1"/>
        <pt x="198" y="-10" on="0"/>
        <pt x="101" y="10" on="0"/>
        <pt x="29" y="68" on="0"/>
        <pt x="29" y="150" on="0"/>
        <pt x="59" y="231" on="0"/>
      </contour>
    </TTGlyph>
    <TTGlyph name="Scaron" xMin="29" yMin="-10" xMax="499" yMax="919">
      <contour>
        <pt x="76" y="244" on="1"/>
        <pt x="95" y="229" on="0"/>
        <pt x="188" y="177" on="0"/>
        <pt x="273" y="177" on="0"/>
        <pt x="273" y="210" on="1"/>
        <pt x="273" y="225" on="0"/>
        <pt x="249" y="248" on="0"/>
        <pt x="185" y="278" on="0"/>
        <pt x="153" y="295" on="0"/>
        <pt x="100" y="334" on="0"/>
        <pt x="86" y="355" on="1"/>
        <pt x="46" y="412" on="0"/>
        <pt x="46" y="588" on="0"/>
        <pt x="177" y="709" on="0"/>
        <pt x="283" y="709" on="1"/>
        <pt x="355" y="709" on="0"/>
        <pt x="477" y="678" on="0"/>
        <pt x="479" y="653" on="1"/>
        <pt x="479" y="650" on="0"/>
        <pt x="479" y="647" on="1"/>
        <pt x="479" y="612" on="0"/>
        <pt x="435" y="505" on="0"/>
        <pt x="426" y="499" on="1"/>
        <pt x="362" y="532" on="0"/>
        <pt x="261" y="532" on="0"/>
        <pt x="261" y="496" on="1"/>
        <pt x="261" y="474" on="0"/>
        <pt x="298" y="457" on="1"/>
        <pt x="306" y="453" on="0"/>
        <pt x="336" y="439" on="0"/>
        <pt x="375" y="420" on="0"/>
        <pt x="420" y="391" on="0"/>
        <pt x="446" y="367" on="1"/>
        <pt x="499" y="317" on="0"/>
        <pt x="499" y="235" on="1"/>
        <pt x="499" y="128" on="0"/>
        <pt x="381" y="-8" on="0"/>
        <pt x="258" y="-10" on="1"/>
        <pt x="198" y="-10" on="0"/>
        <pt x="101" y="10" on="0"/>
        <pt x="29" y="68" on="0"/>
        <pt x="29" y="150" on="0"/>
        <pt x="59" y="231" on="0"/>
      </contour>
      <contour>
        <pt x="392" y="919" on="1"/>
        <pt x="401" y="919" on="0"/>
        <pt x="416" y="897" on="1"/>
        <pt x="436" y="867" on="0"/>
        <pt x="436" y="827" on="0"/>
        <pt x="430" y="822" on="1"/>
        <pt x="276" y="738" on="1"/>
        <pt x="269" y="734" on="0"/>
        <pt x="261" y="734" on="0"/>
        <pt x="254" y="738" on="1"/>
        <pt x="100" y="822" on="1"/>
        <pt x="94" y="827" on="0"/>
        <pt x="94" y="836" on="1"/>
        <pt x="94" y="867" on="0"/>
        <pt x="128" y="919" on="0"/>
        <pt x="137" y="919" on="1"/>
        <pt x="139" y="919" on="0"/>
        <pt x="265" y="845" on="1"/>
        <pt x="390" y="919" on="0"/>
      </contour>
    </TTGlyph>
    <TTGlyph name="T" xMin="5" yMin="-5" xMax="495" yMax="700">
      <contour>
        <pt x="351" y="16" on="1"/>
        <pt x="351" y="-4" on="0"/>
        <pt x="153" y="-4" on="0"/>
        <pt x="153" y="16" on="1"/>
        <pt x="153" y="518" on="1"/>
        <pt x="33" y="518" on="1"/>
        <pt x="16" y="518" on="0"/>
        <pt x="9" y="564" on="1"/>
        <pt x="6" y="586" on="0"/>
        <pt x="6" y="632" on="0"/>
        <pt x="9" y="654" on="1"/>
        <pt x="16" y="700" on="0"/>
        <pt x="33" y="700" on="1"/>
        <pt x="468" y="700" on="1"/>
        <pt x="485" y="700" on="0"/>
        <pt x="492" y="654" on="1"/>
        <pt x="495" y="632" on="0"/>
        <pt x="495" y="586" on="0"/>
        <pt x="492" y="564" on="1"/>
        <pt x="485" y="518" on="0"/>
        <pt x="468" y="518" on="1"/>
        <pt x="351" y="518" on="1"/>
      </contour>
    </TTGlyph>
    <TTGlyph name="Thorn" xMin="46" yMin="-11" xMax="532" yMax="714">
      <contour>
        <pt x="46" y="699" on="1"/>
        <pt x="46" y="713" on="0"/>
        <pt x="139" y="713" on="1"/>
        <pt x="238" y="709" on="0"/>
        <pt x="238" y="700" on="1"/>
        <pt x="238" y="620" on="1"/>
        <pt x="400" y="620" on="0"/>
        <pt x="532" y="500" on="0"/>
        <pt x="532" y="382" on="1"/>
        <pt x="532" y="286" on="0"/>
        <pt x="470" y="206" on="1"/>
        <pt x="439" y="166" on="0"/>
        <pt x="319" y="118" on="0"/>
        <pt x="239" y="118" on="1"/>
        <pt x="239" y="14" on="1"/>
        <pt x="239" y="-1" on="0"/>
        <pt x="190" y="-7" on="1"/>
        <pt x="165" y="-10" on="0"/>
        <pt x="141" y="-10" on="1"/>
        <pt x="46" y="-10" on="0"/>
        <pt x="46" y="13" on="1"/>
      </contour>
      <contour>
        <pt x="239" y="446" on="1"/>
        <pt x="239" y="288" on="1"/>
        <pt x="252" y="288" on="1"/>
        <pt x="287" y="288" on="0"/>
        <pt x="335" y="332" on="0"/>
        <pt x="335" y="412" on="0"/>
        <pt x="302" y="446" on="0"/>
        <pt x="260" y="446" on="1"/>
      </contour>
    </TTGlyph>
    <TTGlyph name="U" xMin="30" yMin="-10" xMax="594" yMax="700">
      <contour>
        <pt x="377" y="680" on="1"/>
        <pt x="377" y="700" on="0"/>
        <pt x="594" y="700" on="0"/>
        <pt x="594" y="680" on="1"/>
        <pt x="594" y="221" on="1"/>
        <pt x="594" y="119" on="0"/>
        <pt x="448" y="-10" on="0"/>
        <pt x="191" y="-10" on="0"/>
        <pt x="30" y="123" on="0"/>
        <pt x="30" y="236" on="1"/>
        <pt x="30" y="679" on="1"/>
        <pt x="30" y="699" on="0"/>
        <pt x="247" y="699" on="0"/>
        <pt x="247" y="679" on="1"/>
        <pt x="247" y="228" on="1"/>
        <pt x="247" y="208" on="0"/>
        <pt x="268" y="196" on="1"/>
        <pt x="290" y="184" on="0"/>
        <pt x="338" y="184" on="0"/>
        <pt x="377" y="206" on="0"/>
        <pt x="377" y="228" on="1"/>
      </contour>
    </TTGlyph>
    <TTGlyph name="Uacute" xMin="30" yMin="-10" xMax="594" yMax="911">
      <contour>
        <pt x="245" y="729" on="1"/>
        <pt x="236" y="729" on="0"/>
        <pt x="222" y="749" on="1"/>
        <pt x="204" y="777" on="0"/>
        <pt x="204" y="815" on="0"/>
        <pt x="210" y="821" on="1"/>
        <pt x="373" y="911" on="0"/>
        <pt x="376" y="911" on="1"/>
        <pt x="386" y="911" on="0"/>
        <pt x="401" y="887" on="1"/>
        <pt x="424" y="852" on="0"/>
        <pt x="424" y="821" on="1"/>
        <pt x="424" y="810" on="0"/>
        <pt x="419" y="805" on="1"/>
        <pt x="247" y="729" on="0"/>
      </contour>
      <contour>
        <pt x="377" y="691" on="1"/>
        <pt x="377" y="711" on="0"/>
        <pt x="594" y="711" on="0"/>
        <pt x="594" y="691" on="1"/>
        <pt x="594" y="221" on="1"/>
        <pt x="594" y="119" on="0"/>
        <pt x="448" y="-10" on="0"/>
        <pt x="191" y="-10" on="0"/>
        <pt x="30" y="123" on="0"/>
        <pt x="30" y="236" on="1"/>
        <pt x="30" y="688" on="1"/>
        <pt x="30" y="708" on="0"/>
        <pt x="247" y="708" on="0"/>
        <pt x="247" y="688" on="1"/>
        <pt x="247" y="247" on="1"/>
        <pt x="247" y="227" on="0"/>
        <pt x="268" y="216" on="1"/>
        <pt x="290" y="203" on="0"/>
        <pt x="338" y="203" on="0"/>
        <pt x="377" y="225" on="0"/>
        <pt x="377" y="247" on="1"/>
      </contour>
    </TTGlyph>
    <TTGlyph name="Ucircumflex" xMin="30" yMin="-10" xMax="594" yMax="909">
      <contour>
        <pt x="187" y="724" on="1"/>
        <pt x="178" y="724" on="0"/>
        <pt x="163" y="746" on="1"/>
        <pt x="143" y="776" on="0"/>
        <pt x="143" y="816" on="0"/>
        <pt x="149" y="821" on="1"/>
        <pt x="303" y="905" on="1"/>
        <pt x="310" y="909" on="0"/>
        <pt x="318" y="909" on="0"/>
        <pt x="325" y="905" on="1"/>
        <pt x="479" y="821" on="1"/>
        <pt x="485" y="816" on="0"/>
        <pt x="485" y="807" on="1"/>
        <pt x="485" y="776" on="0"/>
        <pt x="451" y="724" on="0"/>
        <pt x="442" y="724" on="1"/>
        <pt x="440" y="724" on="0"/>
        <pt x="314" y="798" on="1"/>
        <pt x="189" y="724" on="0"/>
      </contour>
      <contour>
        <pt x="377" y="691" on="1"/>
        <pt x="377" y="711" on="0"/>
        <pt x="594" y="711" on="0"/>
        <pt x="594" y="691" on="1"/>
        <pt x="594" y="221" on="1"/>
        <pt x="594" y="119" on="0"/>
        <pt x="448" y="-10" on="0"/>
        <pt x="191" y="-10" on="0"/>
        <pt x="30" y="123" on="0"/>
        <pt x="30" y="236" on="1"/>
        <pt x="30" y="688" on="1"/>
        <pt x="30" y="708" on="0"/>
        <pt x="247" y="708" on="0"/>
        <pt x="247" y="688" on="1"/>
        <pt x="247" y="247" on="1"/>
        <pt x="247" y="227" on="0"/>
        <pt x="268" y="216" on="1"/>
        <pt x="290" y="203" on="0"/>
        <pt x="338" y="203" on="0"/>
        <pt x="377" y="225" on="0"/>
        <pt x="377" y="247" on="1"/>
      </contour>
    </TTGlyph>
    <TTGlyph name="Udieresis" xMin="30" yMin="-10" xMax="594" yMax="901">
      <contour>
        <pt x="268" y="752" on="1"/>
        <pt x="268" y="746" on="0"/>
        <pt x="129" y="746" on="0"/>
        <pt x="129" y="751" on="1"/>
        <pt x="129" y="891" on="1"/>
        <pt x="129" y="900" on="0"/>
        <pt x="268" y="900" on="0"/>
        <pt x="268" y="895" on="1"/>
      </contour>
      <contour>
        <pt x="498" y="752" on="1"/>
        <pt x="498" y="746" on="0"/>
        <pt x="359" y="746" on="0"/>
        <pt x="359" y="751" on="1"/>
        <pt x="359" y="891" on="1"/>
        <pt x="359" y="900" on="0"/>
        <pt x="498" y="900" on="0"/>
        <pt x="498" y="895" on="1"/>
      </contour>
      <contour>
        <pt x="377" y="691" on="1"/>
        <pt x="377" y="711" on="0"/>
        <pt x="594" y="711" on="0"/>
        <pt x="594" y="691" on="1"/>
        <pt x="594" y="221" on="1"/>
        <pt x="594" y="119" on="0"/>
        <pt x="448" y="-10" on="0"/>
        <pt x="191" y="-10" on="0"/>
        <pt x="30" y="123" on="0"/>
        <pt x="30" y="236" on="1"/>
        <pt x="30" y="688" on="1"/>
        <pt x="30" y="708" on="0"/>
        <pt x="247" y="708" on="0"/>
        <pt x="247" y="688" on="1"/>
        <pt x="247" y="247" on="1"/>
        <pt x="247" y="227" on="0"/>
        <pt x="268" y="216" on="1"/>
        <pt x="290" y="203" on="0"/>
        <pt x="338" y="203" on="0"/>
        <pt x="377" y="225" on="0"/>
        <pt x="377" y="247" on="1"/>
      </contour>
    </TTGlyph>
    <TTGlyph name="Ugrave" xMin="30" yMin="-10" xMax="594" yMax="911">
      <contour>
        <pt x="377" y="691" on="1"/>
        <pt x="377" y="711" on="0"/>
        <pt x="594" y="711" on="0"/>
        <pt x="594" y="691" on="1"/>
        <pt x="594" y="221" on="1"/>
        <pt x="594" y="119" on="0"/>
        <pt x="448" y="-10" on="0"/>
        <pt x="191" y="-10" on="0"/>
        <pt x="30" y="123" on="0"/>
        <pt x="30" y="236" on="1"/>
        <pt x="30" y="688" on="1"/>
        <pt x="30" y="708" on="0"/>
        <pt x="247" y="708" on="0"/>
        <pt x="247" y="688" on="1"/>
        <pt x="247" y="247" on="1"/>
        <pt x="247" y="227" on="0"/>
        <pt x="268" y="216" on="1"/>
        <pt x="290" y="203" on="0"/>
        <pt x="338" y="203" on="0"/>
        <pt x="377" y="225" on="0"/>
        <pt x="377" y="247" on="1"/>
      </contour>
      <contour>
        <pt x="209" y="805" on="1"/>
        <pt x="204" y="810" on="0"/>
        <pt x="204" y="819" on="1"/>
        <pt x="204" y="852" on="0"/>
        <pt x="242" y="911" on="0"/>
        <pt x="252" y="911" on="1"/>
        <pt x="255" y="911" on="0"/>
        <pt x="418" y="821" on="1"/>
        <pt x="424" y="815" on="0"/>
        <pt x="424" y="807" on="1"/>
        <pt x="424" y="777" on="0"/>
        <pt x="392" y="729" on="0"/>
        <pt x="383" y="729" on="1"/>
        <pt x="381" y="729" on="0"/>
      </contour>
    </TTGlyph>
    <TTGlyph name="V" xMin="11" yMin="1" xMax="650" yMax="702">
      <contour>
        <pt x="11" y="687" on="1"/>
        <pt x="11" y="692" on="0"/>
        <pt x="98" y="701" on="0"/>
        <pt x="126" y="701" on="1"/>
        <pt x="237" y="701" on="0"/>
        <pt x="242" y="672" on="1"/>
        <pt x="328" y="232" on="1"/>
        <pt x="409" y="672" on="1"/>
        <pt x="415" y="701" on="0"/>
        <pt x="533" y="701" on="1"/>
        <pt x="562" y="701" on="0"/>
        <pt x="650" y="693" on="0"/>
        <pt x="650" y="688" on="1"/>
        <pt x="473" y="26" on="1"/>
        <pt x="469" y="10" on="0"/>
        <pt x="414" y="5" on="1"/>
        <pt x="329" y="-4" on="0"/>
        <pt x="190" y="7" on="0"/>
        <pt x="186" y="21" on="1"/>
      </contour>
    </TTGlyph>
    <TTGlyph name="W" xMin="21" yMin="-4" xMax="932" yMax="703">
      <contour>
        <pt x="21" y="690" on="1"/>
        <pt x="18" y="701" on="0"/>
        <pt x="122" y="701" on="1"/>
        <pt x="237" y="701" on="0"/>
        <pt x="240" y="682" on="1"/>
        <pt x="289" y="261" on="1"/>
        <pt x="395" y="687" on="1"/>
        <pt x="400" y="702" on="0"/>
        <pt x="546" y="702" on="0"/>
        <pt x="551" y="688" on="1"/>
        <pt x="655" y="259" on="1"/>
        <pt x="713" y="684" on="1"/>
        <pt x="715" y="695" on="0"/>
        <pt x="803" y="703" on="0"/>
        <pt x="830" y="703" on="1"/>
        <pt x="935" y="703" on="0"/>
        <pt x="932" y="689" on="1"/>
        <pt x="811" y="26" on="1"/>
        <pt x="807" y="11" on="0"/>
        <pt x="701" y="-3" on="0"/>
        <pt x="668" y="-3" on="1"/>
        <pt x="544" y="-3" on="0"/>
        <pt x="538" y="25" on="1"/>
        <pt x="470" y="300" on="1"/>
        <pt x="396" y="26" on="1"/>
        <pt x="392" y="8" on="0"/>
        <pt x="326" y="0" on="1"/>
        <pt x="292" y="-3" on="0"/>
        <pt x="258" y="-3" on="1"/>
        <pt x="194" y="0" on="1"/>
        <pt x="128" y="7" on="0"/>
        <pt x="124" y="25" on="1"/>
      </contour>
    </TTGlyph>
    <TTGlyph name="X" xMin="18" yMin="-2" xMax="666" yMax="704">
      <contour>
        <pt x="421" y="673" on="1"/>
        <pt x="433" y="703" on="0"/>
        <pt x="546" y="703" on="1"/>
        <pt x="575" y="703" on="0"/>
        <pt x="660" y="694" on="0"/>
        <pt x="660" y="690" on="1"/>
        <pt x="490" y="344" on="1"/>
        <pt x="666" y="13" on="1"/>
        <pt x="669" y="8" on="0"/>
        <pt x="577" y="-1" on="0"/>
        <pt x="545" y="-1" on="1"/>
        <pt x="418" y="-1" on="0"/>
        <pt x="406" y="33" on="1"/>
        <pt x="331" y="224" on="1"/>
        <pt x="263" y="27" on="1"/>
        <pt x="253" y="-1" on="0"/>
        <pt x="135" y="-1" on="1"/>
        <pt x="106" y="-1" on="0"/>
        <pt x="20" y="7" on="0"/>
        <pt x="24" y="14" on="1"/>
        <pt x="180" y="360" on="1"/>
        <pt x="18" y="690" on="1"/>
        <pt x="15" y="695" on="0"/>
        <pt x="104" y="704" on="0"/>
        <pt x="135" y="704" on="1"/>
        <pt x="261" y="704" on="0"/>
        <pt x="273" y="668" on="1"/>
        <pt x="342" y="500" on="1"/>
      </contour>
    </TTGlyph>
    <TTGlyph name="Y" xMin="-11" yMin="-3" xMax="631" yMax="703">
      <contour>
        <pt x="398" y="667" on="1"/>
        <pt x="411" y="702" on="0"/>
        <pt x="526" y="702" on="1"/>
        <pt x="555" y="702" on="0"/>
        <pt x="634" y="694" on="0"/>
        <pt x="631" y="688" on="1"/>
        <pt x="423" y="270" on="1"/>
        <pt x="423" y="26" on="1"/>
        <pt x="423" y="9" on="0"/>
        <pt x="368" y="2" on="1"/>
        <pt x="340" y="-2" on="0"/>
        <pt x="286" y="-2" on="0"/>
        <pt x="259" y="1" on="1"/>
        <pt x="204" y="8" on="0"/>
        <pt x="204" y="26" on="1"/>
        <pt x="204" y="264" on="1"/>
        <pt x="-11" y="686" on="1"/>
        <pt x="-15" y="692" on="0"/>
        <pt x="75" y="703" on="0"/>
        <pt x="106" y="703" on="1"/>
        <pt x="229" y="703" on="0"/>
        <pt x="241" y="667" on="1"/>
        <pt x="314" y="463" on="1"/>
      </contour>
    </TTGlyph>
    <TTGlyph name="Yacute" xMin="-11" yMin="-11" xMax="631" yMax="911">
      <contour>
        <pt x="238" y="729" on="1"/>
        <pt x="229" y="729" on="0"/>
        <pt x="215" y="749" on="1"/>
        <pt x="197" y="777" on="0"/>
        <pt x="197" y="815" on="0"/>
        <pt x="203" y="821" on="1"/>
        <pt x="366" y="911" on="0"/>
        <pt x="369" y="911" on="1"/>
        <pt x="379" y="911" on="0"/>
        <pt x="394" y="887" on="1"/>
        <pt x="417" y="852" on="0"/>
        <pt x="417" y="821" on="1"/>
        <pt x="417" y="810" on="0"/>
        <pt x="412" y="805" on="1"/>
        <pt x="240" y="729" on="0"/>
      </contour>
      <contour>
        <pt x="398" y="674" on="1"/>
        <pt x="411" y="709" on="0"/>
        <pt x="526" y="709" on="1"/>
        <pt x="555" y="709" on="0"/>
        <pt x="634" y="701" on="0"/>
        <pt x="631" y="695" on="1"/>
        <pt x="423" y="250" on="1"/>
        <pt x="423" y="18" on="1"/>
        <pt x="423" y="1" on="0"/>
        <pt x="368" y="-6" on="1"/>
        <pt x="340" y="-10" on="0"/>
        <pt x="286" y="-10" on="0"/>
        <pt x="259" y="-7" on="1"/>
        <pt x="204" y="0" on="0"/>
        <pt x="204" y="18" on="1"/>
        <pt x="204" y="244" on="1"/>
        <pt x="-11" y="693" on="1"/>
        <pt x="-15" y="699" on="0"/>
        <pt x="75" y="710" on="0"/>
        <pt x="106" y="710" on="1"/>
        <pt x="229" y="710" on="0"/>
        <pt x="241" y="674" on="1"/>
        <pt x="314" y="456" on="1"/>
      </contour>
    </TTGlyph>
    <TTGlyph name="Ydieresis" xMin="-11" yMin="-11" xMax="631" yMax="901">
      <contour>
        <pt x="398" y="674" on="1"/>
        <pt x="411" y="709" on="0"/>
        <pt x="526" y="709" on="1"/>
        <pt x="555" y="709" on="0"/>
        <pt x="634" y="701" on="0"/>
        <pt x="631" y="695" on="1"/>
        <pt x="423" y="250" on="1"/>
        <pt x="423" y="18" on="1"/>
        <pt x="423" y="1" on="0"/>
        <pt x="368" y="-6" on="1"/>
        <pt x="340" y="-10" on="0"/>
        <pt x="286" y="-10" on="0"/>
        <pt x="259" y="-7" on="1"/>
        <pt x="204" y="0" on="0"/>
        <pt x="204" y="18" on="1"/>
        <pt x="204" y="244" on="1"/>
        <pt x="-11" y="693" on="1"/>
        <pt x="-15" y="699" on="0"/>
        <pt x="75" y="710" on="0"/>
        <pt x="106" y="710" on="1"/>
        <pt x="229" y="710" on="0"/>
        <pt x="241" y="674" on="1"/>
        <pt x="314" y="456" on="1"/>
      </contour>
      <contour>
        <pt x="262" y="752" on="1"/>
        <pt x="262" y="746" on="0"/>
        <pt x="123" y="746" on="0"/>
        <pt x="123" y="751" on="1"/>
        <pt x="123" y="891" on="1"/>
        <pt x="123" y="900" on="0"/>
        <pt x="262" y="900" on="0"/>
        <pt x="262" y="895" on="1"/>
      </contour>
      <contour>
        <pt x="492" y="752" on="1"/>
        <pt x="492" y="746" on="0"/>
        <pt x="353" y="746" on="0"/>
        <pt x="353" y="751" on="1"/>
        <pt x="353" y="891" on="1"/>
        <pt x="353" y="900" on="0"/>
        <pt x="492" y="900" on="0"/>
        <pt x="492" y="895" on="1"/>
      </contour>
    </TTGlyph>
    <TTGlyph name="Z" xMin="37" yMin="0" xMax="537" yMax="700">
      <contour>
        <pt x="76" y="518" on="1"/>
        <pt x="59" y="518" on="0"/>
        <pt x="52" y="564" on="1"/>
        <pt x="49" y="583" on="0"/>
        <pt x="49" y="629" on="0"/>
        <pt x="54" y="654" on="1"/>
        <pt x="63" y="700" on="0"/>
        <pt x="84" y="700" on="1"/>
        <pt x="454" y="700" on="1"/>
        <pt x="515" y="700" on="0"/>
        <pt x="533" y="589" on="1"/>
        <pt x="537" y="565" on="0"/>
        <pt x="537" y="554" on="1"/>
        <pt x="303" y="199" on="1"/>
        <pt x="486" y="199" on="1"/>
        <pt x="487" y="199" on="0"/>
        <pt x="488" y="199" on="1"/>
        <pt x="510" y="199" on="0"/>
        <pt x="519" y="151" on="1"/>
        <pt x="523" y="128" on="0"/>
        <pt x="523" y="78" on="0"/>
        <pt x="517" y="50" on="1"/>
        <pt x="506" y="0" on="0"/>
        <pt x="483" y="0" on="1"/>
        <pt x="94" y="0" on="1"/>
        <pt x="85" y="0" on="0"/>
        <pt x="38" y="121" on="0"/>
        <pt x="38" y="151" on="0"/>
        <pt x="41" y="155" on="1"/>
        <pt x="275" y="518" on="1"/>
      </contour>
    </TTGlyph>
    <TTGlyph name="Zcaron" xMin="37" yMin="0" xMax="538" yMax="909">
      <contour>
        <pt x="76" y="518" on="1"/>
        <pt x="59" y="518" on="0"/>
        <pt x="52" y="564" on="1"/>
        <pt x="49" y="583" on="0"/>
        <pt x="49" y="629" on="0"/>
        <pt x="54" y="654" on="1"/>
        <pt x="63" y="700" on="0"/>
        <pt x="84" y="700" on="1"/>
        <pt x="473" y="700" on="1"/>
        <pt x="489" y="700" on="0"/>
        <pt x="538" y="569" on="0"/>
        <pt x="538" y="555" on="0"/>
        <pt x="537" y="554" on="1"/>
        <pt x="303" y="199" on="1"/>
        <pt x="486" y="199" on="1"/>
        <pt x="487" y="199" on="0"/>
        <pt x="488" y="199" on="1"/>
        <pt x="510" y="199" on="0"/>
        <pt x="519" y="151" on="1"/>
        <pt x="523" y="128" on="0"/>
        <pt x="523" y="78" on="0"/>
        <pt x="517" y="50" on="1"/>
        <pt x="506" y="0" on="0"/>
        <pt x="483" y="0" on="1"/>
        <pt x="94" y="0" on="1"/>
        <pt x="85" y="0" on="0"/>
        <pt x="38" y="121" on="0"/>
        <pt x="38" y="151" on="0"/>
        <pt x="41" y="155" on="1"/>
        <pt x="275" y="518" on="1"/>
      </contour>
      <contour>
        <pt x="407" y="909" on="1"/>
        <pt x="416" y="909" on="0"/>
        <pt x="431" y="887" on="1"/>
        <pt x="451" y="857" on="0"/>
        <pt x="451" y="817" on="0"/>
        <pt x="445" y="812" on="1"/>
        <pt x="291" y="728" on="1"/>
        <pt x="284" y="724" on="0"/>
        <pt x="276" y="724" on="0"/>
        <pt x="269" y="728" on="1"/>
        <pt x="115" y="812" on="1"/>
        <pt x="109" y="817" on="0"/>
        <pt x="109" y="826" on="1"/>
        <pt x="109" y="857" on="0"/>
        <pt x="143" y="909" on="0"/>
        <pt x="152" y="909" on="1"/>
        <pt x="154" y="909" on="0"/>
        <pt x="280" y="835" on="1"/>
        <pt x="405" y="909" on="0"/>
      </contour>
    </TTGlyph>
    <TTGlyph name="a" xMin="14" yMin="-10" xMax="505" yMax="510">
      <contour>
        <pt x="108" y="363" on="1"/>
        <pt x="80" y="413" on="0"/>
        <pt x="80" y="476" on="0"/>
        <pt x="97" y="485" on="1"/>
        <pt x="154" y="510" on="0"/>
        <pt x="353" y="510" on="0"/>
        <pt x="435" y="417" on="0"/>
        <pt x="435" y="326" on="1"/>
        <pt x="435" y="168" on="1"/>
        <pt x="469" y="168" on="1"/>
        <pt x="486" y="168" on="0"/>
        <pt x="505" y="128" on="0"/>
        <pt x="505" y="58" on="0"/>
        <pt x="470" y="-10" on="0"/>
        <pt x="440" y="-10" on="1"/>
        <pt x="386" y="-10" on="0"/>
        <pt x="353" y="19" on="1"/>
        <pt x="338" y="31" on="0"/>
        <pt x="330" y="48" on="1"/>
        <pt x="284" y="-10" on="0"/>
        <pt x="187" y="-10" on="1"/>
        <pt x="114" y="-10" on="0"/>
        <pt x="14" y="94" on="0"/>
        <pt x="14" y="165" on="1"/>
        <pt x="14" y="328" on="0"/>
        <pt x="209" y="328" on="1"/>
        <pt x="264" y="328" on="1"/>
        <pt x="264" y="338" on="1"/>
        <pt x="264" y="364" on="0"/>
        <pt x="247" y="379" on="0"/>
        <pt x="216" y="379" on="1"/>
        <pt x="178" y="379" on="0"/>
      </contour>
      <contour>
        <pt x="188" y="179" on="1"/>
        <pt x="188" y="157" on="0"/>
        <pt x="212" y="134" on="0"/>
        <pt x="249" y="134" on="0"/>
        <pt x="264" y="149" on="1"/>
        <pt x="264" y="226" on="1"/>
        <pt x="236" y="226" on="1"/>
        <pt x="188" y="226" on="0"/>
      </contour>
    </TTGlyph>
    <TTGlyph name="aacute" xMin="14" yMin="-10" xMax="505" yMax="711">
      <contour>
        <pt x="108" y="363" on="1"/>
        <pt x="80" y="413" on="0"/>
        <pt x="80" y="476" on="0"/>
        <pt x="97" y="485" on="1"/>
        <pt x="154" y="510" on="0"/>
        <pt x="353" y="510" on="0"/>
        <pt x="435" y="417" on="0"/>
        <pt x="435" y="326" on="1"/>
        <pt x="435" y="168" on="1"/>
        <pt x="469" y="168" on="1"/>
        <pt x="486" y="168" on="0"/>
        <pt x="505" y="128" on="0"/>
        <pt x="505" y="58" on="0"/>
        <pt x="470" y="-10" on="0"/>
        <pt x="440" y="-10" on="1"/>
        <pt x="386" y="-10" on="0"/>
        <pt x="353" y="19" on="1"/>
        <pt x="338" y="31" on="0"/>
        <pt x="330" y="48" on="1"/>
        <pt x="284" y="-10" on="0"/>
        <pt x="187" y="-10" on="1"/>
        <pt x="114" y="-10" on="0"/>
        <pt x="14" y="94" on="0"/>
        <pt x="14" y="165" on="1"/>
        <pt x="14" y="328" on="0"/>
        <pt x="209" y="328" on="1"/>
        <pt x="264" y="328" on="1"/>
        <pt x="264" y="338" on="1"/>
        <pt x="264" y="364" on="0"/>
        <pt x="247" y="379" on="0"/>
        <pt x="216" y="379" on="1"/>
        <pt x="178" y="379" on="0"/>
      </contour>
      <contour>
        <pt x="188" y="179" on="1"/>
        <pt x="188" y="157" on="0"/>
        <pt x="212" y="134" on="0"/>
        <pt x="249" y="134" on="0"/>
        <pt x="264" y="149" on="1"/>
        <pt x="264" y="226" on="1"/>
        <pt x="236" y="226" on="1"/>
        <pt x="188" y="226" on="0"/>
      </contour>
      <contour>
        <pt x="177" y="529" on="1"/>
        <pt x="168" y="529" on="0"/>
        <pt x="154" y="549" on="1"/>
        <pt x="136" y="577" on="0"/>
        <pt x="136" y="615" on="0"/>
        <pt x="142" y="621" on="1"/>
        <pt x="305" y="711" on="0"/>
        <pt x="308" y="711" on="1"/>
        <pt x="318" y="711" on="0"/>
        <pt x="333" y="687" on="1"/>
        <pt x="356" y="652" on="0"/>
        <pt x="356" y="621" on="1"/>
        <pt x="356" y="610" on="0"/>
        <pt x="351" y="605" on="1"/>
        <pt x="179" y="529" on="0"/>
      </contour>
    </TTGlyph>
    <TTGlyph name="acircumflex" xMin="14" yMin="-10" xMax="505" yMax="709">
      <contour>
        <pt x="116" y="524" on="1"/>
        <pt x="107" y="524" on="0"/>
        <pt x="92" y="546" on="1"/>
        <pt x="72" y="576" on="0"/>
        <pt x="72" y="616" on="0"/>
        <pt x="78" y="621" on="1"/>
        <pt x="232" y="705" on="1"/>
        <pt x="239" y="709" on="0"/>
        <pt x="247" y="709" on="0"/>
        <pt x="254" y="705" on="1"/>
        <pt x="408" y="621" on="1"/>
        <pt x="414" y="616" on="0"/>
        <pt x="414" y="607" on="1"/>
        <pt x="414" y="576" on="0"/>
        <pt x="380" y="524" on="0"/>
        <pt x="371" y="524" on="1"/>
        <pt x="369" y="524" on="0"/>
        <pt x="243" y="598" on="1"/>
        <pt x="118" y="524" on="0"/>
      </contour>
      <contour>
        <pt x="108" y="363" on="1"/>
        <pt x="80" y="413" on="0"/>
        <pt x="80" y="476" on="0"/>
        <pt x="97" y="485" on="1"/>
        <pt x="154" y="510" on="0"/>
        <pt x="353" y="510" on="0"/>
        <pt x="435" y="417" on="0"/>
        <pt x="435" y="326" on="1"/>
        <pt x="435" y="168" on="1"/>
        <pt x="469" y="168" on="1"/>
        <pt x="486" y="168" on="0"/>
        <pt x="505" y="128" on="0"/>
        <pt x="505" y="58" on="0"/>
        <pt x="470" y="-10" on="0"/>
        <pt x="440" y="-10" on="1"/>
        <pt x="386" y="-10" on="0"/>
        <pt x="353" y="19" on="1"/>
        <pt x="338" y="31" on="0"/>
        <pt x="330" y="48" on="1"/>
        <pt x="284" y="-10" on="0"/>
        <pt x="187" y="-10" on="1"/>
        <pt x="114" y="-10" on="0"/>
        <pt x="14" y="94" on="0"/>
        <pt x="14" y="165" on="1"/>
        <pt x="14" y="328" on="0"/>
        <pt x="209" y="328" on="1"/>
        <pt x="264" y="328" on="1"/>
        <pt x="264" y="338" on="1"/>
        <pt x="264" y="364" on="0"/>
        <pt x="247" y="379" on="0"/>
        <pt x="216" y="379" on="1"/>
        <pt x="178" y="379" on="0"/>
      </contour>
      <contour>
        <pt x="188" y="179" on="1"/>
        <pt x="188" y="157" on="0"/>
        <pt x="212" y="134" on="0"/>
        <pt x="249" y="134" on="0"/>
        <pt x="264" y="149" on="1"/>
        <pt x="264" y="226" on="1"/>
        <pt x="236" y="226" on="1"/>
        <pt x="188" y="226" on="0"/>
      </contour>
    </TTGlyph>
    <TTGlyph name="acute" xMin="71" yMin="529" xMax="292" yMax="711">
      <contour>
        <pt x="113" y="529" on="1"/>
        <pt x="104" y="529" on="0"/>
        <pt x="90" y="549" on="1"/>
        <pt x="72" y="577" on="0"/>
        <pt x="72" y="615" on="0"/>
        <pt x="78" y="621" on="1"/>
        <pt x="241" y="711" on="0"/>
        <pt x="244" y="711" on="1"/>
        <pt x="254" y="711" on="0"/>
        <pt x="269" y="687" on="1"/>
        <pt x="292" y="652" on="0"/>
        <pt x="292" y="621" on="1"/>
        <pt x="292" y="610" on="0"/>
        <pt x="287" y="605" on="1"/>
        <pt x="115" y="529" on="0"/>
      </contour>
    </TTGlyph>
    <TTGlyph name="adieresis" xMin="14" yMin="-10" xMax="505" yMax="701">
      <contour>
        <pt x="202" y="552" on="1"/>
        <pt x="202" y="546" on="0"/>
        <pt x="63" y="546" on="0"/>
        <pt x="63" y="551" on="1"/>
        <pt x="63" y="691" on="1"/>
        <pt x="63" y="700" on="0"/>
        <pt x="202" y="700" on="0"/>
        <pt x="202" y="695" on="1"/>
      </contour>
      <contour>
        <pt x="432" y="552" on="1"/>
        <pt x="432" y="546" on="0"/>
        <pt x="293" y="546" on="0"/>
        <pt x="293" y="551" on="1"/>
        <pt x="293" y="691" on="1"/>
        <pt x="293" y="700" on="0"/>
        <pt x="432" y="700" on="0"/>
        <pt x="432" y="695" on="1"/>
      </contour>
      <contour>
        <pt x="108" y="363" on="1"/>
        <pt x="80" y="413" on="0"/>
        <pt x="80" y="476" on="0"/>
        <pt x="97" y="485" on="1"/>
        <pt x="154" y="510" on="0"/>
        <pt x="353" y="510" on="0"/>
        <pt x="435" y="417" on="0"/>
        <pt x="435" y="326" on="1"/>
        <pt x="435" y="168" on="1"/>
        <pt x="469" y="168" on="1"/>
        <pt x="486" y="168" on="0"/>
        <pt x="505" y="128" on="0"/>
        <pt x="505" y="58" on="0"/>
        <pt x="470" y="-10" on="0"/>
        <pt x="440" y="-10" on="1"/>
        <pt x="386" y="-10" on="0"/>
        <pt x="353" y="19" on="1"/>
        <pt x="338" y="31" on="0"/>
        <pt x="330" y="48" on="1"/>
        <pt x="284" y="-10" on="0"/>
        <pt x="187" y="-10" on="1"/>
        <pt x="114" y="-10" on="0"/>
        <pt x="14" y="94" on="0"/>
        <pt x="14" y="165" on="1"/>
        <pt x="14" y="328" on="0"/>
        <pt x="209" y="328" on="1"/>
        <pt x="264" y="328" on="1"/>
        <pt x="264" y="338" on="1"/>
        <pt x="264" y="364" on="0"/>
        <pt x="247" y="379" on="0"/>
        <pt x="216" y="379" on="1"/>
        <pt x="178" y="379" on="0"/>
      </contour>
      <contour>
        <pt x="188" y="179" on="1"/>
        <pt x="188" y="157" on="0"/>
        <pt x="212" y="134" on="0"/>
        <pt x="249" y="134" on="0"/>
        <pt x="264" y="149" on="1"/>
        <pt x="264" y="226" on="1"/>
        <pt x="236" y="226" on="1"/>
        <pt x="188" y="226" on="0"/>
      </contour>
    </TTGlyph>
    <TTGlyph name="ae" xMin="14" yMin="-10" xMax="665" yMax="498">
      <contour>
        <pt x="610" y="147" on="1"/>
        <pt x="642" y="97" on="0"/>
        <pt x="642" y="36" on="0"/>
        <pt x="624" y="26" on="1"/>
        <pt x="561" y="-10" on="0"/>
        <pt x="378" y="-10" on="0"/>
        <pt x="317" y="43" on="1"/>
        <pt x="271" y="-10" on="0"/>
        <pt x="180" y="-10" on="1"/>
        <pt x="109" y="-10" on="0"/>
        <pt x="14" y="89" on="0"/>
        <pt x="14" y="158" on="1"/>
        <pt x="14" y="318" on="0"/>
        <pt x="201" y="318" on="1"/>
        <pt x="255" y="318" on="1"/>
        <pt x="255" y="327" on="1"/>
        <pt x="255" y="351" on="0"/>
        <pt x="238" y="367" on="0"/>
        <pt x="178" y="367" on="0"/>
        <pt x="135" y="358" on="0"/>
        <pt x="111" y="353" on="0"/>
        <pt x="105" y="351" on="1"/>
        <pt x="77" y="398" on="0"/>
        <pt x="77" y="437" on="1"/>
        <pt x="77" y="460" on="0"/>
        <pt x="94" y="469" on="1"/>
        <pt x="146" y="493" on="0"/>
        <pt x="239" y="493" on="1"/>
        <pt x="296" y="493" on="0"/>
        <pt x="349" y="461" on="1"/>
        <pt x="421" y="498" on="0"/>
        <pt x="465" y="498" on="1"/>
        <pt x="559" y="498" on="0"/>
        <pt x="665" y="398" on="0"/>
        <pt x="665" y="328" on="1"/>
        <pt x="665" y="168" on="0"/>
        <pt x="485" y="168" on="1"/>
        <pt x="419" y="168" on="1"/>
        <pt x="419" y="154" on="1"/>
        <pt x="423" y="132" on="0"/>
        <pt x="453" y="116" on="0"/>
        <pt x="481" y="116" on="1"/>
        <pt x="547" y="116" on="0"/>
      </contour>
      <contour>
        <pt x="227" y="216" on="1"/>
        <pt x="181" y="216" on="0"/>
        <pt x="181" y="129" on="0"/>
        <pt x="221" y="129" on="1"/>
        <pt x="239" y="129" on="0"/>
        <pt x="255" y="143" on="1"/>
        <pt x="255" y="216" on="1"/>
      </contour>
      <contour>
        <pt x="502" y="310" on="1"/>
        <pt x="502" y="350" on="0"/>
        <pt x="462" y="350" on="1"/>
        <pt x="426" y="350" on="0"/>
        <pt x="419" y="317" on="1"/>
        <pt x="419" y="277" on="1"/>
        <pt x="470" y="277" on="1"/>
        <pt x="502" y="277" on="0"/>
      </contour>
    </TTGlyph>
    <TTGlyph name="agrave" xMin="14" yMin="-10" xMax="505" yMax="711">
      <contour>
        <pt x="108" y="363" on="1"/>
        <pt x="80" y="413" on="0"/>
        <pt x="80" y="476" on="0"/>
        <pt x="97" y="485" on="1"/>
        <pt x="154" y="510" on="0"/>
        <pt x="353" y="510" on="0"/>
        <pt x="435" y="417" on="0"/>
        <pt x="435" y="326" on="1"/>
        <pt x="435" y="168" on="1"/>
        <pt x="469" y="168" on="1"/>
        <pt x="486" y="168" on="0"/>
        <pt x="505" y="128" on="0"/>
        <pt x="505" y="58" on="0"/>
        <pt x="470" y="-10" on="0"/>
        <pt x="440" y="-10" on="1"/>
        <pt x="386" y="-10" on="0"/>
        <pt x="353" y="19" on="1"/>
        <pt x="338" y="31" on="0"/>
        <pt x="330" y="48" on="1"/>
        <pt x="284" y="-10" on="0"/>
        <pt x="187" y="-10" on="1"/>
        <pt x="114" y="-10" on="0"/>
        <pt x="14" y="94" on="0"/>
        <pt x="14" y="165" on="1"/>
        <pt x="14" y="328" on="0"/>
        <pt x="209" y="328" on="1"/>
        <pt x="264" y="328" on="1"/>
        <pt x="264" y="338" on="1"/>
        <pt x="264" y="364" on="0"/>
        <pt x="247" y="379" on="0"/>
        <pt x="216" y="379" on="1"/>
        <pt x="178" y="379" on="0"/>
      </contour>
      <contour>
        <pt x="188" y="179" on="1"/>
        <pt x="188" y="157" on="0"/>
        <pt x="212" y="134" on="0"/>
        <pt x="249" y="134" on="0"/>
        <pt x="264" y="149" on="1"/>
        <pt x="264" y="226" on="1"/>
        <pt x="236" y="226" on="1"/>
        <pt x="188" y="226" on="0"/>
      </contour>
      <contour>
        <pt x="148" y="605" on="1"/>
        <pt x="143" y="610" on="0"/>
        <pt x="143" y="619" on="1"/>
        <pt x="143" y="652" on="0"/>
        <pt x="181" y="711" on="0"/>
        <pt x="191" y="711" on="1"/>
        <pt x="194" y="711" on="0"/>
        <pt x="357" y="621" on="1"/>
        <pt x="363" y="615" on="0"/>
        <pt x="363" y="607" on="1"/>
        <pt x="363" y="577" on="0"/>
        <pt x="331" y="529" on="0"/>
        <pt x="322" y="529" on="1"/>
        <pt x="320" y="529" on="0"/>
      </contour>
    </TTGlyph>
    <TTGlyph name="ampersand" xMin="44" yMin="-10" xMax="626" yMax="710">
      <contour>
        <pt x="349" y="489" on="1"/>
        <pt x="350" y="499" on="1"/>
        <pt x="350" y="524" on="0"/>
        <pt x="317" y="554" on="0"/>
        <pt x="269" y="554" on="0"/>
        <pt x="237" y="522" on="0"/>
        <pt x="237" y="494" on="1"/>
        <pt x="237" y="418" on="0"/>
        <pt x="344" y="418" on="1"/>
        <pt x="368" y="418" on="0"/>
        <pt x="398" y="422" on="1"/>
        <pt x="595" y="447" on="0"/>
        <pt x="597" y="447" on="1"/>
        <pt x="625" y="447" on="0"/>
        <pt x="625" y="390" on="1"/>
        <pt x="625" y="344" on="0"/>
        <pt x="606" y="299" on="1"/>
        <pt x="504" y="287" on="1"/>
        <pt x="530" y="224" on="0"/>
        <pt x="530" y="173" on="1"/>
        <pt x="530" y="94" on="0"/>
        <pt x="409" y="-10" on="0"/>
        <pt x="178" y="-10" on="0"/>
        <pt x="44" y="103" on="0"/>
        <pt x="44" y="280" on="0"/>
        <pt x="129" y="343" on="1"/>
        <pt x="66" y="413" on="0"/>
        <pt x="66" y="597" on="0"/>
        <pt x="194" y="710" on="0"/>
        <pt x="398" y="710" on="0"/>
        <pt x="517" y="610" on="0"/>
        <pt x="517" y="525" on="1"/>
        <pt x="517" y="508" on="0"/>
        <pt x="452" y="476" on="0"/>
        <pt x="362" y="476" on="0"/>
      </contour>
      <contour>
        <pt x="239" y="285" on="1"/>
        <pt x="228" y="256" on="0"/>
        <pt x="228" y="211" on="0"/>
        <pt x="235" y="194" on="1"/>
        <pt x="251" y="155" on="0"/>
        <pt x="299" y="155" on="1"/>
        <pt x="333" y="155" on="0"/>
        <pt x="364" y="204" on="0"/>
        <pt x="364" y="241" on="1"/>
        <pt x="364" y="258" on="0"/>
        <pt x="362" y="275" on="0"/>
        <pt x="362" y="277" on="1"/>
        <pt x="328" y="271" on="0"/>
        <pt x="262" y="271" on="0"/>
      </contour>
    </TTGlyph>
    <TTGlyph name="aring" xMin="14" yMin="-10" xMax="505" yMax="709">
      <contour>
        <pt x="162" y="581" on="0"/>
        <pt x="162" y="657" on="0"/>
        <pt x="214" y="709" on="0"/>
        <pt x="290" y="709" on="0"/>
        <pt x="342" y="657" on="0"/>
        <pt x="342" y="581" on="0"/>
        <pt x="290" y="529" on="0"/>
        <pt x="214" y="529" on="0"/>
      </contour>
      <contour>
        <pt x="193" y="645" on="0"/>
        <pt x="193" y="595" on="0"/>
        <pt x="228" y="560" on="0"/>
        <pt x="278" y="560" on="0"/>
        <pt x="313" y="595" on="0"/>
        <pt x="313" y="645" on="0"/>
        <pt x="278" y="680" on="0"/>
        <pt x="228" y="680" on="0"/>
      </contour>
      <contour>
        <pt x="108" y="363" on="1"/>
        <pt x="80" y="413" on="0"/>
        <pt x="80" y="476" on="0"/>
        <pt x="97" y="485" on="1"/>
        <pt x="154" y="510" on="0"/>
        <pt x="353" y="510" on="0"/>
        <pt x="435" y="417" on="0"/>
        <pt x="435" y="326" on="1"/>
        <pt x="435" y="168" on="1"/>
        <pt x="469" y="168" on="1"/>
        <pt x="486" y="168" on="0"/>
        <pt x="505" y="128" on="0"/>
        <pt x="505" y="58" on="0"/>
        <pt x="470" y="-10" on="0"/>
        <pt x="440" y="-10" on="1"/>
        <pt x="386" y="-10" on="0"/>
        <pt x="353" y="19" on="1"/>
        <pt x="338" y="31" on="0"/>
        <pt x="330" y="48" on="1"/>
        <pt x="284" y="-10" on="0"/>
        <pt x="187" y="-10" on="1"/>
        <pt x="114" y="-10" on="0"/>
        <pt x="14" y="94" on="0"/>
        <pt x="14" y="165" on="1"/>
        <pt x="14" y="328" on="0"/>
        <pt x="209" y="328" on="1"/>
        <pt x="264" y="328" on="1"/>
        <pt x="264" y="338" on="1"/>
        <pt x="264" y="364" on="0"/>
        <pt x="247" y="379" on="0"/>
        <pt x="216" y="379" on="1"/>
        <pt x="178" y="379" on="0"/>
      </contour>
      <contour>
        <pt x="188" y="179" on="1"/>
        <pt x="188" y="157" on="0"/>
        <pt x="212" y="134" on="0"/>
        <pt x="249" y="134" on="0"/>
        <pt x="264" y="149" on="1"/>
        <pt x="264" y="226" on="1"/>
        <pt x="236" y="226" on="1"/>
        <pt x="188" y="226" on="0"/>
      </contour>
    </TTGlyph>
    <TTGlyph name="asciicircum" xMin="44" yMin="345" xMax="636" yMax="689">
      <contour>
        <pt x="630" y="447" on="1"/>
        <pt x="636" y="440" on="0"/>
        <pt x="636" y="419" on="0"/>
        <pt x="617" y="376" on="0"/>
        <pt x="581" y="349" on="0"/>
        <pt x="564" y="349" on="0"/>
        <pt x="558" y="355" on="1"/>
        <pt x="334" y="557" on="1"/>
        <pt x="123" y="352" on="1"/>
        <pt x="117" y="346" on="0"/>
        <pt x="100" y="346" on="0"/>
        <pt x="63" y="373" on="0"/>
        <pt x="44" y="416" on="0"/>
        <pt x="44" y="437" on="0"/>
        <pt x="51" y="444" on="1"/>
        <pt x="307" y="675" on="1"/>
        <pt x="321" y="689" on="0"/>
        <pt x="343" y="689" on="0"/>
        <pt x="353" y="679" on="1"/>
      </contour>
    </TTGlyph>
    <TTGlyph name="asciitilde" xMin="21" yMin="226" xMax="413" yMax="377">
      <contour>
        <pt x="74" y="226" on="1"/>
        <pt x="55" y="231" on="0"/>
        <pt x="22" y="288" on="0"/>
        <pt x="22" y="307" on="0"/>
        <pt x="25" y="310" on="1"/>
        <pt x="88" y="373" on="0"/>
        <pt x="155" y="373" on="1"/>
        <pt x="186" y="373" on="0"/>
        <pt x="264" y="336" on="0"/>
        <pt x="285" y="336" on="1"/>
        <pt x="322" y="337" on="0"/>
        <pt x="354" y="375" on="1"/>
        <pt x="356" y="376" on="0"/>
        <pt x="359" y="376" on="1"/>
        <pt x="371" y="376" on="0"/>
        <pt x="413" y="320" on="0"/>
        <pt x="413" y="310" on="1"/>
        <pt x="413" y="281" on="0"/>
        <pt x="366" y="248" on="1"/>
        <pt x="334" y="227" on="0"/>
        <pt x="305" y="227" on="1"/>
        <pt x="301" y="227" on="0"/>
        <pt x="298" y="227" on="1"/>
        <pt x="260" y="227" on="0"/>
        <pt x="168" y="267" on="0"/>
        <pt x="147" y="267" on="0"/>
        <pt x="133" y="263" on="0"/>
        <pt x="122" y="260" on="0"/>
        <pt x="107" y="250" on="0"/>
        <pt x="99" y="245" on="0"/>
        <pt x="79" y="229" on="0"/>
      </contour>
    </TTGlyph>
    <TTGlyph name="asterisk" xMin="81" yMin="299" xMax="488" yMax="697">
      <contour>
        <pt x="326" y="549" on="1"/>
        <pt x="447" y="572" on="0"/>
        <pt x="468" y="572" on="0"/>
        <pt x="488" y="536" on="0"/>
        <pt x="488" y="524" on="1"/>
        <pt x="488" y="486" on="0"/>
        <pt x="465" y="484" on="1"/>
        <pt x="350" y="470" on="1"/>
        <pt x="424" y="356" on="1"/>
        <pt x="438" y="322" on="0"/>
        <pt x="383" y="302" on="1"/>
        <pt x="373" y="299" on="0"/>
        <pt x="367" y="299" on="1"/>
        <pt x="347" y="299" on="0"/>
        <pt x="342" y="309" on="1"/>
        <pt x="283" y="422" on="1"/>
        <pt x="229" y="309" on="1"/>
        <pt x="223" y="301" on="0"/>
        <pt x="204" y="301" on="0"/>
        <pt x="175" y="307" on="0"/>
        <pt x="145" y="337" on="0"/>
        <pt x="145" y="354" on="0"/>
        <pt x="149" y="359" on="1"/>
        <pt x="219" y="470" on="1"/>
        <pt x="136" y="481" on="0"/>
        <pt x="104" y="484" on="1"/>
        <pt x="81" y="485" on="0"/>
        <pt x="81" y="517" on="1"/>
        <pt x="81" y="535" on="0"/>
        <pt x="101" y="572" on="0"/>
        <pt x="116" y="572" on="1"/>
        <pt x="241" y="549" on="1"/>
        <pt x="237" y="668" on="1"/>
        <pt x="236" y="685" on="0"/>
        <pt x="260" y="692" on="1"/>
        <pt x="272" y="696" on="0"/>
        <pt x="296" y="696" on="0"/>
        <pt x="308" y="692" on="1"/>
        <pt x="331" y="685" on="0"/>
        <pt x="330" y="668" on="1"/>
      </contour>
    </TTGlyph>
    <TTGlyph name="at" xMin="39" yMin="-88" xMax="787" yMax="672">
      <contour>
        <pt x="607" y="-29" on="1"/>
        <pt x="607" y="-88" on="0"/>
        <pt x="409" y="-88" on="1"/>
        <pt x="238" y="-88" on="0"/>
        <pt x="39" y="89" on="0"/>
        <pt x="39" y="252" on="1"/>
        <pt x="39" y="441" on="0"/>
        <pt x="272" y="672" on="0"/>
        <pt x="462" y="672" on="1"/>
        <pt x="609" y="672" on="0"/>
        <pt x="787" y="498" on="0"/>
        <pt x="787" y="234" on="0"/>
        <pt x="664" y="104" on="0"/>
        <pt x="575" y="104" on="1"/>
        <pt x="544" y="104" on="0"/>
        <pt x="485" y="130" on="0"/>
        <pt x="471" y="146" on="1"/>
        <pt x="424" y="105" on="0"/>
        <pt x="295" y="105" on="0"/>
        <pt x="226" y="173" on="0"/>
        <pt x="226" y="242" on="1"/>
        <pt x="226" y="351" on="0"/>
        <pt x="380" y="501" on="0"/>
        <pt x="474" y="501" on="1"/>
        <pt x="553" y="501" on="0"/>
        <pt x="571" y="470" on="1"/>
        <pt x="580" y="454" on="0"/>
        <pt x="580" y="419" on="0"/>
        <pt x="552" y="216" on="1"/>
        <pt x="594" y="214" on="1"/>
        <pt x="610" y="214" on="0"/>
        <pt x="638" y="238" on="0"/>
        <pt x="646" y="253" on="1"/>
        <pt x="667" y="289" on="0"/>
        <pt x="667" y="362" on="1"/>
        <pt x="667" y="458" on="0"/>
        <pt x="551" y="571" on="0"/>
        <pt x="456" y="571" on="1"/>
        <pt x="315" y="571" on="0"/>
        <pt x="150" y="397" on="0"/>
        <pt x="150" y="257" on="1"/>
        <pt x="150" y="19" on="0"/>
        <pt x="435" y="19" on="1"/>
        <pt x="523" y="19" on="0"/>
        <pt x="577" y="37" on="1"/>
        <pt x="582" y="32" on="0"/>
        <pt x="592" y="18" on="1"/>
        <pt x="607" y="-8" on="0"/>
      </contour>
      <contour>
        <pt x="435" y="383" on="1"/>
        <pt x="413" y="383" on="0"/>
        <pt x="368" y="305" on="0"/>
        <pt x="366" y="253" on="1"/>
        <pt x="366" y="216" on="0"/>
        <pt x="399" y="216" on="1"/>
        <pt x="418" y="216" on="0"/>
        <pt x="426" y="225" on="1"/>
        <pt x="446" y="368" on="1"/>
        <pt x="448" y="383" on="0"/>
      </contour>
    </TTGlyph>
    <TTGlyph name="atilde" xMin="14" yMin="-10" xMax="505" yMax="704">
      <contour>
        <pt x="110" y="553" on="1"/>
        <pt x="91" y="558" on="0"/>
        <pt x="58" y="616" on="0"/>
        <pt x="58" y="634" on="0"/>
        <pt x="61" y="637" on="1"/>
        <pt x="124" y="700" on="0"/>
        <pt x="191" y="700" on="1"/>
        <pt x="222" y="700" on="0"/>
        <pt x="300" y="663" on="0"/>
        <pt x="321" y="663" on="1"/>
        <pt x="358" y="664" on="0"/>
        <pt x="390" y="702" on="1"/>
        <pt x="392" y="703" on="0"/>
        <pt x="395" y="703" on="1"/>
        <pt x="407" y="703" on="0"/>
        <pt x="449" y="647" on="0"/>
        <pt x="449" y="637" on="1"/>
        <pt x="449" y="608" on="0"/>
        <pt x="402" y="576" on="1"/>
        <pt x="370" y="554" on="0"/>
        <pt x="341" y="554" on="1"/>
        <pt x="337" y="554" on="0"/>
        <pt x="334" y="554" on="1"/>
        <pt x="296" y="554" on="0"/>
        <pt x="204" y="594" on="0"/>
        <pt x="183" y="594" on="0"/>
        <pt x="169" y="590" on="0"/>
        <pt x="158" y="587" on="0"/>
        <pt x="143" y="577" on="0"/>
        <pt x="135" y="572" on="0"/>
        <pt x="115" y="556" on="0"/>
      </contour>
      <contour>
        <pt x="108" y="363" on="1"/>
        <pt x="80" y="413" on="0"/>
        <pt x="80" y="476" on="0"/>
        <pt x="97" y="485" on="1"/>
        <pt x="154" y="510" on="0"/>
        <pt x="353" y="510" on="0"/>
        <pt x="435" y="417" on="0"/>
        <pt x="435" y="326" on="1"/>
        <pt x="435" y="168" on="1"/>
        <pt x="469" y="168" on="1"/>
        <pt x="486" y="168" on="0"/>
        <pt x="505" y="128" on="0"/>
        <pt x="505" y="58" on="0"/>
        <pt x="470" y="-10" on="0"/>
        <pt x="440" y="-10" on="1"/>
        <pt x="386" y="-10" on="0"/>
        <pt x="353" y="19" on="1"/>
        <pt x="338" y="31" on="0"/>
        <pt x="330" y="48" on="1"/>
        <pt x="284" y="-10" on="0"/>
        <pt x="187" y="-10" on="1"/>
        <pt x="114" y="-10" on="0"/>
        <pt x="14" y="94" on="0"/>
        <pt x="14" y="165" on="1"/>
        <pt x="14" y="328" on="0"/>
        <pt x="209" y="328" on="1"/>
        <pt x="264" y="328" on="1"/>
        <pt x="264" y="338" on="1"/>
        <pt x="264" y="364" on="0"/>
        <pt x="247" y="379" on="0"/>
        <pt x="216" y="379" on="1"/>
        <pt x="178" y="379" on="0"/>
      </contour>
      <contour>
        <pt x="188" y="179" on="1"/>
        <pt x="188" y="157" on="0"/>
        <pt x="212" y="134" on="0"/>
        <pt x="249" y="134" on="0"/>
        <pt x="264" y="149" on="1"/>
        <pt x="264" y="226" on="1"/>
        <pt x="236" y="226" on="1"/>
        <pt x="188" y="226" on="0"/>
      </contour>
    </TTGlyph>
    <TTGlyph name="b" xMin="50" yMin="-10" xMax="494" yMax="710">
      <contour>
        <pt x="50" y="697" on="1"/>
        <pt x="50" y="709" on="0"/>
        <pt x="223" y="709" on="0"/>
        <pt x="223" y="696" on="1"/>
        <pt x="223" y="502" on="1"/>
        <pt x="266" y="510" on="0"/>
        <pt x="284" y="510" on="1"/>
        <pt x="494" y="510" on="0"/>
        <pt x="494" y="269" on="1"/>
        <pt x="494" y="135" on="0"/>
        <pt x="365" y="-10" on="0"/>
        <pt x="128" y="-10" on="0"/>
        <pt x="50" y="43" on="1"/>
      </contour>
      <contour>
        <pt x="256" y="354" on="1"/>
        <pt x="239" y="354" on="0"/>
        <pt x="223" y="343" on="1"/>
        <pt x="223" y="152" on="1"/>
        <pt x="237" y="146" on="0"/>
        <pt x="268" y="146" on="0"/>
        <pt x="284" y="158" on="1"/>
        <pt x="312" y="178" on="0"/>
        <pt x="312" y="251" on="1"/>
        <pt x="312" y="354" on="0"/>
      </contour>
    </TTGlyph>
    <TTGlyph name="backslash" xMin="17" yMin="-106" xMax="590" yMax="785">
      <contour>
        <pt x="587" y="-36" on="1"/>
        <pt x="589" y="-40" on="0"/>
        <pt x="589" y="-52" on="0"/>
        <pt x="584" y="-62" on="1"/>
        <pt x="574" y="-82" on="0"/>
        <pt x="536" y="-99" on="1"/>
        <pt x="521" y="-106" on="0"/>
        <pt x="514" y="-106" on="1"/>
        <pt x="492" y="-106" on="0"/>
        <pt x="487" y="-95" on="1"/>
        <pt x="20" y="716" on="1"/>
        <pt x="17" y="721" on="0"/>
        <pt x="17" y="732" on="0"/>
        <pt x="22" y="742" on="1"/>
        <pt x="31" y="760" on="0"/>
        <pt x="70" y="778" on="1"/>
        <pt x="84" y="785" on="0"/>
        <pt x="99" y="785" on="0"/>
        <pt x="114" y="784" on="0"/>
        <pt x="120" y="775" on="1"/>
      </contour>
    </TTGlyph>
    <TTGlyph name="bar" xMin="253" yMin="-220" xMax="369" yMax="923">
      <contour>
        <pt x="369" y="893" on="1"/>
        <pt x="369" y="-190" on="1"/>
        <pt x="369" y="-208" on="0"/>
        <pt x="340" y="-216" on="1"/>
        <pt x="326" y="-220" on="0"/>
        <pt x="311" y="-220" on="1"/>
        <pt x="282" y="-216" on="1"/>
        <pt x="253" y="-208" on="0"/>
        <pt x="253" y="-190" on="1"/>
        <pt x="253" y="893" on="1"/>
        <pt x="253" y="911" on="0"/>
        <pt x="282" y="919" on="1"/>
        <pt x="296" y="923" on="0"/>
        <pt x="311" y="923" on="1"/>
        <pt x="340" y="919" on="1"/>
        <pt x="369" y="911" on="0"/>
      </contour>
    </TTGlyph>
    <TTGlyph name="braceleft" xMin="30" yMin="-215" xMax="283" yMax="848">
      <contour>
        <pt x="225" y="202" on="1"/>
        <pt x="225" y="-63" on="1"/>
        <pt x="225" y="-104" on="0"/>
        <pt x="276" y="-145" on="1"/>
        <pt x="282" y="-150" on="0"/>
        <pt x="282" y="-169" on="0"/>
        <pt x="227" y="-214" on="0"/>
        <pt x="199" y="-214" on="1"/>
        <pt x="186" y="-214" on="0"/>
        <pt x="179" y="-208" on="1"/>
        <pt x="158" y="-188" on="0"/>
        <pt x="133" y="-159" on="0"/>
        <pt x="109" y="-99" on="0"/>
        <pt x="109" y="-63" on="1"/>
        <pt x="109" y="177" on="1"/>
        <pt x="109" y="201" on="0"/>
        <pt x="73" y="251" on="0"/>
        <pt x="46" y="263" on="1"/>
        <pt x="30" y="272" on="0"/>
        <pt x="30" y="366" on="0"/>
        <pt x="46" y="373" on="1"/>
        <pt x="109" y="397" on="0"/>
        <pt x="109" y="457" on="1"/>
        <pt x="109" y="712" on="1"/>
        <pt x="109" y="780" on="0"/>
        <pt x="183" y="842" on="1"/>
        <pt x="192" y="847" on="0"/>
        <pt x="203" y="847" on="1"/>
        <pt x="240" y="847" on="0"/>
        <pt x="270" y="814" on="1"/>
        <pt x="281" y="801" on="0"/>
        <pt x="281" y="785" on="0"/>
        <pt x="276" y="780" on="1"/>
        <pt x="225" y="729" on="0"/>
        <pt x="225" y="697" on="1"/>
        <pt x="225" y="447" on="1"/>
        <pt x="225" y="373" on="0"/>
        <pt x="167" y="315" on="1"/>
        <pt x="225" y="259" on="0"/>
      </contour>
    </TTGlyph>
    <TTGlyph name="braceright" xMin="80" yMin="-215" xMax="332" yMax="848">
      <contour>
        <pt x="138" y="-63" on="1"/>
        <pt x="138" y="202" on="1"/>
        <pt x="138" y="260" on="0"/>
        <pt x="195" y="315" on="1"/>
        <pt x="137" y="373" on="0"/>
        <pt x="137" y="447" on="1"/>
        <pt x="137" y="697" on="1"/>
        <pt x="137" y="729" on="0"/>
        <pt x="86" y="780" on="1"/>
        <pt x="81" y="785" on="0"/>
        <pt x="81" y="802" on="0"/>
        <pt x="109" y="835" on="0"/>
        <pt x="147" y="847" on="0"/>
        <pt x="169" y="847" on="0"/>
        <pt x="179" y="842" on="1"/>
        <pt x="256" y="778" on="0"/>
        <pt x="256" y="712" on="1"/>
        <pt x="256" y="457" on="1"/>
        <pt x="256" y="396" on="0"/>
        <pt x="316" y="373" on="1"/>
        <pt x="332" y="366" on="0"/>
        <pt x="332" y="328" on="1"/>
        <pt x="332" y="272" on="0"/>
        <pt x="316" y="263" on="1"/>
        <pt x="289" y="251" on="0"/>
        <pt x="256" y="202" on="0"/>
        <pt x="256" y="177" on="1"/>
        <pt x="256" y="-63" on="1"/>
        <pt x="256" y="-99" on="0"/>
        <pt x="230" y="-160" on="0"/>
        <pt x="206" y="-187" on="0"/>
        <pt x="183" y="-208" on="1"/>
        <pt x="175" y="-215" on="0"/>
        <pt x="145" y="-215" on="0"/>
        <pt x="81" y="-176" on="0"/>
        <pt x="81" y="-156" on="1"/>
        <pt x="81" y="-149" on="0"/>
        <pt x="86" y="-145" on="1"/>
        <pt x="138" y="-103" on="0"/>
      </contour>
    </TTGlyph>
    <TTGlyph name="bracketleft" xMin="80" yMin="-116" xMax="355" yMax="798">
      <contour>
        <pt x="109" y="798" on="1"/>
        <pt x="325" y="798" on="1"/>
        <pt x="343" y="798" on="0"/>
        <pt x="351" y="769" on="1"/>
        <pt x="355" y="754" on="0"/>
        <pt x="355" y="726" on="0"/>
        <pt x="351" y="711" on="1"/>
        <pt x="343" y="682" on="0"/>
        <pt x="325" y="682" on="1"/>
        <pt x="196" y="682" on="1"/>
        <pt x="196" y="0" on="1"/>
        <pt x="325" y="0" on="1"/>
        <pt x="343" y="0" on="0"/>
        <pt x="351" y="-29" on="1"/>
        <pt x="355" y="-44" on="0"/>
        <pt x="355" y="-72" on="0"/>
        <pt x="351" y="-87" on="1"/>
        <pt x="343" y="-116" on="0"/>
        <pt x="325" y="-116" on="1"/>
        <pt x="109" y="-116" on="1"/>
        <pt x="80" y="-116" on="0"/>
        <pt x="80" y="-87" on="1"/>
        <pt x="80" y="769" on="1"/>
        <pt x="80" y="798" on="0"/>
      </contour>
    </TTGlyph>
    <TTGlyph name="bracketright" xMin="30" yMin="-116" xMax="305" yMax="798">
      <contour>
        <pt x="60" y="798" on="1"/>
        <pt x="276" y="798" on="1"/>
        <pt x="305" y="798" on="0"/>
        <pt x="305" y="769" on="1"/>
        <pt x="305" y="-87" on="1"/>
        <pt x="305" y="-116" on="0"/>
        <pt x="276" y="-116" on="1"/>
        <pt x="60" y="-116" on="1"/>
        <pt x="42" y="-116" on="0"/>
        <pt x="34" y="-87" on="1"/>
        <pt x="30" y="-72" on="0"/>
        <pt x="30" y="-44" on="0"/>
        <pt x="34" y="-29" on="1"/>
        <pt x="42" y="0" on="0"/>
        <pt x="60" y="0" on="1"/>
        <pt x="189" y="0" on="1"/>
        <pt x="189" y="682" on="1"/>
        <pt x="60" y="682" on="1"/>
        <pt x="42" y="682" on="0"/>
        <pt x="34" y="711" on="1"/>
        <pt x="30" y="726" on="0"/>
        <pt x="30" y="754" on="0"/>
        <pt x="34" y="769" on="1"/>
        <pt x="42" y="798" on="0"/>
      </contour>
    </TTGlyph>
    <TTGlyph name="brokenbar" xMin="153" yMin="-220" xMax="269" yMax="741">
      <contour>
        <pt x="269" y="193" on="1"/>
        <pt x="269" y="-190" on="1"/>
        <pt x="269" y="-208" on="0"/>
        <pt x="240" y="-216" on="1"/>
        <pt x="226" y="-220" on="0"/>
        <pt x="211" y="-220" on="1"/>
        <pt x="182" y="-216" on="1"/>
        <pt x="153" y="-208" on="0"/>
        <pt x="153" y="-190" on="1"/>
        <pt x="153" y="193" on="1"/>
        <pt x="153" y="211" on="0"/>
        <pt x="182" y="219" on="1"/>
        <pt x="196" y="223" on="0"/>
        <pt x="211" y="223" on="1"/>
        <pt x="240" y="219" on="1"/>
        <pt x="269" y="211" on="0"/>
      </contour>
      <contour>
        <pt x="269" y="711" on="1"/>
        <pt x="269" y="355" on="1"/>
        <pt x="269" y="337" on="0"/>
        <pt x="240" y="329" on="1"/>
        <pt x="226" y="325" on="0"/>
        <pt x="211" y="325" on="1"/>
        <pt x="182" y="329" on="1"/>
        <pt x="153" y="337" on="0"/>
        <pt x="153" y="355" on="1"/>
        <pt x="153" y="711" on="1"/>
        <pt x="153" y="729" on="0"/>
        <pt x="182" y="737" on="1"/>
        <pt x="196" y="741" on="0"/>
        <pt x="211" y="741" on="1"/>
        <pt x="240" y="737" on="1"/>
        <pt x="269" y="729" on="0"/>
      </contour>
    </TTGlyph>
    <TTGlyph name="bullet" xMin="83" yMin="169" xMax="273" yMax="359">
      <contour>
        <pt x="83" y="225" on="0"/>
        <pt x="83" y="303" on="0"/>
        <pt x="139" y="359" on="0"/>
        <pt x="217" y="359" on="0"/>
        <pt x="273" y="303" on="0"/>
        <pt x="273" y="225" on="0"/>
        <pt x="217" y="169" on="0"/>
        <pt x="139" y="169" on="0"/>
      </contour>
    </TTGlyph>
    <TTGlyph name="c" xMin="26" yMin="-10" xMax="415" yMax="510">
      <contour>
        <pt x="209" y="248" on="1"/>
        <pt x="209" y="150" on="0"/>
        <pt x="283" y="150" on="1"/>
        <pt x="331" y="150" on="0"/>
        <pt x="363" y="169" on="1"/>
        <pt x="378" y="169" on="0"/>
        <pt x="397" y="66" on="0"/>
        <pt x="397" y="29" on="0"/>
        <pt x="392" y="23" on="1"/>
        <pt x="339" y="-10" on="0"/>
        <pt x="155" y="-10" on="0"/>
        <pt x="26" y="127" on="0"/>
        <pt x="26" y="364" on="0"/>
        <pt x="153" y="510" on="0"/>
        <pt x="364" y="510" on="0"/>
        <pt x="405" y="459" on="1"/>
        <pt x="414" y="448" on="0"/>
        <pt x="414" y="405" on="0"/>
        <pt x="406" y="374" on="1"/>
        <pt x="388" y="310" on="0"/>
        <pt x="359" y="300" on="1"/>
        <pt x="355" y="299" on="0"/>
        <pt x="340" y="299" on="0"/>
        <pt x="329" y="311" on="1"/>
        <pt x="290" y="350" on="0"/>
        <pt x="243" y="350" on="0"/>
        <pt x="209" y="302" on="0"/>
      </contour>
    </TTGlyph>
    <TTGlyph name="caron" xMin="72" yMin="524" xMax="414" yMax="709">
      <contour>
        <pt x="370" y="709" on="1"/>
        <pt x="379" y="709" on="0"/>
        <pt x="394" y="687" on="1"/>
        <pt x="414" y="657" on="0"/>
        <pt x="414" y="617" on="0"/>
        <pt x="408" y="612" on="1"/>
        <pt x="254" y="528" on="1"/>
        <pt x="247" y="524" on="0"/>
        <pt x="239" y="524" on="0"/>
        <pt x="232" y="528" on="1"/>
        <pt x="78" y="612" on="1"/>
        <pt x="72" y="617" on="0"/>
        <pt x="72" y="626" on="1"/>
        <pt x="72" y="657" on="0"/>
        <pt x="106" y="709" on="0"/>
        <pt x="115" y="709" on="1"/>
        <pt x="117" y="709" on="0"/>
        <pt x="243" y="635" on="1"/>
        <pt x="368" y="709" on="0"/>
      </contour>
    </TTGlyph>
    <TTGlyph name="ccedilla" xMin="26" yMin="-177" xMax="415" yMax="510">
      <contour>
        <pt x="209" y="248" on="1"/>
        <pt x="209" y="150" on="0"/>
        <pt x="283" y="150" on="1"/>
        <pt x="331" y="150" on="0"/>
        <pt x="363" y="169" on="1"/>
        <pt x="378" y="169" on="0"/>
        <pt x="397" y="66" on="0"/>
        <pt x="397" y="29" on="0"/>
        <pt x="392" y="23" on="1"/>
        <pt x="352" y="-1" on="0"/>
        <pt x="295" y="-7" on="1"/>
        <pt x="307" y="-53" on="0"/>
        <pt x="307" y="-113" on="0"/>
        <pt x="298" y="-130" on="1"/>
        <pt x="273" y="-177" on="0"/>
        <pt x="205" y="-177" on="1"/>
        <pt x="164" y="-177" on="0"/>
        <pt x="132" y="-160" on="1"/>
        <pt x="120" y="-154" on="0"/>
        <pt x="120" y="-127" on="1"/>
        <pt x="120" y="-120" on="0"/>
        <pt x="120" y="-110" on="1"/>
        <pt x="125" y="-69" on="0"/>
        <pt x="143" y="-69" on="1"/>
        <pt x="176" y="-69" on="1"/>
        <pt x="197" y="-69" on="0"/>
        <pt x="209" y="-58" on="0"/>
        <pt x="209" y="-37" on="1"/>
        <pt x="209" y="-6" on="1"/>
        <pt x="130" y="7" on="0"/>
        <pt x="26" y="140" on="0"/>
        <pt x="26" y="364" on="0"/>
        <pt x="153" y="510" on="0"/>
        <pt x="364" y="510" on="0"/>
        <pt x="405" y="459" on="1"/>
        <pt x="414" y="448" on="0"/>
        <pt x="414" y="405" on="0"/>
        <pt x="406" y="374" on="1"/>
        <pt x="388" y="310" on="0"/>
        <pt x="359" y="300" on="1"/>
        <pt x="355" y="299" on="0"/>
        <pt x="340" y="299" on="0"/>
        <pt x="329" y="311" on="1"/>
        <pt x="290" y="350" on="0"/>
        <pt x="243" y="350" on="0"/>
        <pt x="209" y="302" on="0"/>
      </contour>
    </TTGlyph>
    <TTGlyph name="cedilla" xMin="100" yMin="-170" xMax="294" yMax="21">
      <contour>
        <pt x="101" y="-120" on="1"/>
        <pt x="101" y="-66" on="0"/>
        <pt x="128" y="-66" on="1"/>
        <pt x="161" y="-66" on="1"/>
        <pt x="182" y="-66" on="0"/>
        <pt x="194" y="-55" on="0"/>
        <pt x="194" y="-34" on="1"/>
        <pt x="194" y="21" on="1"/>
        <pt x="255" y="21" on="1"/>
        <pt x="293" y="-61" on="0"/>
        <pt x="293" y="-103" on="1"/>
        <pt x="293" y="-116" on="0"/>
        <pt x="290" y="-125" on="1"/>
        <pt x="275" y="-170" on="0"/>
        <pt x="196" y="-170" on="1"/>
        <pt x="152" y="-170" on="0"/>
        <pt x="117" y="-154" on="1"/>
        <pt x="101" y="-147" on="0"/>
      </contour>
    </TTGlyph>
    <TTGlyph name="cent" xMin="35" yMin="-17" xMax="475" yMax="726">
      <contour>
        <pt x="277" y="707" on="1"/>
        <pt x="277" y="726" on="0"/>
        <pt x="333" y="726" on="0"/>
        <pt x="333" y="707" on="1"/>
        <pt x="333" y="644" on="1"/>
        <pt x="391" y="640" on="0"/>
        <pt x="473" y="604" on="0"/>
        <pt x="473" y="551" on="0"/>
        <pt x="442" y="484" on="0"/>
        <pt x="426" y="464" on="1"/>
        <pt x="410" y="443" on="1"/>
        <pt x="384" y="458" on="0"/>
        <pt x="333" y="461" on="1"/>
        <pt x="333" y="255" on="1"/>
        <pt x="388" y="259" on="0"/>
        <pt x="427" y="277" on="1"/>
        <pt x="447" y="250" on="0"/>
        <pt x="475" y="178" on="0"/>
        <pt x="475" y="113" on="0"/>
        <pt x="395" y="70" on="0"/>
        <pt x="333" y="66" on="1"/>
        <pt x="333" y="4" on="1"/>
        <pt x="333" y="-17" on="0"/>
        <pt x="277" y="-17" on="0"/>
        <pt x="277" y="4" on="1"/>
        <pt x="277" y="65" on="1"/>
        <pt x="167" y="71" on="0"/>
        <pt x="35" y="220" on="0"/>
        <pt x="35" y="489" on="0"/>
        <pt x="168" y="635" on="0"/>
        <pt x="277" y="644" on="1"/>
      </contour>
      <contour>
        <pt x="205" y="445" on="0"/>
        <pt x="205" y="273" on="0"/>
        <pt x="277" y="257" on="1"/>
        <pt x="277" y="459" on="1"/>
      </contour>
    </TTGlyph>
    <TTGlyph name="circumflex" xMin="72" yMin="524" xMax="414" yMax="709">
      <contour>
        <pt x="116" y="524" on="1"/>
        <pt x="107" y="524" on="0"/>
        <pt x="92" y="546" on="1"/>
        <pt x="72" y="576" on="0"/>
        <pt x="72" y="616" on="0"/>
        <pt x="78" y="621" on="1"/>
        <pt x="232" y="705" on="1"/>
        <pt x="239" y="709" on="0"/>
        <pt x="247" y="709" on="0"/>
        <pt x="254" y="705" on="1"/>
        <pt x="408" y="621" on="1"/>
        <pt x="414" y="616" on="0"/>
        <pt x="414" y="607" on="1"/>
        <pt x="414" y="576" on="0"/>
        <pt x="380" y="524" on="0"/>
        <pt x="371" y="524" on="1"/>
        <pt x="369" y="524" on="0"/>
        <pt x="243" y="598" on="1"/>
        <pt x="118" y="524" on="0"/>
      </contour>
    </TTGlyph>
    <TTGlyph name="colon" xMin="58" yMin="-11" xMax="247" yMax="507">
      <contour>
        <pt x="247" y="-3" on="1"/>
        <pt x="247" y="-10" on="0"/>
        <pt x="58" y="-10" on="0"/>
        <pt x="58" y="-4" on="1"/>
        <pt x="58" y="176" on="1"/>
        <pt x="58" y="185" on="0"/>
        <pt x="247" y="185" on="0"/>
        <pt x="247" y="180" on="1"/>
      </contour>
      <contour>
        <pt x="247" y="318" on="1"/>
        <pt x="247" y="311" on="0"/>
        <pt x="58" y="311" on="0"/>
        <pt x="58" y="317" on="1"/>
        <pt x="58" y="497" on="1"/>
        <pt x="58" y="506" on="0"/>
        <pt x="247" y="506" on="0"/>
        <pt x="247" y="501" on="1"/>
      </contour>
    </TTGlyph>
    <TTGlyph name="comma" xMin="53" yMin="-107" xMax="284" yMax="165">
      <contour>
        <pt x="120" y="148" on="1"/>
        <pt x="126" y="164" on="0"/>
        <pt x="284" y="164" on="0"/>
        <pt x="284" y="143" on="1"/>
        <pt x="282" y="58" on="1"/>
        <pt x="224" y="-78" on="1"/>
        <pt x="211" y="-107" on="0"/>
        <pt x="76" y="-107" on="0"/>
        <pt x="58" y="-85" on="1"/>
        <pt x="54" y="-80" on="0"/>
        <pt x="54" y="-71" on="0"/>
        <pt x="55" y="-67" on="1"/>
        <pt x="116" y="57" on="1"/>
      </contour>
    </TTGlyph>
    <TTGlyph name="copyright" xMin="84" yMin="195" xMax="622" yMax="733">
      <contour>
        <pt x="84" y="352" on="0"/>
        <pt x="84" y="576" on="0"/>
        <pt x="241" y="733" on="0"/>
        <pt x="465" y="733" on="0"/>
        <pt x="622" y="576" on="0"/>
        <pt x="622" y="352" on="0"/>
        <pt x="465" y="195" on="0"/>
        <pt x="241" y="195" on="0"/>
      </contour>
      <contour>
        <pt x="268" y="680" on="0"/>
        <pt x="142" y="554" on="0"/>
        <pt x="142" y="378" on="0"/>
        <pt x="265" y="253" on="0"/>
        <pt x="444" y="253" on="0"/>
        <pt x="569" y="379" on="0"/>
        <pt x="569" y="554" on="0"/>
        <pt x="444" y="680" on="0"/>
      </contour>
      <contour>
        <pt x="450" y="583" on="1"/>
        <pt x="450" y="573" on="0"/>
        <pt x="437" y="536" on="0"/>
        <pt x="420" y="510" on="0"/>
        <pt x="414" y="514" on="1"/>
        <pt x="397" y="524" on="0"/>
        <pt x="353" y="524" on="0"/>
        <pt x="325" y="496" on="0"/>
        <pt x="325" y="469" on="1"/>
        <pt x="325" y="414" on="0"/>
        <pt x="382" y="414" on="1"/>
        <pt x="411" y="414" on="0"/>
        <pt x="422" y="425" on="1"/>
        <pt x="427" y="428" on="0"/>
        <pt x="435" y="415" on="1"/>
        <pt x="455" y="382" on="0"/>
        <pt x="455" y="355" on="1"/>
        <pt x="455" y="338" on="0"/>
        <pt x="402" y="318" on="0"/>
        <pt x="366" y="318" on="1"/>
        <pt x="300" y="318" on="0"/>
        <pt x="216" y="396" on="0"/>
        <pt x="216" y="536" on="0"/>
        <pt x="302" y="616" on="0"/>
        <pt x="367" y="616" on="1"/>
        <pt x="399" y="616" on="0"/>
        <pt x="450" y="598" on="0"/>
      </contour>
    </TTGlyph>
    <TTGlyph name="currency" xMin="87" yMin="75" xMax="621" yMax="604">
      <contour>
        <pt x="473" y="159" on="1"/>
        <pt x="417" y="123" on="0"/>
        <pt x="291" y="123" on="0"/>
        <pt x="238" y="159" on="1"/>
        <pt x="159" y="80" on="1"/>
        <pt x="154" y="75" on="0"/>
        <pt x="140" y="75" on="0"/>
        <pt x="110" y="93" on="0"/>
        <pt x="88" y="132" on="0"/>
        <pt x="97" y="141" on="1"/>
        <pt x="176" y="220" on="1"/>
        <pt x="140" y="276" on="0"/>
        <pt x="140" y="404" on="0"/>
        <pt x="174" y="456" on="1"/>
        <pt x="92" y="538" on="1"/>
        <pt x="87" y="542" on="0"/>
        <pt x="87" y="556" on="0"/>
        <pt x="105" y="585" on="0"/>
        <pt x="135" y="604" on="0"/>
        <pt x="149" y="604" on="0"/>
        <pt x="154" y="599" on="1"/>
        <pt x="235" y="518" on="1"/>
        <pt x="289" y="556" on="0"/>
        <pt x="420" y="556" on="0"/>
        <pt x="475" y="519" on="1"/>
        <pt x="555" y="599" on="1"/>
        <pt x="559" y="604" on="0"/>
        <pt x="573" y="604" on="0"/>
        <pt x="602" y="587" on="0"/>
        <pt x="621" y="556" on="0"/>
        <pt x="621" y="542" on="0"/>
        <pt x="617" y="538" on="1"/>
        <pt x="536" y="458" on="1"/>
        <pt x="572" y="405" on="0"/>
        <pt x="572" y="275" on="0"/>
        <pt x="534" y="219" on="1"/>
        <pt x="613" y="140" on="1"/>
        <pt x="622" y="131" on="0"/>
        <pt x="598" y="93" on="0"/>
        <pt x="570" y="75" on="0"/>
        <pt x="556" y="75" on="0"/>
        <pt x="552" y="80" on="1"/>
      </contour>
      <contour>
        <pt x="235" y="388" on="0"/>
        <pt x="235" y="292" on="0"/>
        <pt x="270" y="255" on="1"/>
        <pt x="305" y="220" on="0"/>
        <pt x="405" y="220" on="0"/>
        <pt x="474" y="289" on="0"/>
        <pt x="474" y="389" on="0"/>
        <pt x="405" y="460" on="0"/>
        <pt x="357" y="460" on="1"/>
        <pt x="307" y="460" on="0"/>
      </contour>
    </TTGlyph>
    <TTGlyph name="d" xMin="26" yMin="-10" xMax="546" yMax="710">
      <contour>
        <pt x="298" y="694" on="1"/>
        <pt x="298" y="709" on="0"/>
        <pt x="377" y="709" on="1"/>
        <pt x="404" y="709" on="0"/>
        <pt x="475" y="702" on="0"/>
        <pt x="475" y="696" on="1"/>
        <pt x="475" y="169" on="1"/>
        <pt x="510" y="169" on="1"/>
        <pt x="535" y="169" on="0"/>
        <pt x="543" y="124" on="1"/>
        <pt x="545" y="111" on="0"/>
        <pt x="545" y="66" on="0"/>
        <pt x="531" y="34" on="1"/>
        <pt x="511" y="-10" on="0"/>
        <pt x="467" y="-10" on="1"/>
        <pt x="434" y="-10" on="0"/>
        <pt x="383" y="16" on="0"/>
        <pt x="374" y="30" on="1"/>
        <pt x="365" y="43" on="1"/>
        <pt x="310" y="-10" on="0"/>
        <pt x="144" y="-10" on="0"/>
        <pt x="26" y="128" on="0"/>
        <pt x="26" y="375" on="0"/>
        <pt x="150" y="510" on="0"/>
        <pt x="243" y="510" on="1"/>
        <pt x="270" y="510" on="0"/>
        <pt x="298" y="504" on="1"/>
      </contour>
      <contour>
        <pt x="265" y="350" on="1"/>
        <pt x="209" y="350" on="0"/>
        <pt x="209" y="249" on="1"/>
        <pt x="209" y="198" on="0"/>
        <pt x="241" y="153" on="0"/>
        <pt x="280" y="153" on="0"/>
        <pt x="298" y="170" on="1"/>
        <pt x="298" y="340" on="1"/>
        <pt x="281" y="350" on="0"/>
      </contour>
    </TTGlyph>
    <TTGlyph name="dagger" xMin="37" yMin="-80" xMax="442" yMax="733">
      <contour>
        <pt x="298" y="406" on="1"/>
        <pt x="298" y="-50" on="1"/>
        <pt x="298" y="-68" on="0"/>
        <pt x="269" y="-76" on="1"/>
        <pt x="254" y="-80" on="0"/>
        <pt x="240" y="-80" on="1"/>
        <pt x="211" y="-76" on="1"/>
        <pt x="182" y="-68" on="0"/>
        <pt x="182" y="-50" on="1"/>
        <pt x="182" y="406" on="1"/>
        <pt x="67" y="406" on="1"/>
        <pt x="48" y="406" on="0"/>
        <pt x="41" y="435" on="1"/>
        <pt x="38" y="448" on="0"/>
        <pt x="38" y="477" on="0"/>
        <pt x="42" y="493" on="1"/>
        <pt x="51" y="522" on="0"/>
        <pt x="69" y="522" on="1"/>
        <pt x="182" y="522" on="1"/>
        <pt x="182" y="703" on="1"/>
        <pt x="182" y="721" on="0"/>
        <pt x="211" y="729" on="1"/>
        <pt x="226" y="733" on="0"/>
        <pt x="240" y="733" on="1"/>
        <pt x="269" y="729" on="1"/>
        <pt x="298" y="721" on="0"/>
        <pt x="298" y="703" on="1"/>
        <pt x="298" y="522" on="1"/>
        <pt x="412" y="522" on="1"/>
        <pt x="431" y="522" on="0"/>
        <pt x="438" y="493" on="1"/>
        <pt x="441" y="480" on="0"/>
        <pt x="441" y="451" on="0"/>
        <pt x="436" y="435" on="1"/>
        <pt x="428" y="406" on="0"/>
        <pt x="410" y="406" on="1"/>
      </contour>
    </TTGlyph>
    <TTGlyph name="daggerdbl" xMin="37" yMin="-80" xMax="442" yMax="733">
      <contour>
        <pt x="410" y="116" on="1"/>
        <pt x="298" y="116" on="1"/>
        <pt x="298" y="-50" on="1"/>
        <pt x="298" y="-68" on="0"/>
        <pt x="269" y="-76" on="1"/>
        <pt x="254" y="-80" on="0"/>
        <pt x="240" y="-80" on="1"/>
        <pt x="211" y="-76" on="1"/>
        <pt x="182" y="-68" on="0"/>
        <pt x="182" y="-50" on="1"/>
        <pt x="182" y="116" on="1"/>
        <pt x="67" y="116" on="1"/>
        <pt x="48" y="116" on="0"/>
        <pt x="41" y="145" on="1"/>
        <pt x="38" y="158" on="0"/>
        <pt x="38" y="187" on="0"/>
        <pt x="42" y="203" on="1"/>
        <pt x="51" y="232" on="0"/>
        <pt x="69" y="232" on="1"/>
        <pt x="182" y="232" on="1"/>
        <pt x="182" y="436" on="1"/>
        <pt x="67" y="436" on="1"/>
        <pt x="48" y="436" on="0"/>
        <pt x="41" y="465" on="1"/>
        <pt x="38" y="478" on="0"/>
        <pt x="38" y="507" on="0"/>
        <pt x="42" y="523" on="1"/>
        <pt x="51" y="552" on="0"/>
        <pt x="69" y="552" on="1"/>
        <pt x="182" y="552" on="1"/>
        <pt x="182" y="703" on="1"/>
        <pt x="182" y="721" on="0"/>
        <pt x="211" y="729" on="1"/>
        <pt x="226" y="733" on="0"/>
        <pt x="240" y="733" on="1"/>
        <pt x="269" y="729" on="1"/>
        <pt x="298" y="721" on="0"/>
        <pt x="298" y="703" on="1"/>
        <pt x="298" y="552" on="1"/>
        <pt x="412" y="552" on="1"/>
        <pt x="431" y="552" on="0"/>
        <pt x="438" y="523" on="1"/>
        <pt x="441" y="510" on="0"/>
        <pt x="441" y="481" on="0"/>
        <pt x="436" y="465" on="1"/>
        <pt x="428" y="436" on="0"/>
        <pt x="410" y="436" on="1"/>
        <pt x="298" y="436" on="1"/>
        <pt x="298" y="232" on="1"/>
        <pt x="412" y="232" on="1"/>
        <pt x="431" y="232" on="0"/>
        <pt x="438" y="203" on="1"/>
        <pt x="441" y="190" on="0"/>
        <pt x="441" y="161" on="0"/>
        <pt x="436" y="145" on="1"/>
        <pt x="428" y="116" on="0"/>
      </contour>
    </TTGlyph>
    <TTGlyph name="degree" xMin="40" yMin="353" xMax="345" yMax="699">
      <contour>
        <pt x="40" y="443" on="0"/>
        <pt x="40" y="609" on="0"/>
        <pt x="121" y="699" on="0"/>
        <pt x="264" y="699" on="0"/>
        <pt x="345" y="608" on="0"/>
        <pt x="345" y="444" on="0"/>
        <pt x="264" y="353" on="0"/>
        <pt x="121" y="353" on="0"/>
      </contour>
      <contour>
        <pt x="108" y="573" on="0"/>
        <pt x="108" y="479" on="0"/>
        <pt x="153" y="428" on="0"/>
        <pt x="232" y="428" on="0"/>
        <pt x="276" y="479" on="0"/>
        <pt x="276" y="573" on="0"/>
        <pt x="232" y="624" on="0"/>
        <pt x="153" y="624" on="0"/>
      </contour>
    </TTGlyph>
    <TTGlyph name="dieresis" xMin="38" yMin="545" xMax="407" yMax="701">
      <contour>
        <pt x="177" y="552" on="1"/>
        <pt x="177" y="546" on="0"/>
        <pt x="38" y="546" on="0"/>
        <pt x="38" y="551" on="1"/>
        <pt x="38" y="691" on="1"/>
        <pt x="38" y="700" on="0"/>
        <pt x="177" y="700" on="0"/>
        <pt x="177" y="695" on="1"/>
      </contour>
      <contour>
        <pt x="407" y="552" on="1"/>
        <pt x="407" y="546" on="0"/>
        <pt x="268" y="546" on="0"/>
        <pt x="268" y="551" on="1"/>
        <pt x="268" y="691" on="1"/>
        <pt x="268" y="700" on="0"/>
        <pt x="407" y="700" on="0"/>
        <pt x="407" y="695" on="1"/>
      </contour>
    </TTGlyph>
    <TTGlyph name="divide" xMin="38" yMin="87" xMax="562" yMax="610">
      <contour>
        <pt x="374" y="93" on="1"/>
        <pt x="374" y="88" on="0"/>
        <pt x="227" y="88" on="0"/>
        <pt x="227" y="92" on="1"/>
        <pt x="227" y="232" on="1"/>
        <pt x="227" y="239" on="0"/>
        <pt x="374" y="239" on="0"/>
        <pt x="374" y="235" on="1"/>
      </contour>
      <contour>
        <pt x="374" y="462" on="1"/>
        <pt x="374" y="456" on="0"/>
        <pt x="227" y="456" on="0"/>
        <pt x="227" y="462" on="1"/>
        <pt x="227" y="602" on="1"/>
        <pt x="227" y="609" on="0"/>
        <pt x="374" y="609" on="0"/>
        <pt x="374" y="605" on="1"/>
      </contour>
      <contour>
        <pt x="527" y="290" on="1"/>
        <pt x="73" y="290" on="1"/>
        <pt x="52" y="290" on="0"/>
        <pt x="43" y="319" on="1"/>
        <pt x="38" y="334" on="0"/>
        <pt x="38" y="362" on="0"/>
        <pt x="43" y="377" on="1"/>
        <pt x="52" y="406" on="0"/>
        <pt x="73" y="406" on="1"/>
        <pt x="527" y="406" on="1"/>
        <pt x="548" y="406" on="0"/>
        <pt x="557" y="377" on="1"/>
        <pt x="562" y="362" on="0"/>
        <pt x="562" y="334" on="0"/>
        <pt x="557" y="319" on="1"/>
        <pt x="548" y="290" on="0"/>
      </contour>
    </TTGlyph>
    <TTGlyph name="dollar" xMin="34" yMin="-106" xMax="513" yMax="797">
      <contour>
        <pt x="303" y="767" on="1"/>
        <pt x="303" y="710" on="1"/>
        <pt x="377" y="707" on="0"/>
        <pt x="485" y="672" on="0"/>
        <pt x="485" y="637" on="1"/>
        <pt x="485" y="606" on="0"/>
        <pt x="444" y="504" on="0"/>
        <pt x="436" y="501" on="1"/>
        <pt x="352" y="536" on="0"/>
        <pt x="303" y="540" on="1"/>
        <pt x="303" y="427" on="1"/>
        <pt x="513" y="419" on="0"/>
        <pt x="513" y="225" on="1"/>
        <pt x="513" y="134" on="0"/>
        <pt x="409" y="4" on="0"/>
        <pt x="303" y="-7" on="1"/>
        <pt x="303" y="-76" on="1"/>
        <pt x="303" y="-94" on="0"/>
        <pt x="282" y="-106" on="0"/>
        <pt x="275" y="-106" on="1"/>
        <pt x="261" y="-102" on="1"/>
        <pt x="247" y="-94" on="0"/>
        <pt x="247" y="-76" on="1"/>
        <pt x="247" y="-10" on="1"/>
        <pt x="163" y="-8" on="0"/>
        <pt x="34" y="48" on="0"/>
        <pt x="34" y="91" on="1"/>
        <pt x="34" y="147" on="0"/>
        <pt x="68" y="204" on="1"/>
        <pt x="71" y="210" on="0"/>
        <pt x="76" y="217" on="1"/>
        <pt x="157" y="168" on="0"/>
        <pt x="247" y="162" on="1"/>
        <pt x="247" y="272" on="1"/>
        <pt x="34" y="285" on="0"/>
        <pt x="34" y="490" on="1"/>
        <pt x="34" y="580" on="0"/>
        <pt x="148" y="696" on="0"/>
        <pt x="247" y="708" on="1"/>
        <pt x="247" y="767" on="1"/>
        <pt x="247" y="785" on="0"/>
        <pt x="268" y="797" on="0"/>
        <pt x="275" y="797" on="1"/>
        <pt x="289" y="793" on="1"/>
        <pt x="303" y="785" on="0"/>
      </contour>
      <contour>
        <pt x="374" y="230" on="1"/>
        <pt x="374" y="253" on="0"/>
        <pt x="343" y="270" on="0"/>
        <pt x="303" y="272" on="1"/>
        <pt x="303" y="164" on="1"/>
        <pt x="374" y="176" on="0"/>
      </contour>
      <contour>
        <pt x="186" y="479" on="1"/>
        <pt x="186" y="437" on="0"/>
        <pt x="247" y="430" on="1"/>
        <pt x="247" y="539" on="1"/>
        <pt x="186" y="529" on="0"/>
      </contour>
    </TTGlyph>
    <TTGlyph name="dotlessi" xMin="38" yMin="-3" xMax="215" yMax="487">
      <contour>
        <pt x="215" y="6" on="1"/>
        <pt x="215" y="-2" on="0"/>
        <pt x="38" y="-2" on="0"/>
        <pt x="38" y="5" on="1"/>
        <pt x="38" y="480" on="1"/>
        <pt x="38" y="486" on="0"/>
        <pt x="215" y="486" on="0"/>
        <pt x="215" y="481" on="1"/>
      </contour>
    </TTGlyph>
    <TTGlyph name="e" xMin="26" yMin="-10" xMax="466" yMax="510">
      <contour>
        <pt x="423" y="27" on="1"/>
        <pt x="360" y="-10" on="0"/>
        <pt x="162" y="-10" on="0"/>
        <pt x="26" y="125" on="0"/>
        <pt x="26" y="364" on="0"/>
        <pt x="157" y="510" on="0"/>
        <pt x="357" y="510" on="0"/>
        <pt x="466" y="408" on="0"/>
        <pt x="466" y="335" on="1"/>
        <pt x="466" y="173" on="0"/>
        <pt x="280" y="173" on="1"/>
        <pt x="211" y="173" on="1"/>
        <pt x="211" y="143" on="0"/>
        <pt x="244" y="120" on="0"/>
        <pt x="276" y="120" on="1"/>
        <pt x="346" y="120" on="0"/>
        <pt x="409" y="152" on="1"/>
        <pt x="410" y="153" on="0"/>
        <pt x="418" y="138" on="1"/>
        <pt x="442" y="95" on="0"/>
        <pt x="442" y="36" on="0"/>
      </contour>
      <contour>
        <pt x="298" y="316" on="1"/>
        <pt x="298" y="358" on="0"/>
        <pt x="257" y="358" on="1"/>
        <pt x="238" y="358" on="0"/>
        <pt x="211" y="335" on="0"/>
        <pt x="211" y="313" on="1"/>
        <pt x="211" y="282" on="1"/>
        <pt x="265" y="282" on="1"/>
        <pt x="298" y="282" on="0"/>
      </contour>
    </TTGlyph>
    <TTGlyph name="eacute" xMin="26" yMin="-10" xMax="466" yMax="711">
      <contour>
        <pt x="178" y="529" on="1"/>
        <pt x="169" y="529" on="0"/>
        <pt x="155" y="549" on="1"/>
        <pt x="137" y="577" on="0"/>
        <pt x="137" y="615" on="0"/>
        <pt x="143" y="621" on="1"/>
        <pt x="306" y="711" on="0"/>
        <pt x="309" y="711" on="1"/>
        <pt x="319" y="711" on="0"/>
        <pt x="334" y="687" on="1"/>
        <pt x="357" y="652" on="0"/>
        <pt x="357" y="621" on="1"/>
        <pt x="357" y="610" on="0"/>
        <pt x="352" y="605" on="1"/>
        <pt x="180" y="529" on="0"/>
      </contour>
      <contour>
        <pt x="423" y="27" on="1"/>
        <pt x="360" y="-10" on="0"/>
        <pt x="162" y="-10" on="0"/>
        <pt x="26" y="125" on="0"/>
        <pt x="26" y="364" on="0"/>
        <pt x="157" y="510" on="0"/>
        <pt x="357" y="510" on="0"/>
        <pt x="466" y="408" on="0"/>
        <pt x="466" y="335" on="1"/>
        <pt x="466" y="173" on="0"/>
        <pt x="280" y="173" on="1"/>
        <pt x="211" y="173" on="1"/>
        <pt x="211" y="143" on="0"/>
        <pt x="244" y="120" on="0"/>
        <pt x="276" y="120" on="1"/>
        <pt x="346" y="120" on="0"/>
        <pt x="409" y="152" on="1"/>
        <pt x="410" y="153" on="0"/>
        <pt x="418" y="138" on="1"/>
        <pt x="442" y="95" on="0"/>
        <pt x="442" y="36" on="0"/>
      </contour>
      <contour>
        <pt x="298" y="316" on="1"/>
        <pt x="298" y="358" on="0"/>
        <pt x="257" y="358" on="1"/>
        <pt x="238" y="358" on="0"/>
        <pt x="211" y="335" on="0"/>
        <pt x="211" y="313" on="1"/>
        <pt x="211" y="282" on="1"/>
        <pt x="265" y="282" on="1"/>
        <pt x="298" y="282" on="0"/>
      </contour>
    </TTGlyph>
    <TTGlyph name="ecircumflex" xMin="26" yMin="-10" xMax="466" yMax="709">
      <contour>
        <pt x="120" y="524" on="1"/>
        <pt x="111" y="524" on="0"/>
        <pt x="96" y="546" on="1"/>
        <pt x="76" y="576" on="0"/>
        <pt x="76" y="616" on="0"/>
        <pt x="82" y="621" on="1"/>
        <pt x="236" y="705" on="1"/>
        <pt x="243" y="709" on="0"/>
        <pt x="251" y="709" on="0"/>
        <pt x="258" y="705" on="1"/>
        <pt x="412" y="621" on="1"/>
        <pt x="418" y="616" on="0"/>
        <pt x="418" y="607" on="1"/>
        <pt x="418" y="576" on="0"/>
        <pt x="384" y="524" on="0"/>
        <pt x="375" y="524" on="1"/>
        <pt x="373" y="524" on="0"/>
        <pt x="247" y="598" on="1"/>
        <pt x="122" y="524" on="0"/>
      </contour>
      <contour>
        <pt x="423" y="27" on="1"/>
        <pt x="360" y="-10" on="0"/>
        <pt x="162" y="-10" on="0"/>
        <pt x="26" y="125" on="0"/>
        <pt x="26" y="364" on="0"/>
        <pt x="157" y="510" on="0"/>
        <pt x="357" y="510" on="0"/>
        <pt x="466" y="408" on="0"/>
        <pt x="466" y="335" on="1"/>
        <pt x="466" y="173" on="0"/>
        <pt x="280" y="173" on="1"/>
        <pt x="211" y="173" on="1"/>
        <pt x="211" y="143" on="0"/>
        <pt x="244" y="120" on="0"/>
        <pt x="276" y="120" on="1"/>
        <pt x="346" y="120" on="0"/>
        <pt x="409" y="152" on="1"/>
        <pt x="410" y="153" on="0"/>
        <pt x="418" y="138" on="1"/>
        <pt x="442" y="95" on="0"/>
        <pt x="442" y="36" on="0"/>
      </contour>
      <contour>
        <pt x="298" y="316" on="1"/>
        <pt x="298" y="358" on="0"/>
        <pt x="257" y="358" on="1"/>
        <pt x="238" y="358" on="0"/>
        <pt x="211" y="335" on="0"/>
        <pt x="211" y="313" on="1"/>
        <pt x="211" y="282" on="1"/>
        <pt x="265" y="282" on="1"/>
        <pt x="298" y="282" on="0"/>
      </contour>
    </TTGlyph>
    <TTGlyph name="edieresis" xMin="26" yMin="-10" xMax="466" yMax="701">
      <contour>
        <pt x="201" y="552" on="1"/>
        <pt x="201" y="546" on="0"/>
        <pt x="62" y="546" on="0"/>
        <pt x="62" y="551" on="1"/>
        <pt x="62" y="691" on="1"/>
        <pt x="62" y="700" on="0"/>
        <pt x="201" y="700" on="0"/>
        <pt x="201" y="695" on="1"/>
      </contour>
      <contour>
        <pt x="431" y="552" on="1"/>
        <pt x="431" y="546" on="0"/>
        <pt x="292" y="546" on="0"/>
        <pt x="292" y="551" on="1"/>
        <pt x="292" y="691" on="1"/>
        <pt x="292" y="700" on="0"/>
        <pt x="431" y="700" on="0"/>
        <pt x="431" y="695" on="1"/>
      </contour>
      <contour>
        <pt x="423" y="27" on="1"/>
        <pt x="360" y="-10" on="0"/>
        <pt x="162" y="-10" on="0"/>
        <pt x="26" y="125" on="0"/>
        <pt x="26" y="364" on="0"/>
        <pt x="157" y="510" on="0"/>
        <pt x="357" y="510" on="0"/>
        <pt x="466" y="408" on="0"/>
        <pt x="466" y="335" on="1"/>
        <pt x="466" y="173" on="0"/>
        <pt x="280" y="173" on="1"/>
        <pt x="211" y="173" on="1"/>
        <pt x="211" y="143" on="0"/>
        <pt x="244" y="120" on="0"/>
        <pt x="276" y="120" on="1"/>
        <pt x="346" y="120" on="0"/>
        <pt x="409" y="152" on="1"/>
        <pt x="410" y="153" on="0"/>
        <pt x="418" y="138" on="1"/>
        <pt x="442" y="95" on="0"/>
        <pt x="442" y="36" on="0"/>
      </contour>
      <contour>
        <pt x="298" y="316" on="1"/>
        <pt x="298" y="358" on="0"/>
        <pt x="257" y="358" on="1"/>
        <pt x="238" y="358" on="0"/>
        <pt x="211" y="335" on="0"/>
        <pt x="211" y="313" on="1"/>
        <pt x="211" y="282" on="1"/>
        <pt x="265" y="282" on="1"/>
        <pt x="298" y="282" on="0"/>
      </contour>
    </TTGlyph>
    <TTGlyph name="egrave" xMin="26" yMin="-10" xMax="466" yMax="711">
      <contour>
        <pt x="314" y="529" on="0"/>
        <pt x="142" y="605" on="1"/>
        <pt x="137" y="610" on="0"/>
        <pt x="137" y="619" on="1"/>
        <pt x="137" y="652" on="0"/>
        <pt x="175" y="711" on="0"/>
        <pt x="185" y="711" on="1"/>
        <pt x="188" y="711" on="0"/>
        <pt x="351" y="621" on="1"/>
        <pt x="357" y="615" on="0"/>
        <pt x="357" y="607" on="1"/>
        <pt x="357" y="577" on="0"/>
        <pt x="325" y="529" on="0"/>
        <pt x="316" y="529" on="1"/>
      </contour>
      <contour>
        <pt x="423" y="27" on="1"/>
        <pt x="360" y="-10" on="0"/>
        <pt x="162" y="-10" on="0"/>
        <pt x="26" y="125" on="0"/>
        <pt x="26" y="364" on="0"/>
        <pt x="157" y="510" on="0"/>
        <pt x="357" y="510" on="0"/>
        <pt x="466" y="408" on="0"/>
        <pt x="466" y="335" on="1"/>
        <pt x="466" y="173" on="0"/>
        <pt x="280" y="173" on="1"/>
        <pt x="211" y="173" on="1"/>
        <pt x="211" y="143" on="0"/>
        <pt x="244" y="120" on="0"/>
        <pt x="276" y="120" on="1"/>
        <pt x="346" y="120" on="0"/>
        <pt x="409" y="152" on="1"/>
        <pt x="410" y="153" on="0"/>
        <pt x="418" y="138" on="1"/>
        <pt x="442" y="95" on="0"/>
        <pt x="442" y="36" on="0"/>
      </contour>
      <contour>
        <pt x="298" y="316" on="1"/>
        <pt x="298" y="358" on="0"/>
        <pt x="257" y="358" on="1"/>
        <pt x="238" y="358" on="0"/>
        <pt x="211" y="335" on="0"/>
        <pt x="211" y="313" on="1"/>
        <pt x="211" y="282" on="1"/>
        <pt x="265" y="282" on="1"/>
        <pt x="298" y="282" on="0"/>
      </contour>
    </TTGlyph>
    <TTGlyph name="eight" xMin="27" yMin="-11" xMax="538" yMax="709">
      <contour>
        <pt x="538" y="211" on="1"/>
        <pt x="538" y="113" on="0"/>
        <pt x="397" y="-11" on="0"/>
        <pt x="162" y="-11" on="0"/>
        <pt x="27" y="108" on="0"/>
        <pt x="27" y="301" on="0"/>
        <pt x="124" y="376" on="1"/>
        <pt x="56" y="435" on="0"/>
        <pt x="56" y="601" on="0"/>
        <pt x="186" y="709" on="0"/>
        <pt x="388" y="709" on="0"/>
        <pt x="509" y="608" on="0"/>
        <pt x="508" y="455" on="0"/>
        <pt x="444" y="393" on="1"/>
        <pt x="485" y="363" on="0"/>
        <pt x="538" y="268" on="0"/>
      </contour>
      <contour>
        <pt x="225" y="220" on="1"/>
        <pt x="225" y="191" on="0"/>
        <pt x="260" y="156" on="0"/>
        <pt x="312" y="156" on="0"/>
        <pt x="345" y="191" on="0"/>
        <pt x="345" y="220" on="1"/>
        <pt x="345" y="274" on="0"/>
        <pt x="276" y="309" on="1"/>
        <pt x="225" y="278" on="0"/>
      </contour>
      <contour>
        <pt x="333" y="503" on="1"/>
        <pt x="333" y="525" on="0"/>
        <pt x="302" y="555" on="0"/>
        <pt x="283" y="555" on="1"/>
        <pt x="232" y="555" on="0"/>
        <pt x="230" y="506" on="1"/>
        <pt x="230" y="461" on="0"/>
        <pt x="299" y="421" on="1"/>
        <pt x="333" y="459" on="0"/>
      </contour>
    </TTGlyph>
    <TTGlyph name="ellipsis" xMin="58" yMin="-11" xMax="853" yMax="186">
      <contour>
        <pt x="247" y="-3" on="1"/>
        <pt x="247" y="-10" on="0"/>
        <pt x="58" y="-10" on="0"/>
        <pt x="58" y="-4" on="1"/>
        <pt x="58" y="176" on="1"/>
        <pt x="58" y="185" on="0"/>
        <pt x="247" y="185" on="0"/>
        <pt x="247" y="180" on="1"/>
      </contour>
      <contour>
        <pt x="550" y="-3" on="1"/>
        <pt x="550" y="-10" on="0"/>
        <pt x="361" y="-10" on="0"/>
        <pt x="361" y="-4" on="1"/>
        <pt x="361" y="176" on="1"/>
        <pt x="361" y="185" on="0"/>
        <pt x="550" y="185" on="0"/>
        <pt x="550" y="180" on="1"/>
      </contour>
      <contour>
        <pt x="853" y="-3" on="1"/>
        <pt x="853" y="-10" on="0"/>
        <pt x="664" y="-10" on="0"/>
        <pt x="664" y="-4" on="1"/>
        <pt x="664" y="176" on="1"/>
        <pt x="664" y="185" on="0"/>
        <pt x="853" y="185" on="0"/>
        <pt x="853" y="180" on="1"/>
      </contour>
    </TTGlyph>
    <TTGlyph name="emdash" xMin="67" yMin="190" xMax="700" yMax="306">
      <contour>
        <pt x="670" y="190" on="1"/>
        <pt x="97" y="190" on="1"/>
        <pt x="79" y="190" on="0"/>
        <pt x="71" y="219" on="1"/>
        <pt x="67" y="234" on="0"/>
        <pt x="67" y="262" on="0"/>
        <pt x="71" y="277" on="1"/>
        <pt x="79" y="306" on="0"/>
        <pt x="97" y="306" on="1"/>
        <pt x="670" y="306" on="1"/>
        <pt x="688" y="306" on="0"/>
        <pt x="696" y="277" on="1"/>
        <pt x="700" y="262" on="0"/>
        <pt x="700" y="234" on="0"/>
        <pt x="696" y="219" on="1"/>
        <pt x="688" y="190" on="0"/>
      </contour>
    </TTGlyph>
    <TTGlyph name="endash" xMin="47" yMin="190" xMax="422" yMax="306">
      <contour>
        <pt x="392" y="190" on="1"/>
        <pt x="77" y="190" on="1"/>
        <pt x="59" y="190" on="0"/>
        <pt x="51" y="219" on="1"/>
        <pt x="47" y="234" on="0"/>
        <pt x="47" y="262" on="0"/>
        <pt x="51" y="277" on="1"/>
        <pt x="59" y="306" on="0"/>
        <pt x="77" y="306" on="1"/>
        <pt x="392" y="306" on="1"/>
        <pt x="410" y="306" on="0"/>
        <pt x="418" y="277" on="1"/>
        <pt x="422" y="262" on="0"/>
        <pt x="422" y="234" on="0"/>
        <pt x="418" y="219" on="1"/>
        <pt x="410" y="190" on="0"/>
      </contour>
    </TTGlyph>
    <TTGlyph name="equal" xMin="67" yMin="160" xMax="522" yMax="500">
      <contour>
        <pt x="492" y="160" on="1"/>
        <pt x="97" y="160" on="1"/>
        <pt x="79" y="160" on="0"/>
        <pt x="71" y="189" on="1"/>
        <pt x="67" y="204" on="0"/>
        <pt x="67" y="232" on="0"/>
        <pt x="71" y="247" on="1"/>
        <pt x="79" y="276" on="0"/>
        <pt x="97" y="276" on="1"/>
        <pt x="492" y="276" on="1"/>
        <pt x="510" y="276" on="0"/>
        <pt x="518" y="247" on="1"/>
        <pt x="522" y="232" on="0"/>
        <pt x="522" y="204" on="0"/>
        <pt x="518" y="189" on="1"/>
        <pt x="510" y="160" on="0"/>
      </contour>
      <contour>
        <pt x="492" y="384" on="1"/>
        <pt x="97" y="384" on="1"/>
        <pt x="79" y="384" on="0"/>
        <pt x="71" y="413" on="1"/>
        <pt x="67" y="428" on="0"/>
        <pt x="67" y="456" on="0"/>
        <pt x="71" y="471" on="1"/>
        <pt x="79" y="500" on="0"/>
        <pt x="97" y="500" on="1"/>
        <pt x="492" y="500" on="1"/>
        <pt x="510" y="500" on="0"/>
        <pt x="518" y="471" on="1"/>
        <pt x="522" y="456" on="0"/>
        <pt x="522" y="428" on="0"/>
        <pt x="518" y="413" on="1"/>
        <pt x="510" y="384" on="0"/>
      </contour>
    </TTGlyph>
    <TTGlyph name="eth" xMin="40" yMin="-10" xMax="549" yMax="709">
      <contour>
        <pt x="288" y="489" on="1"/>
        <pt x="129" y="457" on="1"/>
        <pt x="115" y="457" on="0"/>
        <pt x="97" y="484" on="0"/>
        <pt x="97" y="500" on="1"/>
        <pt x="97" y="528" on="0"/>
        <pt x="120" y="532" on="1"/>
        <pt x="237" y="556" on="1"/>
        <pt x="212" y="585" on="0"/>
        <pt x="175" y="620" on="1"/>
        <pt x="234" y="709" on="0"/>
        <pt x="288" y="709" on="1"/>
        <pt x="350" y="709" on="0"/>
        <pt x="429" y="595" on="1"/>
        <pt x="513" y="612" on="1"/>
        <pt x="517" y="612" on="1"/>
        <pt x="531" y="612" on="0"/>
        <pt x="549" y="585" on="0"/>
        <pt x="549" y="569" on="1"/>
        <pt x="549" y="541" on="0"/>
        <pt x="527" y="537" on="1"/>
        <pt x="470" y="525" on="1"/>
        <pt x="520" y="427" on="0"/>
        <pt x="520" y="149" on="0"/>
        <pt x="386" y="-10" on="0"/>
        <pt x="260" y="-10" on="1"/>
        <pt x="156" y="-10" on="0"/>
        <pt x="40" y="111" on="0"/>
        <pt x="40" y="303" on="0"/>
        <pt x="151" y="400" on="0"/>
        <pt x="236" y="400" on="1"/>
        <pt x="280" y="400" on="0"/>
        <pt x="331" y="386" on="1"/>
        <pt x="327" y="429" on="0"/>
      </contour>
      <contour>
        <pt x="213" y="215" on="1"/>
        <pt x="213" y="154" on="0"/>
        <pt x="262" y="154" on="1"/>
        <pt x="297" y="154" on="0"/>
        <pt x="329" y="204" on="0"/>
        <pt x="329" y="242" on="1"/>
        <pt x="329" y="254" on="0"/>
        <pt x="328" y="261" on="1"/>
        <pt x="308" y="275" on="0"/>
        <pt x="264" y="275" on="1"/>
        <pt x="240" y="275" on="0"/>
        <pt x="213" y="242" on="0"/>
      </contour>
    </TTGlyph>
    <TTGlyph name="exclam" xMin="45" yMin="-4" xMax="230" yMax="711">
      <contour>
        <pt x="210" y="210" on="1"/>
        <pt x="210" y="204" on="0"/>
        <pt x="67" y="204" on="0"/>
        <pt x="67" y="209" on="1"/>
        <pt x="47" y="702" on="1"/>
        <pt x="47" y="710" on="0"/>
        <pt x="230" y="710" on="0"/>
        <pt x="230" y="703" on="1"/>
      </contour>
      <contour>
        <pt x="45" y="150" on="1"/>
        <pt x="45" y="157" on="0"/>
        <pt x="230" y="157" on="0"/>
        <pt x="230" y="151" on="1"/>
        <pt x="230" y="7" on="1"/>
        <pt x="230" y="-3" on="0"/>
        <pt x="45" y="-3" on="0"/>
        <pt x="45" y="3" on="1"/>
      </contour>
    </TTGlyph>
    <TTGlyph name="exclamdown" xMin="45" yMin="-199" xMax="230" yMax="504">
      <contour>
        <pt x="65" y="290" on="1"/>
        <pt x="65" y="296" on="0"/>
        <pt x="208" y="296" on="0"/>
        <pt x="208" y="291" on="1"/>
        <pt x="228" y="-190" on="1"/>
        <pt x="228" y="-198" on="0"/>
        <pt x="45" y="-198" on="0"/>
        <pt x="45" y="-191" on="1"/>
      </contour>
      <contour>
        <pt x="230" y="350" on="1"/>
        <pt x="230" y="343" on="0"/>
        <pt x="45" y="343" on="0"/>
        <pt x="45" y="349" on="1"/>
        <pt x="45" y="493" on="1"/>
        <pt x="45" y="503" on="0"/>
        <pt x="230" y="503" on="0"/>
        <pt x="230" y="497" on="1"/>
      </contour>
    </TTGlyph>
    <TTGlyph name="f" xMin="20" yMin="0" xMax="402" yMax="709">
      <contour>
        <pt x="84" y="367" on="1"/>
        <pt x="35" y="367" on="1"/>
        <pt x="20" y="367" on="0"/>
        <pt x="20" y="500" on="0"/>
        <pt x="35" y="500" on="1"/>
        <pt x="84" y="500" on="1"/>
        <pt x="84" y="522" on="1"/>
        <pt x="84" y="628" on="0"/>
        <pt x="173" y="709" on="0"/>
        <pt x="333" y="709" on="0"/>
        <pt x="394" y="680" on="1"/>
        <pt x="402" y="677" on="0"/>
        <pt x="402" y="640" on="0"/>
        <pt x="368" y="558" on="0"/>
        <pt x="356" y="552" on="1"/>
        <pt x="322" y="573" on="0"/>
        <pt x="286" y="573" on="1"/>
        <pt x="247" y="573" on="0"/>
        <pt x="247" y="521" on="1"/>
        <pt x="247" y="500" on="1"/>
        <pt x="330" y="500" on="1"/>
        <pt x="348" y="500" on="0"/>
        <pt x="348" y="436" on="1"/>
        <pt x="348" y="366" on="0"/>
        <pt x="325" y="366" on="1"/>
        <pt x="261" y="366" on="1"/>
        <pt x="261" y="12" on="1"/>
        <pt x="261" y="0" on="0"/>
        <pt x="84" y="0" on="0"/>
        <pt x="84" y="12" on="1"/>
      </contour>
    </TTGlyph>
    <TTGlyph name="fi" xMin="20" yMin="-3" xMax="565" yMax="710">
      <contour>
        <pt x="563" y="6" on="1"/>
        <pt x="563" y="-2" on="0"/>
        <pt x="380" y="-2" on="0"/>
        <pt x="380" y="5" on="1"/>
        <pt x="380" y="366" on="1"/>
        <pt x="252" y="366" on="1"/>
        <pt x="252" y="12" on="1"/>
        <pt x="252" y="0" on="0"/>
        <pt x="85" y="0" on="0"/>
        <pt x="85" y="12" on="1"/>
        <pt x="85" y="367" on="1"/>
        <pt x="36" y="367" on="1"/>
        <pt x="21" y="367" on="0"/>
        <pt x="21" y="500" on="0"/>
        <pt x="36" y="500" on="1"/>
        <pt x="85" y="500" on="1"/>
        <pt x="85" y="522" on="1"/>
        <pt x="85" y="627" on="0"/>
        <pt x="170" y="709" on="0"/>
        <pt x="248" y="709" on="1"/>
        <pt x="298" y="709" on="0"/>
        <pt x="353" y="678" on="0"/>
        <pt x="353" y="635" on="0"/>
        <pt x="347" y="611" on="1"/>
        <pt x="336" y="566" on="0"/>
        <pt x="329" y="559" on="1"/>
        <pt x="299" y="573" on="0"/>
        <pt x="252" y="573" on="0"/>
        <pt x="235" y="550" on="0"/>
        <pt x="235" y="521" on="1"/>
        <pt x="235" y="500" on="1"/>
        <pt x="525" y="500" on="1"/>
        <pt x="563" y="500" on="0"/>
        <pt x="563" y="473" on="1"/>
      </contour>
      <contour>
        <pt x="565" y="556" on="1"/>
        <pt x="565" y="550" on="0"/>
        <pt x="380" y="550" on="0"/>
        <pt x="380" y="558" on="1"/>
        <pt x="380" y="699" on="1"/>
        <pt x="380" y="709" on="0"/>
        <pt x="565" y="709" on="0"/>
        <pt x="565" y="703" on="1"/>
      </contour>
    </TTGlyph>
    <TTGlyph name="five" xMin="43" yMin="-10" xMax="474" yMax="700">
      <contour>
        <pt x="427" y="700" on="1"/>
        <pt x="446" y="700" on="0"/>
        <pt x="446" y="617" on="1"/>
        <pt x="446" y="591" on="0"/>
        <pt x="437" y="520" on="0"/>
        <pt x="425" y="520" on="1"/>
        <pt x="230" y="520" on="1"/>
        <pt x="229" y="447" on="1"/>
        <pt x="262" y="447" on="1"/>
        <pt x="369" y="447" on="0"/>
        <pt x="474" y="323" on="0"/>
        <pt x="474" y="119" on="0"/>
        <pt x="330" y="-10" on="0"/>
        <pt x="104" y="-10" on="0"/>
        <pt x="52" y="22" on="1"/>
        <pt x="44" y="35" on="0"/>
        <pt x="44" y="90" on="0"/>
        <pt x="60" y="191" on="0"/>
        <pt x="74" y="191" on="1"/>
        <pt x="75" y="191" on="0"/>
        <pt x="80" y="187" on="1"/>
        <pt x="151" y="158" on="0"/>
        <pt x="226" y="158" on="0"/>
        <pt x="275" y="199" on="0"/>
        <pt x="275" y="231" on="1"/>
        <pt x="275" y="311" on="0"/>
        <pt x="189" y="311" on="1"/>
        <pt x="103" y="310" on="1"/>
        <pt x="93" y="308" on="0"/>
        <pt x="73" y="329" on="0"/>
        <pt x="73" y="346" on="1"/>
        <pt x="73" y="659" on="1"/>
        <pt x="73" y="700" on="0"/>
        <pt x="103" y="700" on="1"/>
      </contour>
    </TTGlyph>
    <TTGlyph name="fl" xMin="20" yMin="-3" xMax="563" yMax="710">
      <contour>
        <pt x="563" y="6" on="1"/>
        <pt x="563" y="-2" on="0"/>
        <pt x="380" y="-2" on="0"/>
        <pt x="380" y="5" on="1"/>
        <pt x="380" y="366" on="1"/>
        <pt x="251" y="366" on="1"/>
        <pt x="251" y="12" on="1"/>
        <pt x="251" y="0" on="0"/>
        <pt x="84" y="0" on="0"/>
        <pt x="84" y="12" on="1"/>
        <pt x="84" y="367" on="1"/>
        <pt x="35" y="367" on="1"/>
        <pt x="20" y="367" on="0"/>
        <pt x="20" y="500" on="0"/>
        <pt x="35" y="500" on="1"/>
        <pt x="84" y="500" on="1"/>
        <pt x="84" y="522" on="1"/>
        <pt x="84" y="627" on="0"/>
        <pt x="169" y="709" on="0"/>
        <pt x="247" y="709" on="1"/>
        <pt x="297" y="709" on="0"/>
        <pt x="352" y="678" on="0"/>
        <pt x="352" y="635" on="0"/>
        <pt x="346" y="611" on="1"/>
        <pt x="335" y="566" on="0"/>
        <pt x="328" y="559" on="1"/>
        <pt x="298" y="573" on="0"/>
        <pt x="251" y="573" on="0"/>
        <pt x="234" y="550" on="0"/>
        <pt x="234" y="521" on="1"/>
        <pt x="234" y="500" on="1"/>
        <pt x="380" y="500" on="1"/>
        <pt x="380" y="699" on="1"/>
        <pt x="380" y="709" on="0"/>
        <pt x="563" y="709" on="0"/>
        <pt x="563" y="703" on="1"/>
      </contour>
    </TTGlyph>
    <TTGlyph name="florin" xMin="-90" yMin="-195" xMax="462" yMax="709">
      <contour>
        <pt x="376" y="500" on="1"/>
        <pt x="387" y="500" on="0"/>
        <pt x="387" y="466" on="1"/>
        <pt x="387" y="416" on="0"/>
        <pt x="370" y="380" on="1"/>
        <pt x="364" y="366" on="0"/>
        <pt x="357" y="366" on="1"/>
        <pt x="283" y="366" on="1"/>
        <pt x="245" y="-18" on="1"/>
        <pt x="221" y="-195" on="0"/>
        <pt x="37" y="-195" on="1"/>
        <pt x="-16" y="-195" on="0"/>
        <pt x="-90" y="-169" on="0"/>
        <pt x="-90" y="-117" on="0"/>
        <pt x="-54" y="-51" on="0"/>
        <pt x="-45" y="-38" on="1"/>
        <pt x="-13" y="-59" on="0"/>
        <pt x="34" y="-59" on="1"/>
        <pt x="74" y="-59" on="0"/>
        <pt x="79" y="-7" on="1"/>
        <pt x="116" y="367" on="1"/>
        <pt x="47" y="367" on="1"/>
        <pt x="36" y="367" on="0"/>
        <pt x="36" y="398" on="1"/>
        <pt x="36" y="418" on="0"/>
        <pt x="41" y="445" on="1"/>
        <pt x="51" y="500" on="0"/>
        <pt x="61" y="500" on="1"/>
        <pt x="130" y="500" on="1"/>
        <pt x="133" y="522" on="1"/>
        <pt x="144" y="627" on="0"/>
        <pt x="239" y="709" on="0"/>
        <pt x="319" y="709" on="1"/>
        <pt x="363" y="709" on="0"/>
        <pt x="462" y="684" on="0"/>
        <pt x="462" y="658" on="1"/>
        <pt x="462" y="637" on="0"/>
        <pt x="430" y="584" on="0"/>
        <pt x="398" y="550" on="0"/>
        <pt x="398" y="552" on="1"/>
        <pt x="366" y="573" on="0"/>
        <pt x="293" y="573" on="0"/>
        <pt x="286" y="521" on="1"/>
        <pt x="283" y="500" on="1"/>
      </contour>
    </TTGlyph>
    <TTGlyph name="four" xMin="9" yMin="0" xMax="558" yMax="705">
      <contour>
        <pt x="547" y="299" on="1"/>
        <pt x="557" y="299" on="0"/>
        <pt x="557" y="148" on="0"/>
        <pt x="547" y="148" on="1"/>
        <pt x="481" y="147" on="1"/>
        <pt x="481" y="21" on="1"/>
        <pt x="481" y="10" on="0"/>
        <pt x="399" y="0" on="0"/>
        <pt x="369" y="0" on="1"/>
        <pt x="328" y="2" on="1"/>
        <pt x="277" y="6" on="0"/>
        <pt x="277" y="20" on="1"/>
        <pt x="277" y="144" on="1"/>
        <pt x="78" y="144" on="1"/>
        <pt x="52" y="170" on="0"/>
        <pt x="10" y="253" on="0"/>
        <pt x="10" y="290" on="0"/>
        <pt x="16" y="301" on="1"/>
        <pt x="235" y="689" on="1"/>
        <pt x="239" y="697" on="0"/>
        <pt x="354" y="705" on="0"/>
        <pt x="480" y="705" on="0"/>
        <pt x="480" y="700" on="1"/>
        <pt x="481" y="299" on="1"/>
      </contour>
      <contour>
        <pt x="306" y="298" on="1"/>
        <pt x="306" y="507" on="1"/>
        <pt x="189" y="298" on="1"/>
      </contour>
    </TTGlyph>
    <TTGlyph name="fraction" xMin="-85" yMin="39" xMax="349" yMax="689">
      <contour>
        <pt x="246" y="678" on="1"/>
        <pt x="251" y="689" on="0"/>
        <pt x="280" y="689" on="0"/>
        <pt x="296" y="682" on="1"/>
        <pt x="333" y="665" on="0"/>
        <pt x="344" y="642" on="1"/>
        <pt x="348" y="635" on="0"/>
        <pt x="348" y="623" on="0"/>
        <pt x="346" y="619" on="1"/>
        <pt x="18" y="49" on="1"/>
        <pt x="12" y="39" on="0"/>
        <pt x="-18" y="39" on="0"/>
        <pt x="-33" y="46" on="1"/>
        <pt x="-71" y="64" on="0"/>
        <pt x="-82" y="86" on="1"/>
        <pt x="-85" y="92" on="0"/>
        <pt x="-85" y="103" on="0"/>
        <pt x="-82" y="108" on="1"/>
      </contour>
    </TTGlyph>
    <TTGlyph name="g" xMin="26" yMin="-193" xMax="471" yMax="509">
      <contour>
        <pt x="229" y="0" on="1"/>
        <pt x="132" y="0" on="0"/>
        <pt x="26" y="125" on="0"/>
        <pt x="26" y="370" on="0"/>
        <pt x="165" y="509" on="0"/>
        <pt x="396" y="509" on="0"/>
        <pt x="471" y="458" on="1"/>
        <pt x="471" y="-40" on="1"/>
        <pt x="471" y="-114" on="0"/>
        <pt x="351" y="-193" on="0"/>
        <pt x="163" y="-193" on="0"/>
        <pt x="89" y="-169" on="1"/>
        <pt x="79" y="-145" on="0"/>
        <pt x="79" y="-126" on="1"/>
        <pt x="79" y="-62" on="0"/>
        <pt x="100" y="-32" on="1"/>
        <pt x="167" y="-61" on="0"/>
        <pt x="243" y="-61" on="1"/>
        <pt x="298" y="-61" on="0"/>
        <pt x="298" y="-22" on="1"/>
        <pt x="298" y="8" on="1"/>
        <pt x="255" y="0" on="0"/>
      </contour>
      <contour>
        <pt x="275" y="346" on="1"/>
        <pt x="208" y="346" on="0"/>
        <pt x="208" y="245" on="1"/>
        <pt x="208" y="182" on="0"/>
        <pt x="234" y="163" on="1"/>
        <pt x="251" y="150" on="0"/>
        <pt x="285" y="150" on="0"/>
        <pt x="298" y="153" on="1"/>
        <pt x="298" y="343" on="1"/>
        <pt x="286" y="346" on="0"/>
      </contour>
    </TTGlyph>
    <TTGlyph name="germandbls" xMin="82" yMin="-150" xMax="627" yMax="710">
      <contour>
        <pt x="368" y="-10" on="0"/>
        <pt x="289" y="40" on="0"/>
        <pt x="289" y="78" on="1"/>
        <pt x="289" y="122" on="0"/>
        <pt x="305" y="178" on="1"/>
        <pt x="338" y="163" on="0"/>
        <pt x="370" y="163" on="1"/>
        <pt x="436" y="163" on="0"/>
        <pt x="436" y="211" on="1"/>
        <pt x="436" y="248" on="0"/>
        <pt x="386" y="278" on="0"/>
        <pt x="328" y="281" on="1"/>
        <pt x="303" y="300" on="0"/>
        <pt x="303" y="344" on="1"/>
        <pt x="303" y="365" on="0"/>
        <pt x="317" y="406" on="0"/>
        <pt x="331" y="406" on="1"/>
        <pt x="360" y="407" on="1"/>
        <pt x="363" y="411" on="0"/>
        <pt x="376" y="453" on="0"/>
        <pt x="376" y="521" on="0"/>
        <pt x="346" y="536" on="1"/>
        <pt x="332" y="544" on="0"/>
        <pt x="302" y="544" on="0"/>
        <pt x="286" y="535" on="1"/>
        <pt x="257" y="518" on="0"/>
        <pt x="257" y="478" on="1"/>
        <pt x="258" y="-138" on="1"/>
        <pt x="258" y="-150" on="0"/>
        <pt x="82" y="-150" on="0"/>
        <pt x="82" y="-138" on="1"/>
        <pt x="82" y="507" on="1"/>
        <pt x="82" y="608" on="0"/>
        <pt x="215" y="710" on="0"/>
        <pt x="438" y="710" on="0"/>
        <pt x="555" y="622" on="0"/>
        <pt x="555" y="451" on="0"/>
        <pt x="499" y="355" on="1"/>
        <pt x="564" y="324" on="0"/>
        <pt x="584" y="304" on="1"/>
        <pt x="627" y="262" on="0"/>
        <pt x="627" y="102" on="0"/>
        <pt x="522" y="-10" on="0"/>
        <pt x="428" y="-10" on="1"/>
      </contour>
    </TTGlyph>
    <TTGlyph name="grave" xMin="71" yMin="529" xMax="292" yMax="711">
      <contour>
        <pt x="248" y="529" on="0"/>
        <pt x="76" y="605" on="1"/>
        <pt x="71" y="610" on="0"/>
        <pt x="71" y="619" on="1"/>
        <pt x="71" y="652" on="0"/>
        <pt x="109" y="711" on="0"/>
        <pt x="119" y="711" on="1"/>
        <pt x="122" y="711" on="0"/>
        <pt x="285" y="621" on="1"/>
        <pt x="291" y="615" on="0"/>
        <pt x="291" y="607" on="1"/>
        <pt x="291" y="577" on="0"/>
        <pt x="259" y="529" on="0"/>
        <pt x="250" y="529" on="1"/>
      </contour>
    </TTGlyph>
    <TTGlyph name="greater" xMin="51" yMin="45" xMax="395" yMax="637">
      <contour>
        <pt x="385" y="354" on="1"/>
        <pt x="395" y="344" on="0"/>
        <pt x="395" y="322" on="0"/>
        <pt x="381" y="308" on="1"/>
        <pt x="150" y="52" on="1"/>
        <pt x="143" y="45" on="0"/>
        <pt x="122" y="45" on="0"/>
        <pt x="79" y="64" on="0"/>
        <pt x="52" y="101" on="0"/>
        <pt x="52" y="118" on="0"/>
        <pt x="58" y="124" on="1"/>
        <pt x="263" y="335" on="1"/>
        <pt x="61" y="559" on="1"/>
        <pt x="55" y="565" on="0"/>
        <pt x="55" y="582" on="0"/>
        <pt x="82" y="618" on="0"/>
        <pt x="125" y="637" on="0"/>
        <pt x="146" y="637" on="0"/>
        <pt x="153" y="631" on="1"/>
      </contour>
    </TTGlyph>
    <TTGlyph name="guillemotleft" xMin="89" yMin="23" xMax="662" yMax="485">
      <contour>
        <pt x="99" y="236" on="1"/>
        <pt x="89" y="246" on="0"/>
        <pt x="89" y="268" on="0"/>
        <pt x="103" y="282" on="1"/>
        <pt x="271" y="479" on="1"/>
        <pt x="277" y="485" on="0"/>
        <pt x="296" y="485" on="0"/>
        <pt x="337" y="461" on="0"/>
        <pt x="360" y="422" on="0"/>
        <pt x="360" y="403" on="0"/>
        <pt x="353" y="397" on="1"/>
        <pt x="221" y="255" on="1"/>
        <pt x="355" y="111" on="1"/>
        <pt x="362" y="105" on="0"/>
        <pt x="362" y="86" on="0"/>
        <pt x="339" y="47" on="0"/>
        <pt x="298" y="23" on="0"/>
        <pt x="279" y="23" on="0"/>
        <pt x="273" y="29" on="1"/>
      </contour>
      <contour>
        <pt x="399" y="236" on="1"/>
        <pt x="389" y="246" on="0"/>
        <pt x="389" y="268" on="0"/>
        <pt x="403" y="282" on="1"/>
        <pt x="571" y="479" on="1"/>
        <pt x="577" y="485" on="0"/>
        <pt x="596" y="485" on="0"/>
        <pt x="637" y="461" on="0"/>
        <pt x="660" y="422" on="0"/>
        <pt x="660" y="403" on="0"/>
        <pt x="653" y="397" on="1"/>
        <pt x="521" y="255" on="1"/>
        <pt x="655" y="111" on="1"/>
        <pt x="662" y="105" on="0"/>
        <pt x="662" y="86" on="0"/>
        <pt x="639" y="47" on="0"/>
        <pt x="598" y="23" on="0"/>
        <pt x="579" y="23" on="0"/>
        <pt x="573" y="29" on="1"/>
      </contour>
    </TTGlyph>
    <TTGlyph name="guillemotright" xMin="89" yMin="22" xMax="662" yMax="485">
      <contour>
        <pt x="478" y="29" on="1"/>
        <pt x="471" y="22" on="0"/>
        <pt x="452" y="22" on="0"/>
        <pt x="412" y="46" on="0"/>
        <pt x="389" y="86" on="0"/>
        <pt x="389" y="105" on="0"/>
        <pt x="396" y="111" on="1"/>
        <pt x="530" y="255" on="1"/>
        <pt x="398" y="397" on="1"/>
        <pt x="391" y="403" on="0"/>
        <pt x="391" y="422" on="0"/>
        <pt x="414" y="461" on="0"/>
        <pt x="454" y="485" on="0"/>
        <pt x="474" y="485" on="0"/>
        <pt x="480" y="479" on="1"/>
        <pt x="648" y="282" on="1"/>
        <pt x="662" y="268" on="0"/>
        <pt x="662" y="246" on="0"/>
        <pt x="652" y="236" on="1"/>
      </contour>
      <contour>
        <pt x="178" y="29" on="1"/>
        <pt x="171" y="22" on="0"/>
        <pt x="152" y="22" on="0"/>
        <pt x="112" y="46" on="0"/>
        <pt x="89" y="86" on="0"/>
        <pt x="89" y="105" on="0"/>
        <pt x="96" y="111" on="1"/>
        <pt x="230" y="255" on="1"/>
        <pt x="98" y="397" on="1"/>
        <pt x="91" y="403" on="0"/>
        <pt x="91" y="422" on="0"/>
        <pt x="114" y="461" on="0"/>
        <pt x="154" y="485" on="0"/>
        <pt x="174" y="485" on="0"/>
        <pt x="180" y="479" on="1"/>
        <pt x="348" y="282" on="1"/>
        <pt x="362" y="268" on="0"/>
        <pt x="362" y="246" on="0"/>
        <pt x="352" y="236" on="1"/>
      </contour>
    </TTGlyph>
    <TTGlyph name="guilsinglleft" xMin="89" yMin="23" xMax="362" yMax="485">
      <contour>
        <pt x="99" y="236" on="1"/>
        <pt x="89" y="246" on="0"/>
        <pt x="89" y="268" on="0"/>
        <pt x="103" y="282" on="1"/>
        <pt x="271" y="479" on="1"/>
        <pt x="277" y="485" on="0"/>
        <pt x="296" y="485" on="0"/>
        <pt x="337" y="461" on="0"/>
        <pt x="360" y="422" on="0"/>
        <pt x="360" y="403" on="0"/>
        <pt x="353" y="397" on="1"/>
        <pt x="221" y="255" on="1"/>
        <pt x="355" y="111" on="1"/>
        <pt x="362" y="105" on="0"/>
        <pt x="362" y="86" on="0"/>
        <pt x="339" y="47" on="0"/>
        <pt x="298" y="23" on="0"/>
        <pt x="279" y="23" on="0"/>
        <pt x="273" y="29" on="1"/>
      </contour>
    </TTGlyph>
    <TTGlyph name="guilsinglright" xMin="89" yMin="22" xMax="362" yMax="485">
      <contour>
        <pt x="178" y="29" on="1"/>
        <pt x="171" y="22" on="0"/>
        <pt x="152" y="22" on="0"/>
        <pt x="112" y="46" on="0"/>
        <pt x="89" y="86" on="0"/>
        <pt x="89" y="105" on="0"/>
        <pt x="96" y="111" on="1"/>
        <pt x="230" y="255" on="1"/>
        <pt x="98" y="397" on="1"/>
        <pt x="91" y="403" on="0"/>
        <pt x="91" y="422" on="0"/>
        <pt x="114" y="461" on="0"/>
        <pt x="154" y="485" on="0"/>
        <pt x="174" y="485" on="0"/>
        <pt x="180" y="479" on="1"/>
        <pt x="348" y="282" on="1"/>
        <pt x="362" y="268" on="0"/>
        <pt x="362" y="246" on="0"/>
        <pt x="352" y="236" on="1"/>
      </contour>
    </TTGlyph>
    <TTGlyph name="h" xMin="45" yMin="-2" xMax="461" yMax="710">
      <contour>
        <pt x="212" y="7" on="1"/>
        <pt x="212" y="-2" on="0"/>
        <pt x="45" y="-2" on="0"/>
        <pt x="45" y="12" on="1"/>
        <pt x="45" y="697" on="1"/>
        <pt x="45" y="704" on="0"/>
        <pt x="107" y="710" on="0"/>
        <pt x="128" y="710" on="1"/>
        <pt x="212" y="710" on="0"/>
        <pt x="212" y="692" on="1"/>
        <pt x="212" y="492" on="1"/>
        <pt x="268" y="509" on="0"/>
        <pt x="297" y="509" on="1"/>
        <pt x="373" y="509" on="0"/>
        <pt x="461" y="428" on="0"/>
        <pt x="461" y="318" on="1"/>
        <pt x="461" y="8" on="1"/>
        <pt x="461" y="-1" on="0"/>
        <pt x="383" y="-1" on="1"/>
        <pt x="295" y="2" on="0"/>
        <pt x="295" y="9" on="1"/>
        <pt x="295" y="303" on="1"/>
        <pt x="295" y="352" on="0"/>
        <pt x="263" y="352" on="1"/>
        <pt x="241" y="352" on="0"/>
        <pt x="212" y="331" on="1"/>
      </contour>
    </TTGlyph>
    <TTGlyph name="hyphen" xMin="35" yMin="190" xMax="490" yMax="306">
      <contour>
        <pt x="460" y="190" on="1"/>
        <pt x="65" y="190" on="1"/>
        <pt x="47" y="190" on="0"/>
        <pt x="39" y="219" on="1"/>
        <pt x="35" y="234" on="0"/>
        <pt x="35" y="262" on="0"/>
        <pt x="39" y="277" on="1"/>
        <pt x="47" y="306" on="0"/>
        <pt x="65" y="306" on="1"/>
        <pt x="460" y="306" on="1"/>
        <pt x="478" y="306" on="0"/>
        <pt x="486" y="277" on="1"/>
        <pt x="490" y="262" on="0"/>
        <pt x="490" y="234" on="0"/>
        <pt x="486" y="219" on="1"/>
        <pt x="478" y="190" on="0"/>
      </contour>
    </TTGlyph>
    <TTGlyph name="i" xMin="45" yMin="-3" xMax="228" yMax="710">
      <contour>
        <pt x="228" y="6" on="1"/>
        <pt x="228" y="-2" on="0"/>
        <pt x="45" y="-2" on="0"/>
        <pt x="45" y="5" on="1"/>
        <pt x="45" y="496" on="1"/>
        <pt x="45" y="503" on="0"/>
        <pt x="228" y="503" on="0"/>
        <pt x="228" y="497" on="1"/>
      </contour>
      <contour>
        <pt x="228" y="556" on="1"/>
        <pt x="228" y="549" on="0"/>
        <pt x="45" y="549" on="0"/>
        <pt x="45" y="555" on="1"/>
        <pt x="45" y="699" on="1"/>
        <pt x="45" y="709" on="0"/>
        <pt x="228" y="709" on="0"/>
        <pt x="228" y="703" on="1"/>
      </contour>
    </TTGlyph>
    <TTGlyph name="iacute" xMin="21" yMin="-3" xMax="242" yMax="711">
      <contour>
        <pt x="63" y="529" on="1"/>
        <pt x="54" y="529" on="0"/>
        <pt x="40" y="549" on="1"/>
        <pt x="22" y="577" on="0"/>
        <pt x="22" y="615" on="0"/>
        <pt x="28" y="621" on="1"/>
        <pt x="191" y="711" on="0"/>
        <pt x="194" y="711" on="1"/>
        <pt x="204" y="711" on="0"/>
        <pt x="219" y="687" on="1"/>
        <pt x="242" y="652" on="0"/>
        <pt x="242" y="621" on="1"/>
        <pt x="242" y="610" on="0"/>
        <pt x="237" y="605" on="1"/>
        <pt x="65" y="529" on="0"/>
      </contour>
      <contour>
        <pt x="222" y="6" on="1"/>
        <pt x="222" y="-2" on="0"/>
        <pt x="45" y="-2" on="0"/>
        <pt x="45" y="5" on="1"/>
        <pt x="45" y="480" on="1"/>
        <pt x="45" y="486" on="0"/>
        <pt x="222" y="486" on="0"/>
        <pt x="222" y="481" on="1"/>
      </contour>
    </TTGlyph>
    <TTGlyph name="icircumflex" xMin="-39" yMin="-3" xMax="303" yMax="709">
      <contour>
        <pt x="5" y="524" on="1"/>
        <pt x="-4" y="524" on="0"/>
        <pt x="-19" y="546" on="1"/>
        <pt x="-39" y="576" on="0"/>
        <pt x="-39" y="616" on="0"/>
        <pt x="-33" y="621" on="1"/>
        <pt x="121" y="705" on="1"/>
        <pt x="128" y="709" on="0"/>
        <pt x="136" y="709" on="0"/>
        <pt x="143" y="705" on="1"/>
        <pt x="297" y="621" on="1"/>
        <pt x="303" y="616" on="0"/>
        <pt x="303" y="607" on="1"/>
        <pt x="303" y="576" on="0"/>
        <pt x="269" y="524" on="0"/>
        <pt x="260" y="524" on="1"/>
        <pt x="258" y="524" on="0"/>
        <pt x="132" y="598" on="1"/>
        <pt x="7" y="524" on="0"/>
      </contour>
      <contour>
        <pt x="222" y="6" on="1"/>
        <pt x="222" y="-2" on="0"/>
        <pt x="45" y="-2" on="0"/>
        <pt x="45" y="5" on="1"/>
        <pt x="45" y="480" on="1"/>
        <pt x="45" y="486" on="0"/>
        <pt x="222" y="486" on="0"/>
        <pt x="222" y="481" on="1"/>
      </contour>
    </TTGlyph>
    <TTGlyph name="idieresis" xMin="-53" yMin="-3" xMax="316" yMax="701">
      <contour>
        <pt x="86" y="552" on="1"/>
        <pt x="86" y="546" on="0"/>
        <pt x="-53" y="546" on="0"/>
        <pt x="-53" y="551" on="1"/>
        <pt x="-53" y="691" on="1"/>
        <pt x="-53" y="700" on="0"/>
        <pt x="86" y="700" on="0"/>
        <pt x="86" y="695" on="1"/>
      </contour>
      <contour>
        <pt x="316" y="552" on="1"/>
        <pt x="316" y="546" on="0"/>
        <pt x="177" y="546" on="0"/>
        <pt x="177" y="551" on="1"/>
        <pt x="177" y="691" on="1"/>
        <pt x="177" y="700" on="0"/>
        <pt x="316" y="700" on="0"/>
        <pt x="316" y="695" on="1"/>
      </contour>
      <contour>
        <pt x="222" y="6" on="1"/>
        <pt x="222" y="-2" on="0"/>
        <pt x="45" y="-2" on="0"/>
        <pt x="45" y="5" on="1"/>
        <pt x="45" y="480" on="1"/>
        <pt x="45" y="486" on="0"/>
        <pt x="222" y="486" on="0"/>
        <pt x="222" y="481" on="1"/>
      </contour>
    </TTGlyph>
    <TTGlyph name="igrave" xMin="22" yMin="-3" xMax="243" yMax="711">
      <contour>
        <pt x="199" y="529" on="0"/>
        <pt x="27" y="605" on="1"/>
        <pt x="22" y="610" on="0"/>
        <pt x="22" y="619" on="1"/>
        <pt x="22" y="652" on="0"/>
        <pt x="60" y="711" on="0"/>
        <pt x="70" y="711" on="1"/>
        <pt x="73" y="711" on="0"/>
        <pt x="236" y="621" on="1"/>
        <pt x="242" y="615" on="0"/>
        <pt x="242" y="607" on="1"/>
        <pt x="242" y="577" on="0"/>
        <pt x="210" y="529" on="0"/>
        <pt x="201" y="529" on="1"/>
      </contour>
      <contour>
        <pt x="222" y="6" on="1"/>
        <pt x="222" y="-2" on="0"/>
        <pt x="45" y="-2" on="0"/>
        <pt x="45" y="5" on="1"/>
        <pt x="45" y="480" on="1"/>
        <pt x="45" y="486" on="0"/>
        <pt x="222" y="486" on="0"/>
        <pt x="222" y="481" on="1"/>
      </contour>
    </TTGlyph>
    <TTGlyph name="j" xMin="-118" yMin="-197" xMax="226" yMax="709">
      <contour>
        <pt x="45" y="35" on="1"/>
        <pt x="45" y="496" on="1"/>
        <pt x="45" y="502" on="0"/>
        <pt x="226" y="502" on="0"/>
        <pt x="226" y="497" on="1"/>
        <pt x="226" y="-36" on="1"/>
        <pt x="226" y="-110" on="0"/>
        <pt x="103" y="-197" on="0"/>
        <pt x="11" y="-197" on="1"/>
        <pt x="-118" y="-197" on="0"/>
        <pt x="-118" y="-107" on="1"/>
        <pt x="-118" y="-77" on="0"/>
        <pt x="-108" y="-57" on="1"/>
        <pt x="-99" y="-58" on="0"/>
        <pt x="-83" y="-58" on="1"/>
        <pt x="-10" y="-58" on="0"/>
        <pt x="45" y="-12" on="0"/>
      </contour>
      <contour>
        <pt x="45" y="555" on="1"/>
        <pt x="45" y="699" on="1"/>
        <pt x="45" y="709" on="0"/>
        <pt x="226" y="709" on="0"/>
        <pt x="226" y="703" on="1"/>
        <pt x="226" y="556" on="1"/>
        <pt x="226" y="549" on="0"/>
        <pt x="45" y="549" on="0"/>
      </contour>
    </TTGlyph>
    <TTGlyph name="k" xMin="45" yMin="-6" xMax="525" yMax="709">
      <contour>
        <pt x="45" y="692" on="1"/>
        <pt x="45" y="708" on="0"/>
        <pt x="136" y="708" on="1"/>
        <pt x="221" y="705" on="0"/>
        <pt x="221" y="695" on="1"/>
        <pt x="221" y="311" on="1"/>
        <pt x="320" y="494" on="1"/>
        <pt x="327" y="509" on="0"/>
        <pt x="483" y="509" on="0"/>
        <pt x="505" y="499" on="1"/>
        <pt x="375" y="287" on="1"/>
        <pt x="525" y="6" on="1"/>
        <pt x="527" y="2" on="0"/>
        <pt x="448" y="-3" on="0"/>
        <pt x="422" y="-3" on="1"/>
        <pt x="326" y="-3" on="0"/>
        <pt x="319" y="6" on="1"/>
        <pt x="220" y="228" on="1"/>
        <pt x="220" y="7" on="1"/>
        <pt x="220" y="-6" on="0"/>
        <pt x="45" y="-6" on="0"/>
        <pt x="45" y="6" on="1"/>
      </contour>
    </TTGlyph>
    <TTGlyph name="l" xMin="45" yMin="-2" xMax="227" yMax="704">
      <contour>
        <pt x="227" y="8" on="1"/>
        <pt x="227" y="-1" on="0"/>
        <pt x="125" y="-1" on="1"/>
        <pt x="45" y="0" on="0"/>
        <pt x="45" y="7" on="1"/>
        <pt x="45" y="688" on="1"/>
        <pt x="45" y="703" on="0"/>
        <pt x="142" y="703" on="1"/>
        <pt x="227" y="700" on="0"/>
        <pt x="227" y="693" on="1"/>
      </contour>
    </TTGlyph>
    <TTGlyph name="less" xMin="52" yMin="45" xMax="395" yMax="638">
      <contour>
        <pt x="300" y="638" on="0"/>
        <pt x="322" y="638" on="0"/>
        <pt x="365" y="618" on="0"/>
        <pt x="392" y="582" on="0"/>
        <pt x="392" y="565" on="0"/>
        <pt x="386" y="559" on="1"/>
        <pt x="184" y="335" on="1"/>
        <pt x="389" y="124" on="1"/>
        <pt x="395" y="118" on="0"/>
        <pt x="395" y="101" on="0"/>
        <pt x="367" y="64" on="0"/>
        <pt x="325" y="45" on="0"/>
        <pt x="304" y="45" on="0"/>
        <pt x="297" y="52" on="1"/>
        <pt x="66" y="308" on="1"/>
        <pt x="52" y="322" on="0"/>
        <pt x="52" y="344" on="0"/>
        <pt x="62" y="354" on="1"/>
        <pt x="294" y="631" on="1"/>
      </contour>
    </TTGlyph>
    <TTGlyph name="logicalnot" xMin="67" yMin="59" xMax="510" yMax="336">
      <contour>
        <pt x="510" y="81" on="1"/>
        <pt x="510" y="60" on="0"/>
        <pt x="454" y="60" on="1"/>
        <pt x="437" y="60" on="0"/>
        <pt x="389" y="70" on="0"/>
        <pt x="389" y="84" on="1"/>
        <pt x="391" y="220" on="1"/>
        <pt x="97" y="220" on="1"/>
        <pt x="79" y="220" on="0"/>
        <pt x="71" y="249" on="1"/>
        <pt x="67" y="264" on="0"/>
        <pt x="67" y="292" on="0"/>
        <pt x="71" y="307" on="1"/>
        <pt x="79" y="336" on="0"/>
        <pt x="97" y="336" on="1"/>
        <pt x="469" y="336" on="1"/>
        <pt x="510" y="336" on="0"/>
        <pt x="510" y="298" on="1"/>
      </contour>
    </TTGlyph>
    <TTGlyph name="lslash" xMin="5" yMin="-2" xMax="370" yMax="704">
      <contour>
        <pt x="277" y="8" on="1"/>
        <pt x="277" y="-1" on="0"/>
        <pt x="175" y="-1" on="1"/>
        <pt x="95" y="0" on="0"/>
        <pt x="95" y="7" on="1"/>
        <pt x="95" y="218" on="1"/>
        <pt x="35" y="218" on="1"/>
        <pt x="17" y="218" on="0"/>
        <pt x="9" y="247" on="1"/>
        <pt x="5" y="262" on="0"/>
        <pt x="5" y="290" on="0"/>
        <pt x="9" y="305" on="1"/>
        <pt x="17" y="334" on="0"/>
        <pt x="35" y="334" on="1"/>
        <pt x="95" y="334" on="1"/>
        <pt x="95" y="688" on="1"/>
        <pt x="95" y="703" on="0"/>
        <pt x="192" y="703" on="1"/>
        <pt x="277" y="700" on="0"/>
        <pt x="277" y="693" on="1"/>
        <pt x="277" y="334" on="1"/>
        <pt x="340" y="334" on="1"/>
        <pt x="358" y="334" on="0"/>
        <pt x="366" y="305" on="1"/>
        <pt x="370" y="290" on="0"/>
        <pt x="370" y="262" on="0"/>
        <pt x="366" y="247" on="1"/>
        <pt x="358" y="218" on="0"/>
        <pt x="340" y="218" on="1"/>
        <pt x="277" y="218" on="1"/>
      </contour>
    </TTGlyph>
    <TTGlyph name="m" xMin="19" yMin="-4" xMax="748" yMax="510">
      <contour>
        <pt x="498" y="5" on="1"/>
        <pt x="498" y="-2" on="0"/>
        <pt x="327" y="-2" on="0"/>
        <pt x="327" y="7" on="1"/>
        <pt x="327" y="298" on="1"/>
        <pt x="327" y="348" on="0"/>
        <pt x="294" y="348" on="1"/>
        <pt x="277" y="348" on="0"/>
        <pt x="249" y="326" on="1"/>
        <pt x="249" y="6" on="1"/>
        <pt x="249" y="-4" on="0"/>
        <pt x="78" y="-4" on="0"/>
        <pt x="78" y="7" on="1"/>
        <pt x="78" y="334" on="1"/>
        <pt x="53" y="334" on="1"/>
        <pt x="20" y="334" on="0"/>
        <pt x="20" y="403" on="1"/>
        <pt x="20" y="434" on="0"/>
        <pt x="32" y="466" on="1"/>
        <pt x="48" y="510" on="0"/>
        <pt x="120" y="510" on="0"/>
        <pt x="187" y="472" on="0"/>
        <pt x="194" y="455" on="1"/>
        <pt x="256" y="510" on="0"/>
        <pt x="407" y="510" on="0"/>
        <pt x="453" y="463" on="1"/>
        <pt x="507" y="510" on="0"/>
        <pt x="583" y="510" on="1"/>
        <pt x="748" y="510" on="0"/>
        <pt x="748" y="309" on="1"/>
        <pt x="748" y="5" on="1"/>
        <pt x="748" y="-2" on="0"/>
        <pt x="577" y="-2" on="0"/>
        <pt x="577" y="7" on="1"/>
        <pt x="577" y="298" on="1"/>
        <pt x="577" y="348" on="0"/>
        <pt x="544" y="348" on="1"/>
        <pt x="526" y="348" on="0"/>
        <pt x="498" y="326" on="1"/>
      </contour>
    </TTGlyph>
    <TTGlyph name="minus" xMin="67" yMin="190" xMax="522" yMax="306">
      <contour>
        <pt x="492" y="190" on="1"/>
        <pt x="97" y="190" on="1"/>
        <pt x="79" y="190" on="0"/>
        <pt x="71" y="219" on="1"/>
        <pt x="67" y="234" on="0"/>
        <pt x="67" y="262" on="0"/>
        <pt x="71" y="277" on="1"/>
        <pt x="79" y="306" on="0"/>
        <pt x="97" y="306" on="1"/>
        <pt x="492" y="306" on="1"/>
        <pt x="510" y="306" on="0"/>
        <pt x="518" y="277" on="1"/>
        <pt x="522" y="262" on="0"/>
        <pt x="522" y="234" on="0"/>
        <pt x="518" y="219" on="1"/>
        <pt x="510" y="190" on="0"/>
      </contour>
    </TTGlyph>
</ttFont>
